SplineFontDB: 3.0
FontName: ObliquayCondensedBold
FullName: Obliquay Condensed Bold
FamilyName: Obliquay
Weight: Bold
Copyright: (c) Frank Sikernitsky, 2014-2017
Version: Version 1.4.067
ItalicAngle: 0
UnderlinePosition: -100
UnderlineWidth: 50
Ascent: 1050
Descent: 235
InvalidEm: 0
sfntRevision: 0x00010000
LayerCount: 2
Layer: 0 0 "Back" 1
Layer: 1 0 "Fore" 0
XUID: [1021 668 1240808111 15182958]
StyleMap: 0x0020
FSType: 0
OS2Version: 3
OS2_WeightWidthSlopeOnly: 0
OS2_UseTypoMetrics: 1
CreationTime: -2082844800
ModificationTime: 1490668853
PfmFamily: 81
TTFWeight: 700
TTFWidth: 3
LineGap: 0
VLineGap: 0
Panose: 0 0 0 0 0 0 0 0 0 0
OS2TypoAscent: 0
OS2TypoAOffset: 1
OS2TypoDescent: 0
OS2TypoDOffset: 1
OS2TypoLinegap: 0
OS2WinAscent: 0
OS2WinAOffset: 1
OS2WinDescent: 0
OS2WinDOffset: 1
HheadAscent: 0
HheadAOffset: 1
HheadDescent: 0
HheadDOffset: 1
OS2SubXSize: 650
OS2SubYSize: 699
OS2SubXOff: 0
OS2SubYOff: 140
OS2SupXSize: 650
OS2SupYSize: 699
OS2SupXOff: 0
OS2SupYOff: 479
OS2StrikeYSize: 49
OS2StrikeYPos: 258
OS2Vendor: 'XXXX'
OS2CodePages: 00000001.00000000
OS2UnicodeRanges: a000003f.5000004f.00000000.00000000
Lookup: 258 0 0 "'kern' Horizontal Kerning in Latin lookup 1" { "'kern' Horizontal Kerning in Latin lookup 1-1" [155,0,0] } ['kern' ('DFLT' <'dflt' > 'latn' <'dflt' > ) ]
Lookup: 258 0 0 "'dist' Distance in Latin lookup 0" { } ['dist' ('DFLT' <'dflt' > 'latn' <'dflt' > ) ]
MarkAttachClasses: 1
DEI: 91125
KernClass2: 35 29 "'kern' Horizontal Kerning in Latin lookup 1-1"
 1 A
 1 B
 1 C
 1 D
 1 E
 1 F
 3 G S
 13 H I M N i l d
 3 J U
 1 K
 1 L
 3 O Q
 1 P
 1 R
 1 T
 1 V
 1 W
 1 X
 1 Y
 1 Z
 7 a h m n
 5 b p s
 1 c
 1 e
 1 f
 5 g q u
 1 j
 1 k
 1 o
 1 r
 1 t
 5 v w y
 1 x
 1 z
 1 A
 31 B D E F H I K L M N P R b h i l
 5 C O Q
 1 G
 1 J
 1 S
 1 T
 1 U
 1 V
 1 W
 1 X
 1 Y
 1 Z
 1 a
 5 c e o
 1 d
 3 f t
 1 g
 1 j
 1 k
 9 m n p r u
 1 q
 1 s
 3 v y
 1 w
 1 x
 1 z
 0 

StartChar: .notdef
Encoding: 0 -1 0
AltUni2: 000000.ffffffff.0
Width: 636
VWidth: 1024
Flags: HW
LayerCount: 2
Fore
SplineSet
70 700 m 1
 86 700 l 1
 550 700 l 1
 566 700 l 1
 566 684 l 1
 566 16 l 1
 566 0 l 1
 550 0 l 1
 86 0 l 1
 70 0 l 1
 70 16 l 1
 70 684 l 1
 70 700 l 1
152 618 m 1
 152 82 l 1
 484 82 l 1
 484 618 l 1
 152 618 l 1
EndSplineSet
Validated: 1
EndChar

StartChar: exclam
Encoding: 33 33 2
Width: 299
VWidth: 1024
Flags: HW
LayerCount: 2
Fore
SplineSet
70 929.479492188 m 1
 84.408203125 930.920898438 l 1
 204.408203125 942.920898438 l 1
 221.653320312 944.645507812 l 1
 221.997070312 927.31640625 l 1
 229.997070312 523.31640625 l 1
 230.01171875 522.55859375 l 1
 229.955078125 521.801757812 l 1
 204.955078125 188.801757812 l 1
 203.7890625 173.268554688 l 1
 188.229492188 174.018554688 l 1
 105.229492188 178.018554688 l 1
 90.8642578125 178.7109375 l 1
 90.02734375 193.068359375 l 1
 70.02734375 536.068359375 l 1
 70 536.534179688 l 1
 70 537 l 1
 70 915 l 1
 70 929.479492188 l 1
75.51171875 -6 m 1
 75.0087890625 9.4794921875 l 1
 71.0087890625 132.479492188 l 1
 70.453125 149.546875 l 1
 87.5205078125 148.991210938 l 1
 210.520507812 144.991210938 l 1
 226 144.48828125 l 1
 226 129 l 1
 226 10 l 1
 226 -6 l 1
 210 -6 l 1
 91 -6 l 1
 75.51171875 -6 l 1
EndSplineSet
Validated: 524289
EndChar

StartChar: quotedbl
Encoding: 34 34 3
Width: 455
VWidth: 1024
Flags: HW
LayerCount: 2
Fore
SplineSet
66 928.051757812 m 1
 84.1845703125 926.971679688 l 1
 185.184570312 920.971679688 l 1
 199.158203125 920.141601562 l 1
 200.192382812 908.076171875 l 1
 208.192382812 814.73046875 l 1
 208.40234375 812.276367188 l 1
 207.620117188 809.91015625 l 1
 179.620117188 725.20703125 l 1
 176.677734375 716.306640625 l 1
 166.036132812 715.1015625 l 1
 113.036132812 709.1015625 l 1
 98.3203125 707.435546875 l 1
 95.5234375 721.978515625 l 1
 75.5234375 812 l 1
 75.3427734375 812.81640625 l 1
 75.275390625 813.645507812 l 1
 67.275390625 912.322265625 l 1
 66 928.051757812 l 1
245.236328125 917.87890625 m 1
 260.075195312 918.958007812 l 1
 370.075195312 926.958007812 l 1
 387.236328125 928.206054688 l 1
 387.236328125 911 l 1
 387.236328125 813.41015625 l 1
 387.236328125 811.536132812 l 1
 386.6484375 809.731445312 l 1
 357.6484375 720.702148438 l 1
 353.715820312 706.6015625 l 1
 339.322265625 709.267578125 l 1
 285.322265625 719.267578125 l 1
 275.58984375 721.069335938 l 1
 272.857421875 729.251953125 l 1
 245.857421875 810.106445312 l 1
 245.236328125 811.967773438 l 1
 245.236328125 813.905273438 l 1
 245.236328125 905.081054688 l 1
 245.236328125 917.87890625 l 1
EndSplineSet
Validated: 524289
EndChar

StartChar: numbersign
Encoding: 35 35 4
Width: 871
VWidth: 1024
Flags: HW
LayerCount: 2
Fore
SplineSet
516.553702316 640.250976562 m 1
 396.504248346 641.803710938 l 1
 347.294041017 289 l 1
 467.304688157 289 l 1
 516.553702316 640.250976562 l 1
558.541643875 927 m 1
 573.68155186 927 l 1
 661.749982325 927 l 1
 679.999023438 927 l 1
 678.208984375 909.979492188 l 1
 660.386499098 746.547851562 l 1
 805.09375 748.265625 l 1
 823.801757812 748.489257812 l 1
 821.126953125 730.599609375 l 1
 808.126953125 643.6484375 l 1
 806.120117188 630.228515625 l 1
 792.086914062 630.401367188 l 1
 648.291354041 632.153320312 l 1
 610.904643957 294.063476562 l 1
 732.409179688 293.22265625 l 1
 750.5625 293.092773438 l 1
 748.149414062 275.709960938 l 1
 737.149414062 196.487304688 l 1
 735.302734375 183.186523438 l 1
 721.412109375 183.084960938 l 1
 598.894454394 182.224609375 l 1
 580.038530198 14.3916015625 l 1
 578.476817486 0 l 1
 562.941499365 0 l 1
 444.800921912 0 l 1
 425.270597936 0 l 1
 427.756332742 18.037109375 l 1
 451.046723925 187 l 1
 331.040272118 187 l 1
 307.188755145 13.962890625 l 1
 305.264146129 0 l 1
 290.144165975 0 l 1
 202.291015625 0 l 1
 184.66796875 0 l 1
 186.365234375 16.947265625 l 1
 202.65625 179.5859375 l 1
 69.3974609375 178.733398438 l 1
 51 178.615234375 l 1
 53.431640625 196.233398438 l 1
 65.431640625 283.184570312 l 1
 67.2958984375 296.69140625 l 1
 81.3994140625 296.599609375 l 1
 215.513387129 295.728515625 l 1
 252.967222541 637.079101562 l 1
 141.907226562 639.577148438 l 1
 123.94140625 639.994140625 l 1
 126.447265625 657.186523438 l 1
 136.447265625 725.78125 l 1
 138.35546875 738.8671875 l 1
 152.03125 739.08203125 l 1
 264.886163611 740.790039062 l 1
 283.784041138 912.575195312 l 1
 285.316386518 927 l 1
 300.88421847 927 l 1
 419.024795923 927 l 1
 438.604415062 927 l 1
 436.064140927 908.923828125 l 1
 411.789944154 736.25390625 l 1
 532.739297054 737.806640625 l 1
 556.634865023 913.015625 l 1
 558.541643875 927 l 1
EndSplineSet
Validated: 524289
EndChar

StartChar: dollar
Encoding: 36 36 5
Width: 716
VWidth: 1024
Flags: HW
LayerCount: 2
Fore
SplineSet
93.3896484375 191.28125 m 1
 110.28125 185.5234375 l 2
 258.450723911 136.768554688 286.449642823 131.809570312 423.112337538 128.879882812 c 0
 510.37890625 130.75 509 134.944335938 509 256.59375 c 0
 509 359.884765625 512.944335938 359.451171875 330.780351085 392.436523438 c 0
 79.1865234375 440.727539062 57 463.325195312 57 684.595703125 c 0
 57 879.874023438 92.166015625 937.129882812 267.953214593 944.384765625 c 1
 270.325001195 989.07421875 273.833360211 1082.81738281 273.835552251 1082.88085938 c 2
 274.36054568 1096.91308594 l 1
 290.48080323 1097.95800781 l 1
 413.936460722 1105.95800781 l 1
 432.738678445 1107.17675781 l 1
 433.190238556 1090.3828125 l 1
 437.30250442 941.249023438 l 1
 485.37831195 936.271484375 542.412109375 925.783203125 622.801757812 901.125976562 c 2
 640.497070312 895.698242188 l 1
 632.392578125 879.430664062 l 1
 581.392578125 777.060546875 l 1
 575.283203125 764.797851562 l 1
 562 769.05859375 l 2
 482.078196674 793.895507812 465.701470518 806.299804688 329.941896024 806.299804688 c 0
 211.959760847 806.299804688 201 794.948242188 201 636.659179688 c 0
 201 551.0078125 197.31640625 550.931640625 434.597527834 507.641601562 c 0
 638.821289062 468.125976562 659 446.546875 659 266.178710938 c 0
 659 72.31640625 642.6171875 11.8310546875 459.568144352 -0.0615234375 c 1
 457.699430787 -45.8447265625 453.403033615 -140.548828125 453.383305261 -140.987304688 c 2
 452.751997921 -154.920898438 l 1
 436.74243836 -155.958007812 l 1
 313.286780868 -163.958007812 l 1
 294.481275086 -165.176757812 l 1
 294.033003034 -148.380859375 l 1
 289.930601347 1.279296875 l 1
 126.189453125 13.7587890625 74.689453125 53.3505859375 70.1787109375 56.8974609375 c 2
 63.1748046875 62.4033203125 l 1
 65.40234375 71.904296875 l 1
 89.40234375 174.274414062 l 1
 93.3896484375 191.28125 l 1
EndSplineSet
Validated: 524321
EndChar

StartChar: percent
Encoding: 37 37 6
Width: 851
VWidth: 1024
Flags: HW
LayerCount: 2
Fore
SplineSet
58 20.5029296875 m 1
 70.1015625 40.64453125 l 1
 628.703129602 919.455078125 l 1
 636.611312807 931.650390625 l 1
 650.6640625 925.516601562 l 1
 732.6640625 888.78515625 l 1
 747.961914062 881.932617188 l 1
 740.081054688 867.524414062 l 1
 240.1333937 8.1943359375 l 1
 234.538746699 -1.2841796875 l 1
 222.665404862 0.130859375 l 1
 81.896484375 17.533203125 l 1
 58 20.5029296875 l 1
65.9365234375 775 m 0
 65.9365234375 904.661132812 80.005859375 941 201.936523438 941 c 2
 218.391423402 941 l 2
 350.986032938 941 366.25537188 904.729492188 366.25537188 775 c 2
 366.25537188 733 l 2
 366.25537188 629.721679688 356.360393348 554.1171875 224.875648788 552.999023438 c 0
 88.9150390625 554.106445312 65.9365234375 645.708984375 65.9365234375 775 c 0
218.391423402 842 m 0
 169.680664062 842 173.936523438 840.689453125 173.936523438 783.953125 c 2
 173.936523438 749.48828125 l 2
 173.936523438 691.83203125 171.564453125 686 218.391423402 686 c 0
 262.516197717 686 262.642678056 695.829101562 262.642678056 743.139648438 c 2
 262.642678056 810.255859375 l 2
 262.642678056 846.321289062 271.095780722 842 218.391423402 842 c 0
801.936523438 144.010742188 m 0
 801.936523438 17.2451171875 786.974609375 -15 656.936523438 -15 c 0
 517.309786914 -15 502.247032525 23.5693359375 502.247032525 149.7578125 c 0
 502.247032525 272.514648438 507.597150871 349 652.936523438 349 c 0
 788.819335938 349 801.936523438 267.771484375 801.936523438 144.010742188 c 0
612.335519714 97.3203125 m 0
 612.335519714 84.779296875 607.698961282 80 648.936523438 80 c 0
 705.146484375 80 707.936523438 82.1064453125 707.936523438 141.989257812 c 2
 707.936523438 151.104492188 l 2
 707.936523438 222.153320312 707.107421875 245 660.936523438 245 c 0
 615.090683102 245 614.494117502 228.325195312 614.494117502 166.602539062 c 2
 614.494117502 148.370117188 l 1
 614.494117502 139.25390625 l 2
 614.494117502 121.830078125 612.335519714 106.744140625 612.335519714 97.3203125 c 0
EndSplineSet
Validated: 524321
EndChar

StartChar: ampersand
Encoding: 38 38 7
Width: 626
VWidth: 1024
Flags: HW
LayerCount: 2
Fore
SplineSet
228.438053899 -147.235351562 m 1
 241.046355117 -15.7958984375 l 1
 99.0166015625 0.02734375 58 77.25 58 183.732421875 c 0
 58 193.237304688 58.083984375 205.041015625 59.041015625 215.028320312 c 0
 63.2861328125 297.845703125 64.7705078125 366.106445312 150.846679688 403.391601562 c 1
 96.93359375 427.96484375 88.935546875 471.23828125 85 562.229492188 c 2
 85 579.069335938 l 2
 85 707.034179688 153.711914062 756.201171875 239.591110761 771.682617188 c 1
 233.542286267 820.172851562 222.709818248 903.126953125 222.626236156 903.76953125 c 2
 220.461116505 920.359375 l 1
 240.588371056 920.989257812 l 1
 368.384243629 924.989257812 l 1
 388.346623918 925.614257812 l 1
 387.824522088 909.068359375 l 1
 383.600764079 775.192382812 l 1
 454.125976562 768.920898438 494.620117188 747.826171875 550.995117188 704.015625 c 2
 563.66796875 694.166992188 l 1
 553.350585938 681.998046875 l 1
 497.350585938 615.942382812 l 1
 484.857421875 601.206054688 l 1
 472.536132812 616.077148438 l 2
 442.04296875 652.87890625 412.466354527 663.708007812 364.38260789 663.708007812 c 0
 355.211477055 663.708007812 343.903850572 662.807617188 330.907407861 661.829101562 c 0
 232.509532208 654.416992188 213.220388489 646.266601562 211.005859375 556.024414062 c 1
 214.322985118 484.346679688 236.022269961 460.951171875 328.15377869 460.68359375 c 1
 409.15054992 468.353515625 l 1
 428.255355054 470.162109375 l 1
 429.936523438 454.293945312 l 1
 434.936523438 399.89453125 l 1
 435.068359375 398.465820312 l 1
 434.927734375 397.0390625 l 1
 428.782036725 335.83984375 l 1
 426.972999681 320.09765625 l 1
 408.007879686 321.868164062 l 1
 325.818059976 329.541015625 l 1
 202.82421875 329.29296875 200.8046875 305.668945312 194.94921875 216.560546875 c 0
 193.978515625 207.130859375 194 199.565429688 194 190.629882812 c 0
 194 121.126953125 214.34130448 100.2890625 310.450404786 100.2890625 c 0
 417.362204146 100.2890625 436.095703125 105.291992188 489.158203125 174.64453125 c 2
 501.534179688 190.819335938 l 1
 514.494140625 175.083007812 l 1
 574.494140625 102.2265625 l 1
 583.97265625 90.7177734375 l 1
 572.643554688 80.912109375 l 2
 524.625976562 39.3564453125 512.98046875 -3.5126953125 403.992504426 -15.6767578125 c 1
 406.933907062 -61.4462890625 412.410251479 -145.381835938 412.425135961 -145.611328125 c 2
 413.477354343 -161.732421875 l 1
 393.993567399 -161.998046875 l 1
 247.438667658 -163.998046875 l 1
 226.804195759 -164.279296875 l 1
 228.438053899 -147.235351562 l 1
EndSplineSet
Validated: 524289
EndChar

StartChar: quotesingle
Encoding: 39 39 8
Width: 281
VWidth: 1024
Flags: HW
LayerCount: 2
Fore
SplineSet
78.2470703125 922.2421875 m 1
 95.162109375 920.954101562 l 1
 200.162109375 912.954101562 l 1
 216.40625 911.715820312 l 1
 214.875976562 897.78515625 l 1
 204.845703125 806.465820312 l 1
 190.803710938 716.865234375 l 1
 188.89453125 702.682617188 l 1
 174.586914062 703.00390625 l 1
 85.5869140625 705.00390625 l 1
 69 705.376953125 l 1
 69.974609375 719.654296875 l 1
 75.955078125 807.295898438 l 1
 77.94921875 905.280273438 l 1
 78.2470703125 922.2421875 l 1
EndSplineSet
Validated: 524289
EndChar

StartChar: parenleft
Encoding: 40 40 9
Width: 400
VWidth: 1024
Flags: HW
LayerCount: 2
Fore
SplineSet
263.317382812 940.325195312 m 1
 271.961914062 928.379882812 l 1
 326.961914062 854.696289062 l 1
 337.009765625 841.236328125 l 1
 322.46875 832.44140625 l 2
 215.090820312 767.495117188 193 805.028320312 193 440.342773438 c 0
 193 102.893554688 224.775390625 58.9619140625 345.807617188 -6.638671875 c 2
 362.985351562 -15.9501953125 l 1
 350.078125 -30.353515625 l 1
 297.078125 -89.494140625 l 1
 288.54296875 -99.3173828125 l 1
 277.186523438 -92.962890625 l 2
 80.5771484375 13.728515625 67 31.6298828125 67 417.086914062 c 2
 67 567.396484375 l 2
 67 822.451171875 84.037109375 834.727539062 250.70703125 932.68359375 c 2
 263.317382812 940.325195312 l 1
EndSplineSet
Validated: 524289
EndChar

StartChar: parenright
Encoding: 41 41 10
Width: 390
VWidth: 1024
Flags: HW
LayerCount: 2
Fore
SplineSet
128.40625 -119 m 1
 58.40625 -41 l 1
 46 -24.5029296875 l 1
 61.5087890625 -14.28125 l 2
 188.401367188 66.9970703125 193.314453125 79.1982421875 193.314453125 446.724609375 c 1
 181.271484375 785.578125 177.397460938 796.51953125 66.078125 872.869140625 c 2
 51.458984375 883.204101562 l 1
 63.3642578125 899 l 1
 128.364257812 972 l 1
 137.874023438 980.255859375 l 1
 149.55078125 972 l 2
 310.463867188 860.997070312 321.337890625 825.16015625 334.314453125 447.267578125 c 1
 334.314453125 31.814453125 322.680664062 -6.6455078125 149.15234375 -119 c 2
 137.634765625 -126.6328125 l 1
 128.40625 -119 l 1
EndSplineSet
Validated: 524289
EndChar

StartChar: asterisk
Encoding: 42 42 11
Width: 610
VWidth: 1024
Flags: HW
LayerCount: 2
Fore
SplineSet
523.28515625 735 m 1
 560.28515625 625.939453125 l 1
 565.096679688 611.114257812 l 1
 550.40234375 605.916015625 l 1
 425.331054688 561.672851562 l 1
 531.245117188 447.754882812 l 1
 542.403320312 437.180664062 l 1
 528.534179688 427 l 1
 434.534179688 358 l 1
 419.206054688 346.748046875 l 1
 410.710906037 358 l 1
 318.902541814 506.364257812 l 1
 235.994382157 404 l 1
 224.990598298 393.541015625 l 1
 208.490140871 404 l 1
 115.444335938 474 l 1
 102.514648438 483.732421875 l 1
 112.393554688 483.766601562 l 1
 179.197265625 570.453125 l 1
 73.169921875 583.11328125 l 1
 54 585.401367188 l 1
 59.8076171875 603.813476562 l 1
 106.807617188 748 l 1
 112.88671875 758.3359375 l 1
 130.25 748 l 1
 232.438938874 689.451171875 l 1
 217.657061664 813.465820312 l 1
 215.313437764 817 l 1
 274.539515647 817 l 1
 335.100334304 817 l 1
 394.288144206 817 l 1
 391.986267195 813.5234375 l 1
 372.701524274 666.659179688 l 1
 499.088867188 735 l 1
 516.711914062 746.946289062 l 1
 523.28515625 735 l 1
EndSplineSet
Validated: 524289
EndChar

StartChar: plus
Encoding: 43 43 12
Width: 845
VWidth: 1024
Flags: HW
LayerCount: 2
Fore
SplineSet
364.828897638 141.604492188 m 1
 357.66453321 396.677734375 l 1
 68.4541015625 405.708007812 l 1
 53 406.2109375 l 1
 53 420.932617188 l 1
 53 484.719726562 l 1
 53 499.438476562 l 1
 68.4501953125 499.943359375 l 1
 354.672518947 508.946289062 l 1
 347.531381165 761.387695312 l 1
 347.090074898 777 l 1
 364.823618855 777 l 1
 475.095286366 777 l 1
 492.771819465 777 l 1
 492.388579812 761.4375 l 1
 486.290529571 513.498046875 l 1
 771.780273438 517.088867188 l 1
 788 517.301757812 l 1
 788 501.858398438 l 1
 788 398.084960938 l 1
 788 382.271484375 l 1
 771.401367188 382.862304688 l 1
 482.282877439 392.755859375 l 1
 476.172158119 141.657226562 l 1
 475.810033598 126 l 1
 458.878864673 126 l 1
 382.121135327 126 l 1
 365.245921503 126 l 1
 364.828897638 141.604492188 l 1
EndSplineSet
Validated: 524289
EndChar

StartChar: comma
Encoding: 44 44 13
Width: 285
VWidth: 1024
Flags: HW
LayerCount: 2
Fore
SplineSet
78.263671875 107.84375 m 1
 91.9287109375 108.948242188 l 1
 190.928710938 116.948242188 l 1
 206.536132812 118.208984375 l 1
 208.133789062 102.6328125 l 1
 220.133789062 1.6572265625 l 1
 221.942382812 -13.5595703125 l 1
 206.297851562 -13.5595703125 l 1
 142.939453125 -88.01953125 143.604492188 -99 108.217773438 -99 c 2
 101.217773438 -99 l 1
 88.2353515625 -99 l 1
 85.560546875 -86.2958984375 l 1
 73.560546875 -50.4326171875 l 1
 69.498046875 -38.2919921875 l 1
 86.7099609375 -38.2919921875 l 2
 88.7705078125 -36.8056640625 91.1494140625 -34.8974609375 94.6396484375 -32 c 1
 85.2177734375 -32 l 1
 68 -32 l 1
 69.2607421875 -14.8291015625 l 1
 77.2607421875 94.1708984375 l 1
 78.263671875 107.84375 l 1
EndSplineSet
Validated: 524289
EndChar

StartChar: hyphen
Encoding: 45 45 14
Width: 437
VWidth: 1024
Flags: HW
LayerCount: 2
Fore
SplineSet
71.1240234375 397.708984375 m 1
 70.5908203125 413.458007812 l 1
 66.5908203125 503.573242188 l 1
 66 516.875 l 1
 83.4033203125 515.978515625 l 1
 355.403320312 501.978515625 l 1
 370.581054688 501.197265625 l 1
 370.581054688 489.744140625 l 1
 370.581054688 415.131835938 l 1
 370.581054688 403.295898438 l 1
 354.879882812 403.002929688 l 1
 86.8798828125 398.002929688 l 1
 71.1240234375 397.708984375 l 1
EndSplineSet
Validated: 524289
EndChar

StartChar: period
Encoding: 46 46 15
Width: 288
VWidth: 1024
Flags: HW
LayerCount: 2
Fore
SplineSet
69 -9.111328125 m 1
 69 8 l 1
 69 103 l 1
 69 120.194335938 l 1
 86.150390625 118.958984375 l 1
 197.150390625 110.958984375 l 1
 210.962890625 109.962890625 l 1
 211.958984375 99.2880859375 l 1
 219.958984375 13.5068359375 l 1
 221.114257812 1.1142578125 l 1
 205.073242188 0.0361328125 l 1
 86.0732421875 -7.9638671875 l 1
 69 -9.111328125 l 1
EndSplineSet
Validated: 524289
EndChar

StartChar: slash
Encoding: 47 47 16
Width: 470
VWidth: 1024
Flags: HW
LayerCount: 2
Fore
SplineSet
49 4.4140625 m 1
 53.1181640625 18.697265625 l 1
 315.118164062 927.299804688 l 1
 319.466796875 942.884765625 l 1
 335.001953125 938.362304688 l 1
 414.001953125 916.106445312 l 1
 428.971679688 911.889648438 l 1
 425.002929688 897.30078125 l 1
 176.002929688 -18.072265625 l 1
 171.6875 -34.4677734375 l 1
 155.569335938 -29.2119140625 l 1
 63.5693359375 -0.1826171875 l 1
 49 4.4140625 l 1
EndSplineSet
Validated: 524289
EndChar

StartChar: zero
Encoding: 48 48 17
Width: 820
VWidth: 1024
Flags: HW
LayerCount: 2
Fore
SplineSet
418 -15 m 0
 109.71484375 -15 87 22.5830078125 87 463 c 0
 87 883.298828125 120.888671875 941 418 941 c 0
 715.111328125 941 749 883.298828125 749 463 c 0
 749 22.6240234375 727.294921875 -15 418 -15 c 0
242.07960199 463.022460938 m 0
 242.07960199 118.833007812 246.259644162 119 418 119 c 0
 590.892471238 119 595 118.872070312 595 463.022460938 c 0
 595 791.856445312 582.074976679 808 418 808 c 0
 255.079286186 808 242.07960199 791.896484375 242.07960199 463.022460938 c 0
EndSplineSet
Validated: 524321
EndChar

StartChar: one
Encoding: 49 49 18
Width: 453
VWidth: 1024
Flags: HW
LayerCount: 2
Fore
SplineSet
361.80078125 14.23046875 m 1
 355.342773438 -8.23828125 l 2
 354.510742188 -8.79296875 346.80078125 -11 345.80078125 -11 c 2
 271.80078125 -11 l 1
 271.80078125 -1.6435546875 l 1
 212.80078125 5.6689453125 l 1
 212.80078125 741.875 l 1
 51 718.556640625 l 1
 56.21875 838.37890625 l 1
 251.3203125 929.080078125 l 1
 361.80078125 926.65234375 l 1
 361.80078125 14.23046875 l 1
EndSplineSet
Validated: 524289
EndChar

StartChar: two
Encoding: 50 50 19
Width: 651
VWidth: 1024
Flags: HW
LayerCount: 2
Fore
SplineSet
49 0 m 1
 49 16 l 1
 49 74.6455078125 l 2
 49 318.716796875 62.0791015625 288.149414062 211.369492372 396.453125 c 0
 406.063264504 520.723632812 428.31430211 548.555664062 428.31430211 644.754882812 c 0
 428.31430211 803.440429688 417.242676223 813 319.091326112 813 c 0
 211.693972636 813 205.269487966 808.138671875 205.269487966 709 c 0
 205.269487966 665.4296875 213.483666548 618 184 618 c 0
 170.865234375 618 169.448242188 624.939453125 169.448242188 624.939453125 c 1
 62.5859375 680.821289062 l 1
 58.001953125 683.21875 l 1
 55.689453125 687.844726562 l 2
 51.9775390625 695.266601562 53 699.94140625 53 709 c 0
 53 901.901367188 95.5068359375 941 315.642179501 941 c 0
 541.725585938 941 581 889.4921875 581 636.303710938 c 0
 579.97265625 500.21875 552.697265625 455.547851562 405.019089261 350.389648438 c 0
 239.370230432 243.498046875 221.95271371 263.907226562 217.231469733 140.79296875 c 1
 540.4140625 133.456054688 l 1
 551.170898438 133.186523438 l 1
 554.969726562 123.451171875 l 1
 594.969726562 20.9365234375 l 1
 603.138671875 0 l 1
 580 0 l 1
 65 0 l 1
 49 0 l 1
EndSplineSet
Validated: 524321
EndChar

StartChar: three
Encoding: 51 51 20
Width: 734
VWidth: 1024
Flags: HW
LayerCount: 2
Fore
SplineSet
60.38671875 748.791015625 m 2
 77.013671875 896.35546875 118.66796875 940 305.969078207 940 c 0
 484.607338743 940 647.286132812 924.454101562 647.286132812 733.90625 c 0
 647.286132812 718.720703125 646.236328125 702.59375 644.1796875 685.678710938 c 0
 631.072265625 574.713867188 612.125976562 523.986328125 541.634765625 495.200195312 c 1
 654.568359375 460.546875 676.286132812 405.12890625 676.286132812 263.663085938 c 0
 676.286132812 32.0458984375 627.421875 -15 368.417762717 -15 c 0
 123.578125 -15 75.7021484375 28.73828125 59.3291015625 251.829101562 c 2
 58 269.931640625 l 1
 76.126953125 268.977539062 l 1
 209.126953125 261.977539062 l 1
 224.548600087 261.233398438 l 1
 225.635440683 247.100585938 l 2
 234.170079712 136.119140625 244.493976356 128 368.417762717 128 c 0
 495.471388629 128 505.581837621 137.807617188 505.581837621 270.157226562 c 0
 505.581837621 407.625 491.722986493 418 338.308575542 418 c 2
 265.823495309 418 l 1
 247.98101402 418 l 1
 247.98101402 434 l 1
 247.98101402 488.571289062 l 1
 244.660596207 544.14453125 l 1
 243.653253971 561 l 1
 262.478030067 561 l 1
 347.229816187 561 l 2
 464.925504983 561 473.954558472 560.28515625 491.181744232 679.920898438 c 0
 492.240270344 689.71875 493.315131735 700.122070312 493.315131735 708.375 c 0
 493.315131735 774.583984375 465.980764039 806 346.114661106 806 c 0
 335.707999046 806 326.786758402 807 319.350939174 807 c 0
 246.941001225 807 226.733171465 793.909179688 219.985612013 741.17578125 c 2
 218.112499964 726.543945312 l 1
 202.782226562 727.0078125 l 1
 75.7822265625 731.0078125 l 1
 58.4443359375 731.553710938 l 1
 60.38671875 748.791015625 l 2
EndSplineSet
Validated: 524321
EndChar

StartChar: four
Encoding: 52 52 21
Width: 726
VWidth: 1024
Flags: HW
LayerCount: 2
Fore
SplineSet
397.666932874 643.037109375 m 1
 221.180816584 384.045898438 l 1
 398.586505926 378.563476562 l 1
 397.666932874 643.037109375 l 1
428.118529126 938.6796875 m 1
 446.316051778 936.90625 l 1
 545.728515625 926.90625 l 1
 560 925.35546875 l 1
 560 911.471679688 l 1
 560 898.408203125 l 1
 572.37109375 895.416992188 l 1
 561.891601562 877.681640625 l 1
 560 874.479492188 l 1
 560 377.063476562 l 1
 656.571289062 373.727539062 l 1
 672 373.194335938 l 1
 672 358.263671875 l 1
 672 250.91015625 l 1
 672 234.873046875 l 1
 655.428710938 235.4453125 l 1
 560 238.741210938 l 1
 560 20.728515625 l 1
 560 8.021484375 l 1
 547.112304687 5.5498046875 l 1
 421.08335946 -16.6943359375 l 1
 399.840568228 -20.4697265625 l 1
 399.759942155 -1.0595703125 l 1
 398.708534577 244.041992188 l 1
 160.904296875 251.25 l 1
 71.35546875 249.327148438 l 1
 55 248.975585938 l 1
 55 264.787109375 l 1
 55 358.538085938 l 1
 55 362.885742188 l 1
 57.34375 366.596679688 l 1
 425.833760535 914.379882812 l 1
 426.59861869 922.329101562 l 1
 428.118529126 938.6796875 l 1
EndSplineSet
Validated: 524289
EndChar

StartChar: five
Encoding: 53 53 22
Width: 689
VWidth: 1024
Flags: HW
LayerCount: 2
Fore
SplineSet
94.1767578125 478.55078125 m 1
 95.40625 494.602539062 l 1
 127.40625 912.1796875 l 1
 128.500976562 927 l 1
 143.362304688 927 l 1
 586.362304688 927 l 1
 603.67578125 927 l 1
 602.313476562 910.565429688 l 1
 593.313476562 802.009765625 l 1
 592.120117188 787.619140625 l 1
 576.965820312 787.977539062 l 1
 287.614677407 794.288085938 l 1
 268.183950367 608 l 1
 383.147334639 608 l 2
 595.6171875 608 633.362304688 554.583984375 633.362304688 297.962890625 c 0
 633.362304688 37.1279296875 589.267578125 -15 344.650766459 -15 c 0
 170.778320312 -15 127.028320312 22.6357421875 56.3583984375 213.443359375 c 2
 51 227.911132812 l 1
 65.263671875 233.791992188 l 1
 179.263671875 280.791992188 l 1
 194.629882812 287.126953125 l 1
 200.375976562 271.53125 l 2
 255.324486674 138.276367188 270.193034248 128 344.650766459 128 c 0
 461.073694331 128 473.727495062 138.848632812 473.727495062 298.240234375 c 0
 473.727495062 467.502929688 460.544056918 479 357.105538517 479 c 2
 256.335110046 479 l 1
 256.335110046 473.471679688 l 1
 237.630837662 474.008789062 l 1
 110.842773438 478.008789062 l 1
 94.1767578125 478.55078125 l 1
EndSplineSet
Validated: 524289
EndChar

StartChar: six
Encoding: 54 54 23
Width: 727
VWidth: 1024
Flags: HW
LayerCount: 2
Fore
SplineSet
641.607421875 762.989257812 m 1
 628.740234375 754.598632812 l 1
 536.740234375 694.598632812 l 1
 522.728515625 685.459960938 l 1
 514.152033161 699.865234375 l 2
 444.128431408 805.52734375 430.264878393 813 378.100917431 813 c 0
 221.177734375 813 217.266601562 763.752929688 217.008789062 531.915039062 c 1
 242.584659308 538.10546875 286.263235856 545 362.388379205 545 c 2
 379.344899775 545 l 2
 620.37890625 542.02734375 629.514648438 519.28125 659.850585938 311.844726562 c 0
 665.935546875 267.4765625 669 229.997070312 669 195.97265625 c 0
 669 20.9033203125 572.590820312 -15 364.633027523 -15 c 0
 86.2216796875 -15 67 24.9228515625 67 489.125976562 c 0
 67 864.9140625 85.7451171875 941 378.100917431 941 c 0
 512.392921564 941 552.07421875 913.31640625 633.74609375 776.1875 c 2
 641.607421875 762.989257812 l 1
390.44648318 412 m 2
 353.73311174 412 l 2
 232.724866208 408.315429688 208 382.590820312 208 331.401367188 c 2
 208 328.86328125 l 1
 215.930664062 142.75390625 242.378607607 119 364.633027523 119 c 0
 469.099047926 119 509.412844037 127.172851562 509.412844037 217.615234375 c 0
 509.412844037 241.130859375 506.173009843 270.740234375 499.526746464 306.305664062 c 0
 480.516285001 409.287109375 486.641939029 412 390.44648318 412 c 2
EndSplineSet
Validated: 524289
EndChar

StartChar: seven
Encoding: 55 55 24
Width: 645
VWidth: 1024
Flags: HW
LayerCount: 2
Fore
SplineSet
83.57421875 939 m 1
 96.27734375 939 l 1
 586.27734375 939 l 1
 610.330078125 939 l 1
 601.034179688 917.553710938 l 1
 557.034179688 816.04296875 l 2
 556.849609375 816.1171875 362.421613094 356.642578125 362.421613094 50.5380859375 c 2
 362.421613094 8 l 1
 362.421613094 -8 l 1
 344.10413779 -8 l 1
 194.27734375 -8 l 1
 178.27734375 -8 l 1
 178.27734375 8 l 1
 178.27734375 54.3837890625 l 2
 178.27734375 243.850585938 185.1796875 262.646484375 373.14780072 802.741210938 c 1
 69.6982421875 795.571289062 l 1
 49 795.044921875 l 1
 53.6943359375 814.532226562 l 1
 80.6943359375 926.626953125 l 1
 83.57421875 939 l 1
EndSplineSet
Validated: 524321
EndChar

StartChar: eight
Encoding: 56 56 25
Width: 713
VWidth: 1024
Flags: HW
LayerCount: 2
Fore
SplineSet
207 216.849609375 m 0
 207 123.651367188 194.689453125 119 356.871794872 119 c 0
 477.692207532 119 493.384615385 113.2265625 493.384615385 211.150390625 c 0
 493.384615385 227.6328125 492.270733173 246.650390625 491.148036859 269.336914062 c 0
 482.134515224 414.485351562 488.227263622 423 356.871794872 423 c 0
 217.903145032 423 207 435.565429688 207 216.849609375 c 0
84 595.5625 m 0
 84 621.875976562 87.0576171875 653.96484375 90.05078125 691.6171875 c 0
 109.392578125 919.1640625 150.4375 941 356.871794872 941 c 0
 593.9921875 941 615 897.828125 615 698.129882812 c 0
 615 594.061523438 609.68359375 533.62890625 576.950195312 498.638671875 c 1
 642.376953125 461.409179688 643.87109375 386.994140625 649.9765625 258.720703125 c 0
 651.970703125 228.814453125 653 202.063476562 653 177.5546875 c 0
 653 -8.6572265625 582.375976562 -15 356.871794872 -15 c 0
 74.484375 -15 63 35.0126953125 63 275.283203125 c 0
 63 394.53125 71.03515625 460.323242188 118.637695312 495.469726562 c 1
 90.4619140625 518.745117188 84 552.637695312 84 595.5625 c 0
228.256410256 620.471679688 m 0
 228.256410256 573.288085938 236.971354167 566 356.871794872 566 c 0
 476.212540064 566 479.846153846 558.182617188 479.846153846 658.038085938 c 0
 479.846153846 802.1875 481.036057692 813 319.641025641 813 c 0
 252.062199519 813 246.279046474 820.55859375 232.714142628 679.40234375 c 0
 230.450020032 654.903320312 228.256410256 635.264648438 228.256410256 620.471679688 c 0
EndSplineSet
Validated: 524321
EndChar

StartChar: nine
Encoding: 57 57 26
Width: 704
VWidth: 1024
Flags: HW
LayerCount: 2
Fore
SplineSet
341.057239057 433 m 2
 345.595959596 433 l 2
 364.204048953 433 382.260311448 431 398.925925926 431 c 0
 445.646158854 431 489 436.536132812 489 552.829101562 c 0
 489 569.506835938 488.032226562 587.306640625 486.0625 609.02734375 c 0
 464.537918245 812.034179688 458.605225431 808 380.771043771 808 c 2
 342.191919192 808 l 2
 232.286402436 808 219.646464646 797.955078125 219.646464646 646.875 c 0
 219.646464646 448.606445312 252.110062211 433 341.057239057 433 c 2
325.171717172 114 m 0
 476.954022648 114 491.734375 140.956054688 492.943359375 315.49609375 c 1
 451.649769176 308.368164062 364.825685238 295 296.804713805 295 c 0
 137.3046875 295 60 369.590820312 60 647.275390625 c 0
 60 888.884765625 102.043945312 941 333.114478114 941 c 2
 342.191919192 941 l 1
 354.673400673 941 l 2
 621.009765625 941 638 887.68359375 638 345.918945312 c 0
 638 46.4775390625 617.076171875 -14.0029296875 325.127393729 -15 c 0
 191.1953125 -13.958984375 152.89453125 13.7353515625 71.25390625 150.8125 c 2
 63.392578125 164.010742188 l 1
 76.259765625 172.401367188 l 1
 168.259765625 232.401367188 l 1
 182.37109375 241.60546875 l 1
 190.834960938 227.037109375 l 2
 257.294796928 121.443359375 271.216790299 114 325.171717172 114 c 0
EndSplineSet
Validated: 524321
EndChar

StartChar: colon
Encoding: 58 58 27
Width: 285
VWidth: 1024
Flags: HW
LayerCount: 2
Fore
SplineSet
68.271484375 0 m 1
 68.271484375 16 l 1
 68.271484375 135 l 1
 68.271484375 148.89453125 l 1
 82.0283203125 150.841796875 l 1
 195.028320312 166.841796875 l 1
 212.473632812 169.3125 l 1
 213.255859375 151.709960938 l 1
 219.255859375 16.7099609375 l 1
 219.999023438 -0 l 1
 203.271484375 0 l 1
 84.271484375 0 l 1
 68.271484375 0 l 1
66 552.787109375 m 1
 66.2744140625 568.283203125 l 1
 68.2744140625 681.283203125 l 1
 68.552734375 697 l 1
 84.271484375 697 l 1
 203.271484375 697 l 1
 219.271484375 697 l 1
 219.271484375 681 l 1
 219.271484375 562 l 1
 219.271484375 545.186523438 l 1
 202.479492188 546.01953125 l 1
 81.4794921875 552.01953125 l 1
 66 552.787109375 l 1
EndSplineSet
Validated: 524289
EndChar

StartChar: semicolon
Encoding: 59 59 28
Width: 283
VWidth: 1024
Flags: HW
LayerCount: 2
Fore
SplineSet
83.65234375 160.12890625 m 1
 99.076171875 158.954101562 l 1
 204.076171875 150.954101562 l 1
 218.860351562 149.827148438 l 1
 218.860351562 135 l 1
 218.860351562 16 l 1
 218.860351562 -9 l 2
 218.860351562 -106.2109375 201.538085938 -119 95.8603515625 -119 c 2
 83.8603515625 -119 l 1
 67.8603515625 -119 l 1
 67.8603515625 -103 l 1
 67.8603515625 -44 l 1
 67.8603515625 -28 l 1
 83.8603515625 -28 l 1
 91.8603515625 -28 l 2
 103.475585938 -28 111.360351562 -27.4501953125 113.372070312 -26.96875 c 0
 114.189453125 -24.041015625 114.829101562 -14.22265625 114.859375 0 c 1
 83.8603515625 0 l 1
 66 0 l 1
 67.95703125 17.7529296875 l 1
 81.95703125 144.752929688 l 1
 83.65234375 160.12890625 l 1
67.8603515625 546.586914062 m 1
 67.8603515625 562 l 1
 67.8603515625 681 l 1
 67.8603515625 697 l 1
 83.8603515625 697 l 1
 202.860351562 697 l 1
 220.498046875 697 l 1
 218.78515625 679.446289062 l 1
 206.78515625 556.446289062 l 1
 205.322265625 541.448242188 l 1
 190.262695312 542.010742188 l 1
 83.2626953125 546.010742188 l 1
 67.8603515625 546.586914062 l 1
EndSplineSet
Validated: 524289
EndChar

StartChar: less
Encoding: 60 60 29
Width: 672
VWidth: 1024
Flags: HW
LayerCount: 2
Fore
SplineSet
590.49609375 673 m 1
 617.49609375 568 l 1
 620.499023438 546.509765625 l 1
 610.100585938 540.405273438 l 1
 231.359807945 349.340820312 l 1
 592.806640625 177.932617188 l 1
 604.96875 171.133789062 l 1
 599.90625 150 l 1
 560.90625 50 l 1
 554.076171875 40.458984375 l 1
 537.879882812 50 l 1
 67.8798828125 294.213867188 l 1
 60 298.85546875 l 1
 60 308 l 1
 60 389 l 1
 60 397.99609375 l 1
 67.6865234375 402.670898438 l 1
 566.686523438 673 l 1
 585.122070312 684.211914062 l 1
 590.49609375 673 l 1
EndSplineSet
Validated: 524289
EndChar

StartChar: equal
Encoding: 61 61 30
Width: 730
VWidth: 1024
Flags: HW
LayerCount: 2
Fore
SplineSet
67 540.241210938 m 1
 88.0595703125 539.999023438 l 1
 642.059570312 533.999023438 l 1
 655.326171875 533.846679688 l 1
 657.631835938 520.780273438 l 1
 672.631835938 435.780273438 l 1
 675.926757812 417.111328125 l 1
 656.969726562 417 l 1
 112.969726562 414 l 1
 100.59375 413.927734375 l 1
 97.4130859375 425.887695312 l 1
 72.4130859375 519.887695312 l 1
 67 540.241210938 l 1
82.28125 322.51953125 m 1
 97.4345703125 321.990234375 l 1
 644.434570312 303.990234375 l 1
 656.82421875 303.557617188 l 1
 659.499023438 291.451171875 l 1
 678.499023438 205.451171875 l 1
 682.912109375 185.477539062 l 1
 662.462890625 186.004882812 l 1
 88.462890625 200.004882812 l 1
 71.4296875 200.4453125 l 1
 72.9384765625 217.416992188 l 1
 80.9384765625 307.416992188 l 1
 82.28125 322.51953125 l 1
EndSplineSet
Validated: 524289
EndChar

StartChar: greater
Encoding: 62 62 31
Width: 669
VWidth: 1024
Flags: HW
LayerCount: 2
Fore
SplineSet
468.342773438 358.15625 m 1
 70.9140625 534.62890625 l 1
 59 540.844726562 l 1
 63.064453125 563 l 1
 96.064453125 667 l 1
 102.083007812 676.951171875 l 1
 119.315429688 667 l 1
 603.315429688 419.85546875 l 1
 611.130859375 415.342773438 l 1
 611.311523438 406.3203125 l 1
 613.311523438 306.3203125 l 1
 613.501953125 296.82421875 l 1
 605.256835938 292.110351562 l 1
 113.256835938 43 l 1
 95.5654296875 32.8857421875 l 1
 89.9375 43 l 1
 64.9375 130 l 1
 61.5126953125 151.286132812 l 1
 72.1982421875 157.576171875 l 1
 468.342773438 358.15625 l 1
EndSplineSet
Validated: 524289
EndChar

StartChar: question
Encoding: 63 63 32
Width: 637
VWidth: 1024
Flags: HW
LayerCount: 2
Fore
SplineSet
322.919779176 498.765625 m 0
 409.919560182 612.966796875 406.016146227 601.706054688 434.22265625 672.1875 c 0
 442.793945312 697.901367188 447.359375 720.807617188 447.359375 737 c 0
 447.359375 787.857421875 411.112396228 807 354.777589872 807 c 0
 277.838528886 807 185.926757812 764.918945312 163.82421875 718.162109375 c 2
 157.11328125 703.96484375 l 1
 142.79296875 710.409179688 l 1
 62.79296875 746.409179688 l 1
 48 753.06640625 l 1
 54.8603515625 767.766601562 l 2
 119.594726562 906.484375 189.176757812 941 307.082324591 941 c 2
 325.964351178 941 l 1
 592.387695312 933.686523438 575.438476562 823.887695312 583.32421875 672.080078125 c 0
 584.341796875 659.868164062 584.359375 647.86328125 584.359375 640 c 0
 584.359375 563.447265625 556.469726562 578.334960938 446.671875 414.125 c 0
 396.781323164 346.317382812 390.839863622 342.020507812 390.839863622 319 c 0
 390.839863622 297.411132812 397.819658541 259.424804688 397.819658541 168 c 2
 397.819658541 152.940429688 l 1
 380.33268211 152.029296875 l 1
 265.166065943 146.029296875 l 1
 245.427469471 145.000976562 l 1
 245.427469471 162 l 2
 245.427469471 273.34765625 232.631178786 311.3359375 232.631178786 345 c 0
 232.631178786 386.895507812 254.283993102 408.297851562 322.919779176 498.765625 c 0
235.3088117 0 m 1
 237.378666248 17.6083984375 l 1
 249.01165778 116.608398438 l 1
 250.416932245 128.567382812 l 1
 264.17089987 130.737304688 l 1
 390.97050757 150.737304688 l 1
 412.942547533 154.203125 l 1
 412.942547533 135 l 1
 412.942547533 16 l 1
 412.942547533 0 l 1
 394.329761081 0 l 1
 255.89716185 0 l 1
 235.3088117 0 l 1
EndSplineSet
Validated: 524289
EndChar

StartChar: at
Encoding: 64 64 33
Width: 1205
VWidth: 1024
Flags: HW
LayerCount: 2
Fore
SplineSet
691.60859089 147.29296875 m 1
 694.408980482 304.866210938 l 1
 668.611791566 307.724609375 614.359589431 313 567.44542635 313 c 0
 507.831751052 313 474.639496968 304.033203125 474.639496968 168 c 0
 474.639496968 105.2890625 484.595645708 95 536.162528805 95 c 0
 551.073839637 95 569.000406315 95.9423828125 591.284379198 98.8564453125 c 0
 669.749258902 108.889648438 664.380657474 100.998046875 691.60859089 147.29296875 c 1
1013 484 m 0
 1013 852.9140625 896.349656371 890 640.438853953 890 c 0
 316.190398918 890 197 854.825195312 197 364.043945312 c 0
 197 -119.465820312 272.113285073 -159 630.011221438 -159 c 2
 679.021094258 -159 l 2
 830.768605435 -159 984.133214311 -153.653320312 1074.53515625 -75.896484375 c 2
 1091.62988281 -61.1171875 l 1
 1099.89160156 -82.1494140625 l 1
 1143.89160156 -194.149414062 l 1
 1149.70605469 -208.950195312 l 1
 1134.94238281 -214.85546875 l 2
 950.658884621 -287.833007812 805.47650497 -294 630.011221438 -294 c 0
 200.548828125 -294 61 -206.1328125 61 352.2265625 c 0
 61 910.830078125 190.635742188 1017 623.75464193 1017 c 0
 1026.94726562 1017 1144 931.776367188 1144 470.20703125 c 0
 1144 50.7880859375 1101.75488281 -49 896.958613817 -49 c 0
 859.924225214 -49 772.886080067 -39.5966796875 753.67540747 -7.5634765625 c 0
 747.478909047 -1.79296875 743.665287585 4.18359375 740.727424323 10.2666015625 c 1
 698.050505274 -21.8095703125 636.424622764 -19.498046875 532.540352159 -30.9296875 c 0
 518.32455627 -31.978515625 506.091436211 -33 493.409235495 -33 c 0
 356.779754817 -33 330.738168264 55.48046875 330.738168264 124 c 0
 330.738168264 137.778320312 331.837957631 151.323242188 332.876647588 163.2734375 c 0
 344.178001656 305.154296875 361.549582033 429.127929688 525.662595323 438.96484375 c 0
 569.661298259 441.978515625 605.664125169 443 634.182274444 443 c 0
 670.928477501 443 696.04338968 441.092773438 710.85795978 439.35546875 c 1
 699.626870033 596.569335938 710.994415127 647 595.60003414 647 c 0
 521.658547369 647 491.034505121 598.799804688 477.636422993 496.99609375 c 2
 475.249472737 478.862304688 l 1
 456.822909226 483.530273438 l 1
 346.290004569 511.530273438 l 1
 332.259543555 515.084960938 l 1
 333.984583543 528.90234375 l 2
 355.652470716 702.409179688 465.969490793 786 597.685560643 786 c 0
 605.721151285 786 612.77100479 785 618.540825672 785 c 2
 619.169131264 785 l 1
 619.796418533 784.955078125 l 2
 794.623213237 772.301757812 840.443696893 701.135742188 858.324439014 483.255859375 c 2
 858.373318542 482.670898438 l 1
 858.376373512 482.084960938 l 1
 860.44866181 108.341796875 l 1
 866.016854641 95.1611328125 911.285406967 81.3173828125 939.459362903 79.2080078125 c 1
 995.9765625 107.420898438 1013 203.614257812 1013 484 c 0
EndSplineSet
Validated: 524289
EndChar

StartChar: A
Encoding: 65 65 34
Width: 850
VWidth: 1024
Flags: HW
LayerCount: 2
Fore
SplineSet
433.504607833 724.6875 m 1
 300.49480332 295.069335938 l 1
 584.98895863 295.928710938 l 1
 433.504607833 724.6875 l 1
46 10.712890625 m 1
 50.927734375 26.1640625 l 1
 345.032968234 916.709960938 l 1
 348.800734265 928.090820312 l 1
 361.602110411 928 l 1
 502.427746102 927 l 1
 515.07794969 926.91015625 l 1
 518.754382301 915.649414062 l 1
 808.528320312 25.1416015625 l 1
 813.0390625 10.794921875 l 1
 798.327148438 5.837890625 l 1
 706.327148438 -25.162109375 l 1
 691.052734375 -30.3095703125 l 1
 686.018554688 -14.9970703125 l 1
 614.648174544 192.709960938 l 1
 249.768011838 184.294921875 l 1
 189.580078125 -10.474609375 l 1
 185.237304688 -25.3857421875 l 1
 170.203125 -21.48828125 l 1
 62.203125 6.51171875 l 1
 46 10.712890625 l 1
EndSplineSet
Validated: 524289
EndChar

StartChar: B
Encoding: 66 66 35
Width: 811
VWidth: 1024
Flags: HW
LayerCount: 2
Fore
SplineSet
216.234375 356 m 1
 219.768554688 129 l 1
 395.767772512 129 l 1
 437.369668246 129 l 2
 580.237198238 129 587.355450237 128.411132812 587.355450237 203.732421875 c 0
 587.355450237 225.725585938 586.273493039 253.576171875 584.095679984 289.823242188 c 0
 580.479890218 346.889648438 569.246565832 356 377.156398104 356 c 2
 216.234375 356 l 1
208.266601562 796.041015625 m 1
 213.749023438 465.268554688 l 1
 310.794574756 461 l 1
 500.250411915 461.114257812 517.289099526 476.431640625 517.289099526 633 c 2
 517.289099526 669 l 2
 517.289099526 806.255859375 524.697085123 798 396.862559242 798 c 2
 361.829383886 798 l 2
 294.255169765 798 266.528412878 796.3359375 208.266601562 796.041015625 c 1
672 682.442382812 m 2
 672 565.37109375 663.018554688 493.497070312 619.372070312 449.434570312 c 1
 715.69921875 432.685546875 737.631835938 380.31640625 742.979492188 274.33984375 c 0
 745.970703125 219.41015625 749 175.801757812 749 141.127929688 c 0
 749 9.3076171875 695.483398438 0 497.582938389 0 c 2
 435.180094787 0 l 1
 87 0 l 1
 71 0 l 1
 71 16 l 1
 71 20.8720703125 l 1
 76 911.626953125 l 1
 76.0869140625 927 l 1
 92 927 l 1
 356.355450237 927 l 1
 416.568720379 927 l 2
 650.571289062 927 672 910.067382812 672 728.840820312 c 2
 672 682.442382812 l 2
EndSplineSet
Validated: 524321
EndChar

StartChar: C
Encoding: 67 67 36
Width: 752
VWidth: 1024
Flags: HW
LayerCount: 2
Fore
SplineSet
675.360351562 823.4296875 m 2
 667.359375 798.942382812 635.313476562 807 568 807 c 0
 539.909299523 807 493.600333815 808 447.404754019 808 c 0
 254.228637834 808 224.045308376 741.424804688 218.507756465 464.934570312 c 1
 218.507756465 416.349609375 l 2
 218.507756465 181.30859375 255.00938082 125 458.462579987 125 c 0
 583.194335938 125 631.758789062 125.591796875 648.716796875 126.747070312 c 1
 664.723632812 174.768554688 l 1
 676.676757812 116.19921875 l 1
 696.676757812 18.19921875 l 1
 697.231445312 15.482421875 l 1
 696.838867188 12.7373046875 l 2
 692.291992188 -19.0927734375 638.651367188 -9 458.462579987 -9 c 0
 124.779296875 -9 59 94.9013671875 59 412.791992188 c 2
 59 465.159179688 l 1
 65.0244140625 822.631835938 118.78515625 941 440.770058437 941 c 0
 625.837890625 941 681.340820312 937.084960938 684.1015625 936.892578125 c 2
 701.907226562 935.651367188 l 1
 697.5703125 917.31640625 l 1
 675.360351562 823.4296875 l 2
EndSplineSet
Validated: 524321
EndChar

StartChar: D
Encoding: 68 68 37
Width: 832
VWidth: 1024
Flags: HW
LayerCount: 2
Fore
SplineSet
762.997070312 462.708984375 m 0
 753.965820312 23.310546875 735.9765625 0 363.475113122 0 c 2
 87 0 l 1
 71 0 l 1
 71 16 l 1
 71 20.8720703125 l 1
 76 911.626953125 l 1
 76.0869140625 927 l 1
 92 927 l 1
 330.760180995 927 l 2
 699.456054688 927 765 899.934570312 765 584.8125 c 0
 765 547.822265625 763.995117188 508.061523438 762.997070312 462.708984375 c 0
208.263671875 798 m 1
 219.740234375 128.9296875 l 1
 272.079901372 128.767578125 295.419108809 128 353.660633484 128 c 0
 599.726549243 128 595.758585796 120.857421875 603.388875141 463.334960938 c 0
 604.482567697 502.584960938 605.56561086 536.7734375 605.56561086 567.985351562 c 0
 605.56561086 794.2890625 578.739792492 798 336.212669683 798 c 2
 208.263671875 798 l 1
EndSplineSet
Validated: 524321
EndChar

StartChar: E
Encoding: 69 69 38
Width: 739
VWidth: 1024
Flags: HW
LayerCount: 2
Fore
SplineSet
676.448242188 140 m 1
 676.990234375 124.561523438 l 1
 680.990234375 10.5615234375 l 1
 681.571289062 -6 l 1
 665 -6 l 1
 132 -6 l 1
 116 -6 l 1
 116 10 l 1
 116 923 l 1
 116 939 l 1
 132 939 l 1
 650 939 l 1
 666 939 l 1
 666 923 l 1
 666 823.629882812 l 1
 666 808.193359375 l 1
 650 808.193359375 l 2
 489.079016208 808.193359375 417.760463854 813.569335938 267 814.818359375 c 1
 267 477.377929688 l 1
 625.813476562 485 l 1
 630 485 l 1
 646 485 l 1
 646 469 l 1
 646 370 l 1
 646 354 l 1
 630 354 l 1
 625.836914062 354 l 1
 267 360.669921875 l 1
 267 131.030273438 l 1
 437.277898876 131.606445312 502.424127931 140 661 140 c 2
 676.448242188 140 l 1
EndSplineSet
Validated: 524289
EndChar

StartChar: F
Encoding: 70 70 39
Width: 660
VWidth: 1024
Flags: HW
LayerCount: 2
Fore
SplineSet
84.2734375 915 m 0
 83 912 609.271484375 926 609.271484375 926 c 1
 609.271484375 825 l 1
 609.271484375 793.927734375 l 1
 594.198242188 793.053710938 l 1
 215.129882812 772.919921875 l 1
 212 500 l 2
 578 492 l 2
 575 458 l 1
 571 377 l 1
 570 362 l 1
 555 362 l 1
 535 362 l 2
 465 362 378 352 213 347 c 1025
67.2871169484 -6.66889307675 m 0
 65 0 201.810546875 -19 201.810546875 -19 c 1
 201.810546875 -19 212 347 213 347 c 1024
67.2871169484 -6.66889307675 m 1
 84.2734375 915 l 1025
67.2871169484 -6.66889307675 m 1
 67.2734375 -7.4111328125 l 1
 67 -6.642578125 l 1
 67.2871169484 -6.66889307675 l 1
EndSplineSet
Validated: 524323
EndChar

StartChar: G
Encoding: 71 71 40
Width: 804
VWidth: 1024
Flags: HW
LayerCount: 2
Fore
SplineSet
358.62763466 350 m 1
 358.62763466 366 l 1
 358.62763466 467 l 1
 358.62763466 483 l 1
 376.1264637 483 l 1
 720 483 l 1
 734.975585938 483 l 1
 735.96484375 468.522460938 l 2
 735.98046875 468.302734375 739 424.397460938 739 364.797851562 c 0
 739 297.295898438 735.096679688 211.451171875 719.625976562 142.499023438 c 0
 689.541015625 11.8369140625 674.690429688 -15 425.341920375 -15 c 0
 142.954101562 -15 57 37.650390625 57 292.803710938 c 0
 57 341.78515625 60.0322265625 399.302734375 65.041015625 464.267578125 c 0
 93.9892578125 872.008789062 139.215820312 951 390.344262295 951 c 0
 628.041992188 951 680.543945312 911.020507812 730.569335938 699.685546875 c 2
 734.046875 684.99609375 l 1
 719.583984375 680.670898438 l 1
 612.583984375 648.670898438 l 1
 596.3828125 643.825195312 l 1
 592.440429688 660.270507812 l 2
 555.797057963 802.765625 537.025120755 817 390.344262295 817 c 0
 265.308378769 817 241.809279859 784.655273438 216.409063049 462.184570312 c 0
 212.053580577 406.009765625 210 358.5234375 210 317.881835938 c 0
 210 141.9921875 251.023293417 119 425.341920375 119 c 0
 570.08641549 119 567.087348599 124.830078125 584.307418216 194.122070312 c 0
 596.8671875 249.211914062 600.671875 321.279296875 601.626953125 350 c 1
 376.1264637 350 l 1
 358.62763466 350 l 1
EndSplineSet
Validated: 524289
EndChar

StartChar: H
Encoding: 72 72 41
Width: 800
VWidth: 1024
Flags: HW
LayerCount: 2
Fore
SplineSet
589.890625 13.25 m 1
 595.641601562 381.3046875 l 1
 225.784366752 387.69921875 l 1
 219.88671875 8.7568359375 l 1
 219.625976562 -8.421875 l 1
 202.508789062 -6.9404296875 l 1
 98.5087890625 2.0595703125 l 1
 83.982421875 3.31640625 l 1
 83.888671875 17.4306640625 l 1
 80.9130859375 465.873046875 l 1
 70 487 l 1
 80.818359375 487 l 1
 78.888671875 913.5234375 l 1
 78.814453125 929.940429688 l 1
 95.7978515625 928.974609375 l 1
 218.797851562 921.974609375 l 1
 235.101584446 921.1015625 l 1
 234.838810377 905.750976562 l 1
 227.433944375 473.309570312 l 1
 598.1328125 479.705078125 l 1
 604.890625 911.250976562 l 1
 605.13671875 927 l 1
 620.888671875 927 l 1
 714.888671875 927 l 1
 730.802734375 927 l 1
 730.888671875 911.618164062 l 1
 735.888671875 16.5673828125 l 1
 735.97265625 1.5546875 l 1
 720.44921875 1.009765625 l 1
 606.44921875 -2.990234375 l 1
 589.627929688 -3.580078125 l 1
 589.890625 13.25 l 1
EndSplineSet
Validated: 524289
EndChar

StartChar: I
Encoding: 73 73 42
Width: 295
VWidth: 1024
Flags: HW
LayerCount: 2
Fore
SplineSet
78.0009765625 19.2626953125 m 1
 66 903.272460938 l 1
 66 914 l 1
 66 930.833984375 l 1
 82.8125 929.979492188 l 1
 200.8125 923.979492188 l 1
 215.901367188 923.211914062 l 1
 216 908.611328125 l 1
 221.951171875 28.578125 l 1
 256.192382812 1 l 1
 212 1 l 1
 153 1 l 1
 137 1 l 1
 137 3.2685546875 l 1
 93.728515625 4.001953125 l 1
 78.205078125 4.265625 l 1
 78.0009765625 19.2626953125 l 1
EndSplineSet
Validated: 524289
EndChar

StartChar: J
Encoding: 74 74 43
Width: 619
VWidth: 1024
Flags: HW
LayerCount: 2
Fore
SplineSet
551.75 911.163085938 m 2
 550.919921875 901.611328125 l 1
 541 290.497070312 l 1
 541 39.9638671875 524.349609375 -13.986328125 305.969931488 -15 c 2
 278.024941802 -15 l 2
 133.938476562 -15 61 8.701171875 61 233 c 2
 61 309.404296875 l 1
 211 336.098632812 l 1
 211 263 l 2
 211 135.764648438 277.181641275 128 305.920186232 128 c 0
 316.037423746 128 323.201925001 129.494140625 323.201925001 129.494140625 c 1
 324.002586738 129.646484375 l 1
 324.817461405 129.745117188 l 2
 415.553710938 141.20703125 411 138.973632812 411 248.139648438 c 2
 411 293.384765625 l 1
 417.140625 918.94921875 l 1
 534.451171875 927 l 1
 535 927 l 1
 535 927 551.75 926.696289062 551.75 911.163085938 c 2
EndSplineSet
Validated: 524321
EndChar

StartChar: K
Encoding: 75 75 44
Width: 755
VWidth: 1024
Flags: HW
LayerCount: 2
Fore
SplineSet
75.125 1.1689453125 m 1
 75.0615234375 15.9306640625 l 1
 71.0615234375 910.413085938 l 1
 71 924.086914062 l 1
 85.04296875 925.872070312 l 1
 203.04296875 940.872070312 l 1
 220.97265625 943.151367188 l 1
 221.060546875 925.078125 l 1
 222.810546875 566.439453125 l 1
 501.688937877 937.022460938 l 1
 507.675183774 944.970703125 l 1
 518.226790496 943.900390625 l 1
 674.83984375 926.900390625 l 1
 702.46484375 923.811523438 l 1
 685.916992188 902.221679688 l 1
 436.189260129 592.41796875 l 1
 710.68359375 21.6591796875 l 1
 721.784179688 -2.501953125 l 1
 694.555664062 0.0712890625 l 1
 567.552724158 12.0712890625 l 1
 557.266119503 12.9521484375 l 1
 553.077794139 21.515625 l 1
 328.256934215 481.271484375 l 1
 225.060546875 353.759765625 l 1
 225.060546875 7 l 1
 225.060546875 -10.2666015625 l 1
 207.84375 -8.9541015625 l 1
 89.84375 0.0458984375 l 1
 75.125 1.1689453125 l 1
EndSplineSet
Validated: 524289
EndChar

StartChar: L
Encoding: 76 76 45
Width: 649
VWidth: 1024
Flags: HW
LayerCount: 2
Fore
SplineSet
76.28125 2.48828125 m 1
 76.1484375 17.3408203125 l 1
 68.1484375 914.862304688 l 1
 68 932.131835938 l 1
 85.23046875 930.962890625 l 1
 203.23046875 922.962890625 l 1
 217.859375 921.971679688 l 1
 218.145507812 907.802734375 l 1
 235.745101944 128.5390625 l 1
 235.745101944 128.5390625 580.1484375 141.0703125 580.1484375 111.142578125 c 2
 580.1484375 108.208007812 l 1
 599.799804688 18.671875 l 1
 603.8984375 -0 l 1
 584.1484375 0 l 1
 238.431575952 0 l 1
 238.431575952 -2.5078125 l 1
 219.6484375 -1.9921875 l 1
 91.6484375 2.0078125 l 1
 76.28125 2.48828125 l 1
EndSplineSet
Validated: 524321
EndChar

StartChar: M
Encoding: 77 77 46
Width: 954
VWidth: 1024
Flags: HW
LayerCount: 2
Fore
SplineSet
79.4541015625 927.420898438 m 1
 95.6640625 926.994140625 l 1
 249.445939666 922.994140625 l 1
 261.974582386 922.685546875 l 1
 265.417353343 911.395507812 l 1
 468.75972624 244.594726562 l 1
 671.233849605 917.342773438 l 1
 674.838179598 929.317382812 l 1
 688.114163152 928.994140625 l 1
 767.6484375 926.995117188 l 1
 846.6484375 924.995117188 l 1
 861.91015625 924.608398438 l 1
 862.240234375 909.86328125 l 1
 882.240234375 14.3447265625 l 1
 882.657226562 -5.0126953125 l 1
 863.567382812 -1.7744140625 l 1
 751.567382812 17.2255859375 l 1
 738.139648438 19.5029296875 l 1
 738.244140625 33.123046875 l 1
 743.37109375 701.39453125 l 1
 526.870948278 11.4677734375 l 1
 523.256195121 -0 l 1
 510.493031219 0 l 1
 418.702482762 0 l 1
 406.393768796 0 l 1
 404.259104878 6 l 1
 387.80614104 6 l 1
 393.68897461 26.2099609375 l 1
 395.65374096 32.9599609375 l 1
 210.231445312 660.525390625 l 1
 220.241210938 33.2548828125 l 1
 220.462890625 19.3505859375 l 1
 206.725585938 17.193359375 l 1
 85.7255859375 -1.806640625 l 1
 67 -4.7470703125 l 1
 67.2451171875 14.20703125 l 1
 79.2451171875 911.755859375 l 1
 79.4541015625 927.420898438 l 1
EndSplineSet
Validated: 524289
EndChar

StartChar: N
Encoding: 78 78 47
Width: 804
VWidth: 1024
Flags: HW
LayerCount: 2
Fore
SplineSet
584.823242188 935.389648438 m 1
 602.31640625 933.9453125 l 1
 711.31640625 924.9453125 l 1
 725.936523438 923.73828125 l 1
 726 909.568359375 l 1
 730 15.0693359375 l 1
 730.06640625 -0.4326171875 l 1
 714.57421875 -0.9892578125 l 1
 544.724216414 -6.9892578125 l 1
 532.878420175 -7.3759765625 l 1
 528.025083512 2.4482421875 l 1
 216.467773438 635.012695312 l 1
 228.181322289 21.150390625 l 1
 228.181322289 16 l 1
 228.181322289 0 l 1
 212 0 l 1
 88 0 l 1
 72 0 l 1
 72 16 l 1
 72 20.845703125 l 1
 73 919.017578125 l 1
 73.0205078125 937.765625 l 1
 91.5322265625 934.797851562 l 1
 222.532226562 913.797851562 l 1
 231.424404617 912.44921875 l 1
 235.360820754 904.715820312 l 1
 592.248046875 200.344726562 l 1
 585.000976562 917.838867188 l 1
 584.823242188 935.389648438 l 1
EndSplineSet
Validated: 524289
EndChar

StartChar: O
Encoding: 79 79 48
Width: 841
VWidth: 1024
Flags: HW
LayerCount: 2
Fore
SplineSet
414.787573022 808 m 0
 252.551593928 808 218.407859798 760.1015625 218.407859798 463.022460938 c 0
 218.407859798 147.35546875 241.910615748 119 431.062134891 119 c 0
 580.530635435 119 616.592140202 145.262695312 616.592140202 339.748046875 c 0
 616.592140202 375.485351562 614.435972662 415.58984375 612.269209705 462.340820312 c 0
 595.919420369 759.95703125 561.430275616 808 414.787573022 808 c 0
776 325.599609375 m 0
 776 48.8515625 704.595703125 -15 447.33669676 -15 c 0
 117.109375 -15 59 53.279296875 59 463 c 0
 59 844.921875 123.1953125 941 414.787573022 941 c 0
 689.123046875 941 752.927734375 845.084960938 771.985351562 463.666015625 c 0
 773.991210938 412.233398438 776 366.783203125 776 325.599609375 c 0
EndSplineSet
Validated: 524289
EndChar

StartChar: P
Encoding: 80 80 49
Width: 697
VWidth: 1024
Flags: HW
LayerCount: 2
Fore
SplineSet
205.396484375 798 m 1
 214.612304688 438 l 1
 368.350845948 438 l 2
 487.053710938 438 498 436.046875 498 551.936523438 c 0
 498 576.374023438 497.00390625 605.211914062 496.008789062 639.497070312 c 0
 489.0703125 802.73046875 492.27734375 798 356.926090828 798 c 2
 205.396484375 798 l 1
67 891.245117188 m 1
 67 906.70703125 l 1
 67 911.538085938 l 1
 67 927 l 1
 83 927 l 1
 282.665182547 927 l 2
 540.336914062 927 617.708007812 910.45703125 627.989257812 644.881835938 c 0
 629.989257812 588.342773438 632 541.524414062 632 502.002929688 c 0
 632 329.141601562 582.534179688 309 362.638468388 309 c 2
 217.3828125 309 l 1
 225.535828452 3.37890625 l 1
 225.99884343 -13.708984375 l 1
 208.322265625 -12.9853515625 l 1
 90.322265625 -7.9853515625 l 1
 75.0986328125 -7.3408203125 l 1
 75 7.896484375 l 1
 69.1025390625 891.245117188 l 1
 67 891.245117188 l 1
EndSplineSet
Validated: 524321
EndChar

StartChar: Q
Encoding: 81 81 50
Width: 832
VWidth: 1024
Flags: HW
LayerCount: 2
Fore
SplineSet
410.825897715 119 m 0
 423.825925343 119 438.572241184 119.362304688 448.628525826 119.8203125 c 1
 398.456444675 187.063476562 l 1
 384.958539131 205.154296875 l 1
 408.863048533 210.30078125 l 1
 515.394060502 233.235351562 l 1
 527.275189787 235.79296875 l 1
 534.031042786 226.829101562 l 1
 579.138357335 166.973632812 l 1
 606.185123946 196.75 629 240.72265625 629 320.634765625 c 0
 629 357.446289062 623.05078125 410.107421875 620.024414062 463.140625 c 0
 602.157514537 759.635742188 549.728528377 808 410.825897715 808 c 0
 249.709844048 808 197 767.607421875 197 472.578125 c 0
 197 162.30078125 241.704519178 119 410.825897715 119 c 0
410.825897715 -15 m 0
 107.758789062 -15 59 62.1904296875 59 463 c 0
 59 844.790039062 122.063476562 941 410.825897715 941 c 0
 678.381835938 941 739.93359375 844.850585938 761.977539062 463.83203125 c 0
 764.98828125 405.564453125 767 355.116210938 767 309.166015625 c 0
 767 160.852539062 746.00390625 74.3798828125 674.529296875 28.3818359375 c 1
 703.383789062 -14.2314453125 l 1
 712.361328125 -27.9345703125 l 1
 698.450195312 -36.5869140625 l 1
 616.450195312 -87.5869140625 l 1
 602.253056141 -95.890625 l 1
 592.974904788 -82.685546875 l 1
 541.299635728 -9.13671875 l 1
 501.14031471 -13.46484375 460.086087332 -15 410.825897715 -15 c 0
EndSplineSet
Validated: 524289
EndChar

StartChar: R
Encoding: 82 82 51
Width: 720
VWidth: 1024
Flags: HW
LayerCount: 2
Fore
SplineSet
222.961914062 802.584960938 m 1
 222.041015625 460 l 1
 360.472313671 460 l 2
 491.467370313 460 489.364768364 454.524414062 489.364768364 640.8046875 c 0
 489.364768364 821.534179688 489.751139259 813 413.150099503 813 c 0
 327.92412307 813 282.680419714 806.651367188 222.961914062 802.584960938 c 1
666.59765625 26.693359375 m 1
 666.85546875 26.0712890625 l 1
 668.85546875 21.23828125 l 1
 677.291992188 0.8515625 l 1
 654.591796875 0.0107421875 l 1
 519.168959442 -4.9892578125 l 1
 506.619019857 -5.4033203125 l 1
 501.891722712 4.9775390625 l 1
 346.160172558 347 l 1
 222 347 l 1
 222 8 l 1
 222 -9.560546875 l 1
 204.514648438 -7.9306640625 l 1
 86.5146484375 3.0693359375 l 1
 72 4.421875 l 1
 72 18.51171875 l 1
 72 911.536132812 l 1
 72 927 l 1
 88 927 l 1
 355.989097856 927 l 2
 619.961914062 927 643 902.184570312 643 642.819335938 c 0
 643 428.206054688 633.990234375 355.811523438 500.402060426 340.526367188 c 1
 666.286132812 27.2919921875 l 1
 666.59765625 26.693359375 l 1
EndSplineSet
Validated: 524321
EndChar

StartChar: S
Encoding: 83 83 52
Width: 727
VWidth: 1024
Flags: HW
LayerCount: 2
Fore
SplineSet
247.502025928 -2 m 0
 130.612304688 -2 93.330078125 30.6259765625 64.90625 193.051757812 c 0
 62.791015625 203.624023438 61.7158203125 214.000976562 59.943359375 222.862304688 c 2
 57 237.581054688 l 1
 71.5009765625 241.45703125 l 1
 172.500976562 268.45703125 l 1
 189.61328125 273.032226562 l 1
 192.4296875 255.543945312 l 2
 211.033203125 140.0078125 222.668664681 134 311.30208884 134 c 0
 342.226012562 134 380.216606493 134.956054688 428.421900053 135.919921875 c 0
 515.01953125 137.619140625 504.791126263 140.46484375 514.673828125 263.0234375 c 0
 515.676757812 276.530273438 516.6328125 288.810546875 516.6328125 298.477539062 c 0
 516.6328125 360.5078125 499.465709828 366.615234375 336.745380788 395.950195312 c 0
 84.314453125 443.690429688 68.73046875 469.909179688 62.6328125 683.97265625 c 0
 62.6328125 696.193359375 61.6328125 708.213867188 61.6328125 720.734375 c 0
 61.6328125 904.032226562 121.020507812 941 335.926674525 941 c 0
 379.278756062 941 414.960795085 942 445.618010759 942 c 0
 562.341796875 942 598.176757812 916.528320312 650.5859375 762.7265625 c 0
 653.836914062 754.059570312 653.991210938 751.686523438 655.48828125 747.942382812 c 2
 661.791015625 732.1875 l 1
 645.692382812 726.821289062 l 1
 537.692382812 690.821289062 l 1
 522.467773438 685.74609375 l 1
 517.438476562 700.986328125 l 2
 481.865164786 799.234375 474.057395985 799 405.323234184 799 c 2
 335.926674525 799 l 2
 227.211446024 799 205.6328125 788.715820312 205.6328125 674.973632812 c 0
 205.6328125 662.3828125 205.62890625 647.639648438 206.612304688 632.504882812 c 0
 210.2890625 546.787109375 203.342773438 547.08984375 440.286035929 504.479492188 c 0
 624.202148438 469.801757812 665.6328125 449.635742188 665.6328125 310.5859375 c 0
 665.6328125 296.23828125 664.6328125 282.3984375 664.6328125 266.133789062 c 0
 658.551757812 66.3798828125 642.958007812 5.9541015625 388.884618056 1.0029296875 c 0
 332.072524617 0.0078125 286.251207504 -2 247.502025928 -2 c 0
EndSplineSet
Validated: 524321
EndChar

StartChar: T
Encoding: 84 84 53
Width: 745
VWidth: 1024
Flags: HW
LayerCount: 2
Fore
SplineSet
439.498778666 4.037109375 m 1
 390.860465116 1.0478515625 l 1
 390.860465116 -4 l 1
 373.206718346 -4 l 1
 308.108527132 -4 l 1
 290.454780362 -4 l 1
 290.454780362 12 l 1
 290.454780362 807.578125 l 1
 61.59375 812.9921875 l 1
 46 813.375 l 1
 46 828.446289062 l 1
 46 869.994140625 l 1
 46 885.453125 l 1
 48.7265625 885.453125 l 1
 50.017578125 912.258789062 l 1
 50.7265625 927 l 1
 66 927 l 1
 680 927 l 1
 696 927 l 1
 696 911 l 1
 696 810 l 1
 696 794 l 1
 680 794 l 1
 674.82421875 794 l 1
 455.958656331 798.643554688 l 1
 455.958656331 19.4169921875 l 1
 455.958656331 5.0478515625 l 1
 439.498778666 4.037109375 l 1
EndSplineSet
Validated: 524289
EndChar

StartChar: U
Encoding: 85 85 54
Width: 770
VWidth: 1024
Flags: HW
LayerCount: 2
Fore
SplineSet
202.5859375 913.635742188 m 2
 202.424804688 912.686523438 216.0078125 889.826171875 216.0078125 889.826171875 c 1
 217 385.907226562 l 2
 217 130.793945312 217.776367188 133 382.9420722 133 c 0
 526.632202411 133 528.206298125 130.947265625 541.572569926 386.91796875 c 1
 532.454081537 920.059570312 l 1
 700.059570312 929.987304688 l 1
 697.999023438 361.8515625 l 1
 681.91796875 15.77734375 658.85546875 -15 382.9420722 -15 c 0
 90.4228515625 -15 67 16.1416015625 67 362.31640625 c 2
 68.033203125 934.828125 l 1
 202.5859375 913.635742188 l 2
EndSplineSet
Validated: 524321
EndChar

StartChar: V
Encoding: 86 86 55
Width: 735
VWidth: 1024
Flags: HW
LayerCount: 2
Fore
SplineSet
42 905.922851562 m 1
 58.12109375 909.490234375 l 1
 176.12109375 935.596679688 l 1
 191.50390625 939.1171875 l 1
 195.235351562 923.784179688 l 1
 371.342863898 266.461914062 l 1
 559.20703125 926.037109375 l 1
 563.313476562 941.783203125 l 1
 578.987304688 937.412109375 l 1
 682.987304688 909.380859375 l 1
 698.094726562 905.309570312 l 1
 694.184570312 890.62890625 l 1
 451.699395317 12.01171875 l 1
 449.285859921 3.5009765625 l 1
 451.441263189 -8.23828125 l 1
 428.282509113 -5.90234375 l 1
 369.779013423 0 l 1
 307.976804249 0 l 1
 284.614771122 0 l 1
 291.033656703 19.720703125 l 1
 291.905928185 22.40234375 l 1
 46.21875 890.461914062 l 1
 42 905.922851562 l 1
EndSplineSet
Validated: 524289
EndChar

StartChar: W
Encoding: 87 87 56
Width: 949
VWidth: 1024
Flags: HW
LayerCount: 2
Fore
SplineSet
43 907.7734375 m 1
 57.896484375 911.407226562 l 1
 164.896484375 937.513671875 l 1
 181.197265625 941.626953125 l 1
 184.499023438 925.142578125 l 1
 314.589775339 309.401367188 l 1
 414.530032901 915.45703125 l 1
 416.651350078 928.323242188 l 1
 430.450792935 928.979492188 l 1
 535.507290313 933.979492188 l 1
 549.859083954 934.663085938 l 1
 552.946237774 921.436523438 l 1
 698.90260082 296.0078125 l 1
 766.892578125 935.615234375 l 1
 768.975585938 956.138671875 l 1
 788.3359375 949.015625 l 1
 894.3359375 911.28515625 l 1
 906.474609375 906.963867188 l 1
 904.651367188 894.576171875 l 1
 772.651367188 -2.255859375 l 1
 770.388671875 -18.1435546875 l 1
 754.5078125 -15.8330078125 l 1
 637.914991059 0.1669921875 l 1
 626.1259807 1.7822265625 l 1
 623.727969978 12.779296875 l 1
 499.012758948 584.6171875 l 1
 389.630722783 29.0517578125 l 1
 386.44719256 13.0517578125 l 1
 384.09167036 1.2138671875 l 1
 371.368948825 0.072265625 l 1
 259.945391 -9.927734375 l 1
 244.830876576 -11.2841796875 l 1
 241.71781512 2.71875 l 1
 46.1513671875 893.234375 l 1
 43 907.7734375 l 1
EndSplineSet
Validated: 524289
EndChar

StartChar: X
Encoding: 88 88 57
Width: 733
VWidth: 1024
Flags: HW
LayerCount: 2
Fore
SplineSet
518.89836932 944.282226562 m 1
 531.65639031 942.885742188 l 1
 666.736328125 926.885742188 l 1
 688.487304688 924.268554688 l 1
 679.375976562 905.014648438 l 1
 465.407373144 469.80859375 l 1
 696.354492188 2.701171875 l 1
 709.037109375 -24.7978515625 l 1
 679.172851562 -19.7783203125 l 1
 560.172851562 0.2216796875 l 1
 551.517577879 1.6259765625 l 1
 547.636101262 9.3291015625 l 1
 386.810153691 328.48828125 l 1
 220.379774432 -4.6240234375 l 1
 215.694752765 -14 l 1
 204.379679827 -14 l 1
 135.825195312 -14 l 1
 112.192382812 -14 l 1
 115.774414062 -5.0458984375 l 1
 66.1787109375 0.0849609375 l 1
 44 2.37890625 l 1
 53.2744140625 21.9755859375 l 1
 289.414915085 503.619140625 l 1
 91.2744140625 905.043945312 l 1
 81.7392578125 925.194335938 l 1
 104.59765625 926.953125 l 1
 209.622569886 934.953125 l 1
 221.808775773 935.805664062 l 1
 226.930436739 925.705078125 l 1
 369.073157305 645.362304688 l 1
 513.56536206 933.641601562 l 1
 518.89836932 944.282226562 l 1
EndSplineSet
Validated: 524289
EndChar

StartChar: Y
Encoding: 89 89 58
Width: 752
VWidth: 1024
Flags: HW
LayerCount: 2
Fore
SplineSet
582.875976562 951 m 1
 704.875976562 919 l 1
 724.040039062 913.973632812 l 1
 715.091796875 904.546875 l 1
 462.962846976 431.7734375 l 2
 412.56001669 340.732421875 464.333858629 99.8720703125 464.848521882 -4.8564453125 c 2
 464.932875403 -6.1533203125 l 1
 446.180767415 -5 l 1
 316.067063335 3 l 1
 299.671515097 4.0078125 l 1
 299.746258723 3.1455078125 l 1
 301.889265256 434.307617188 l 1
 50.53515625 906.5703125 l 1
 41 916.954101562 l 1
 61.7548828125 921 l 1
 179.754882812 944 l 1
 191.9921875 946.384765625 l 1
 197.491639572 944 l 1
 379.508385288 596.71484375 l 1
 563.802676063 951 l 1
 569.96484375 954.38671875 l 1
 582.875976562 951 l 1
EndSplineSet
Validated: 524325
EndChar

StartChar: Z
Encoding: 90 90 59
Width: 768
VWidth: 1024
Flags: HW
LayerCount: 2
Fore
SplineSet
680.857421875 794 m 1
 218.287706917 132.5234375 l 1
 704.297851562 124.3828125 l 1
 725.159179688 124.009765625 l 1
 719.372070312 104.750976562 l 1
 691.372070312 11.5625 l 1
 687.986328125 -0.1689453125 l 1
 675.776367188 0.001953125 l 1
 71.7763671875 8.001953125 l 1
 56 8.22265625 l 1
 56 24 l 1
 56 125 l 1
 56 141 l 1
 64.7177734375 141 l 1
 480.385906665 794 l 1
 98 794 l 1
 83.6484375 794 l 1
 82.09375 808.267578125 l 1
 71.09375 909.267578125 l 1
 69.1630859375 927 l 1
 87 927 l 1
 676 927 l 1
 692 927 l 1
 692 911 l 1
 692 810 l 1
 692 794 l 1
 680.857421875 794 l 1
EndSplineSet
Validated: 524289
EndChar

StartChar: bracketleft
Encoding: 91 91 60
Width: 397
VWidth: 1024
Flags: HW
LayerCount: 2
Fore
SplineSet
314.823242188 889.522460938 m 1
 194.28125 891.233398438 l 1
 206.849609375 -0.6396484375 l 1
 335.833984375 -6.734375 l 1
 353.318359375 -7.560546875 l 1
 350.904296875 -24.4140625 l 1
 339.904296875 -101.20703125 l 1
 337.983398438 -115 l 1
 324.056640625 -115 l 1
 92.056640625 -115 l 1
 76.11328125 -115 l 1
 76.056640625 -99.056640625 l 1
 72.056640625 996.392578125 l 1
 72 1012 l 1
 88.056640625 1012 l 1
 327.056640625 1012 l 1
 345.229492188 1012 l 1
 342.927734375 994.477539062 l 1
 330.927734375 903.104492188 l 1
 329.118164062 889.319335938 l 1
 314.823242188 889.522460938 l 1
EndSplineSet
Validated: 524289
EndChar

StartChar: backslash
Encoding: 92 92 61
Width: 508
VWidth: 1024
Flags: HW
LayerCount: 2
Fore
SplineSet
372.852539062 -9.75 m 1
 366.453125 11.3583984375 l 1
 53.453125 907.05078125 l 1
 48 924.43359375 l 1
 66.630859375 926.857421875 l 1
 170.630859375 940.857421875 l 1
 184.063476562 942.665039062 l 1
 188.055664062 929.712890625 l 1
 490.055664062 82.9482421875 l 1
 493.491210938 72.1748046875 l 1
 483.931640625 65.716796875 l 1
 390.931640625 2.8857421875 l 1
 372.852539062 -9.75 l 1
EndSplineSet
Validated: 524289
EndChar

StartChar: bracketright
Encoding: 93 93 62
Width: 389
VWidth: 1024
Flags: HW
LayerCount: 2
Fore
SplineSet
75.4169921875 12.3818359375 m 1
 159.927734375 13.2041015625 l 1
 180.228515625 893.9921875 l 1
 70.9375 898.243164062 l 1
 56.9580078125 898.786132812 l 1
 55.6474609375 912.331054688 l 1
 47.6474609375 994.984375 l 1
 46 1012 l 1
 63.576171875 1012 l 1
 302.576171875 1012 l 1
 318.633789062 1012 l 1
 318.576171875 996.392578125 l 1
 314.576171875 -99.056640625 l 1
 314.51953125 -115 l 1
 298.576171875 -115 l 1
 66.576171875 -115 l 1
 49.0556640625 -115 l 1
 50.642578125 -98.033203125 l 1
 59.642578125 -1.7666015625 l 1
 60.9521484375 12.2412109375 l 1
 75.4169921875 12.3818359375 l 1
EndSplineSet
Validated: 524289
EndChar

StartChar: asciicircum
Encoding: 94 94 63
Width: 779
VWidth: 1024
Flags: HW
LayerCount: 2
Fore
SplineSet
617.0859375 339 m 1
 399.895451513 665.985351562 l 1
 179.499023438 336 l 1
 173.163085938 332.615234375 l 1
 161.383789062 336 l 1
 74.3837890625 361 l 1
 55 366.5703125 l 1
 64.8330078125 376.602539062 l 1
 333.333367927 823 l 1
 338.265196507 822.885742188 l 1
 348.378485483 823 l 1
 436.863363211 824 l 1
 447.01825749 824.115234375 l 1
 452.155978978 824 l 1
 731.604492188 383.1875 l 1
 741.698242188 373.11328125 l 1
 722.705078125 367 l 1
 635.705078125 339 l 1
 623.62109375 335.111328125 l 1
 617.0859375 339 l 1
EndSplineSet
Validated: 524289
EndChar

StartChar: underscore
Encoding: 95 95 64
Width: 828
VWidth: 1024
Flags: HW
LayerCount: 2
Fore
SplineSet
104.5 -164 m 1
 101.340820312 -120.107421875 l 1
 84.3408203125 -80.45703125 l 1
 79 -68 l 1
 99.8046875 -68 l 1
 718.8046875 -68 l 1
 730.92578125 -68 l 1
 734.20703125 -79.66796875 l 1
 752.20703125 -119.3828125 l 1
 757.92578125 -132 l 1
 736.8046875 -164 l 1
 116.8046875 -164 l 1
 104.5 -164 l 1
EndSplineSet
Validated: 524289
EndChar

StartChar: grave
Encoding: 96 96 65
Width: 354
VWidth: 1024
Flags: HW
LayerCount: 2
Fore
SplineSet
58 951.157226562 m 1
 71.80859375 959.720703125 l 1
 157.80859375 1013.05078125 l 1
 171.102539062 1022.48046875 l 1
 180.28515625 1009.01367188 l 1
 240.28515625 932.118164062 l 1
 240.487304688 931.858398438 l 1
 240.67578125 931.591796875 l 1
 295.67578125 853.822265625 l 1
 303.190429688 843.196289062 l 1
 291.950195312 835.478515625 l 1
 221.950195312 787.418945312 l 1
 208.930664062 777.189453125 l 1
 199.15234375 790.551757812 l 1
 139.349609375 862.005859375 l 1
 68.5576171875 939.587890625 l 1
 58 951.157226562 l 1
EndSplineSet
Validated: 524289
EndChar

StartChar: a
Encoding: 97 97 66
Width: 669
VWidth: 1024
Flags: HW
LayerCount: 2
Fore
SplineSet
468.989257812 174.849609375 m 1
 468.09765625 293.999023438 l 1
 428.575620161 298.17578125 310.730210104 309 261.412890232 309 c 0
 204.974609375 309 197.16796875 300.704101562 189.001953125 172.151367188 c 0
 188.875 163.06640625 188 158.373046875 188 153.053710938 c 0
 188 106.864257812 199.215820312 102 237.029204431 102 c 0
 260.851602821 102 288.097287458 104.666015625 324.019681717 108.372070312 c 0
 410.710805718 117.612304688 460.231445312 137.170898438 468.989257812 174.849609375 c 1
67.7470703125 540.831054688 m 1
 70.25 554.818359375 l 2
 87.8564453125 653.208007812 118.810546875 714 273.024169184 714 c 0
 291.32213876 714 310.03625476 712.9765625 329.937578676 711.967773438 c 0
 538.75390625 699.345703125 571.607421875 689.622070312 588.94921875 478.721679688 c 0
 598.008789062 371.771484375 600 247.043945312 600 152.077148438 c 0
 600 61.8935546875 597.99609375 -2.3720703125 597.993164062 -2.4755859375 c 2
 597.471679688 -20.0244140625 l 1
 580.045898438 -17.8798828125 l 2
 515.645507812 -9.9541015625 509.016601562 -12.072265625 494.501953125 -5.62109375 c 2
 494.169921875 -5.4736328125 l 1
 493.844726562 -5.310546875 l 2
 479.721679688 1.75 479.694335938 17.5791015625 479.270507812 23.7109375 c 1
 437.710431025 -4.146484375 368.643731708 -2.93359375 257.818382978 -13.88671875 c 0
 238.796976295 -15.9345703125 220.434373623 -17 205 -17 c 0
 110.765625 -17 61 27.51171875 61 169.154296875 c 0
 61 399.422851562 101.296875 426.333984375 251.585257938 430.333007812 c 2
 252.160152316 430.346679688 l 1
 252.735046694 430.331054688 l 2
 372.080624921 427.120117188 439.008762509 424.309570312 465.75 422.875 c 1
 456.190429688 561.732421875 474.46875 583.46484375 328.50431143 585.15234375 c 2
 327.788811721 585.16015625 l 1
 327.076713754 585.212890625 l 2
 301.772289818 587.094726562 283.732852625 588 268.379657603 588 c 0
 215.72636286 588 208.993164062 580.067382812 193.4921875 520.001953125 c 2
 189.319335938 503.830078125 l 1
 173.341796875 508.693359375 l 1
 81.341796875 536.693359375 l 1
 67.7470703125 540.831054688 l 1
EndSplineSet
Validated: 524293
EndChar

StartChar: b
Encoding: 98 98 67
Width: 681
VWidth: 1024
Flags: HW
LayerCount: 2
Fore
SplineSet
332.514173998 585 m 0
 236.542910519 585 216.965820312 572.5 212 420.859375 c 1
 212 286.34375 l 2
 214.982421875 125.249023438 234.713445251 112 332.514173998 112 c 0
 453.533301449 112 492.791015625 120.624023438 493 334.500976562 c 1
 479.7734375 553.138671875 433.946730091 585 332.514173998 585 c 0
616 348.4140625 m 1
 616 348 l 2
 616 47.2744140625 581.600585938 -15 377.613880743 -15 c 0
 304.953618532 -15 249.293831714 -9.3232421875 211 12.4873046875 c 1
 211 0 l 1
 195 0 l 1
 189.181640625 0 l 1
 89.3505859375 -14.826171875 l 1
 71 -17.5517578125 l 1
 71 1 l 1
 71 11.025390625 l 1
 74 926.05078125 l 1
 74.06640625 946.895507812 l 1
 94.185546875 941.442382812 l 1
 201.185546875 912.442382812 l 1
 213 909.241210938 l 1
 213 897 l 1
 213 886.965820312 l 1
 212.142578125 684.541992188 l 1
 253.394318373 706.53515625 306.044521895 711 377.613880743 711 c 0
 565.020507812 711 599.018554688 648.823242188 615.9765625 348.828125 c 2
 616 348.4140625 l 1
EndSplineSet
Validated: 524289
EndChar

StartChar: c
Encoding: 99 99 68
Width: 645
VWidth: 1024
Flags: HW
LayerCount: 2
Fore
SplineSet
463.081054688 189.876953125 m 1
 479.938476562 186.727539062 l 1
 570.938476562 169.727539062 l 1
 586.708984375 166.78125 l 1
 583.719726562 151.018554688 l 2
 561.008789062 31.271484375 544.935546875 -10 331.956972434 -10 c 0
 101.841796875 -10 73.0361328125 6.880859375 61.0078125 354.264648438 c 0
 60.005859375 386.8671875 59 417.548828125 59 444.733398438 c 0
 59 672.431640625 112.856445312 708 275.961543388 708 c 0
 294.479725744 708 312.464748497 707 332.255450673 707 c 0
 572.950195312 699.786132812 563.041992188 616.8515625 584.939453125 559.7265625 c 2
 591.509765625 542.588867188 l 1
 573.635742188 538.418945312 l 1
 483.635742188 517.418945312 l 1
 470.385742188 514.327148438 l 1
 465.205078125 526.908203125 l 2
 450.282226562 563.149414062 475.102539062 584.036132812 331.886340179 585 c 0
 311.485010765 585 293.68454326 586 278.294686265 586 c 0
 213.139648438 586 190 583.06640625 190 375.342773438 c 0
 190 122.604492188 224.628982407 116 331.956972434 116 c 0
 444.434570312 116 454.364257812 114.688476562 461.106445312 172.842773438 c 2
 463.081054688 189.876953125 l 1
EndSplineSet
Validated: 524321
EndChar

StartChar: d
Encoding: 100 100 69
Width: 677
VWidth: 1024
Flags: HW
LayerCount: 2
Fore
SplineSet
58 348.4140625 m 1
 58.0234375 348.828125 l 2
 74.9814453125 648.82421875 108.975585938 711 296.386119257 711 c 0
 368.228768596 711 422.108779326 705.772460938 461.857421875 684.541992188 c 1
 461 886.965820312 l 1
 461 897 l 1
 461 909.241210938 l 1
 472.814453125 912.442382812 l 1
 579.814453125 941.442382812 l 1
 599.93359375 946.895507812 l 1
 600 926.05078125 l 1
 603 11.025390625 l 1
 603 1 l 1
 603 -17.5517578125 l 1
 584.649414062 -14.826171875 l 1
 484.818359375 0 l 1
 479 0 l 1
 463 0 l 1
 463 12.4873046875 l 1
 423.264052763 -10.099609375 368.740341291 -15 296.386119257 -15 c 0
 92.3994140625 -15 58 47.2744140625 58 348 c 2
 58 348.4140625 l 1
462 286.34375 m 2
 462 420.859375 l 1
 457.047851562 572.077148438 437.449184384 585 341.485826002 585 c 0
 240.586299296 585 223.729244944 567.362304688 209 347.614257812 c 1
 209.0859375 128.21875 225.240247739 112 341.485826002 112 c 0
 439.288813348 112 459.017578125 125.247070312 462 286.34375 c 2
EndSplineSet
Validated: 524289
EndChar

StartChar: e
Encoding: 101 101 70
Width: 652
VWidth: 1024
Flags: HW
LayerCount: 2
Fore
SplineSet
447 427 m 0
 447 574.620117188 429.861099757 592 311.491556629 592 c 2
 302.218768268 592 l 2
 207.432617188 592 195.114257812 603.87890625 195 402.559570312 c 1
 446.23449864 396.4453125 l 1
 446.611328125 409.544921875 447 417.622070312 447 427 c 0
552.840820312 312.15625 m 2
 443.838198229 306.720703125 317.457971113 301.221679688 195.362304688 295.825195312 c 1
 200.98046875 91.384765625 213.100585938 104 330.037133352 104 c 2
 336.991724623 104 l 2
 423.424933421 104 433.869271582 111.416992188 463.771484375 198.907226562 c 2
 468.393554688 213.251953125 l 1
 482.98828125 209.495117188 l 1
 583.98828125 183.495117188 l 1
 600.533203125 179.235351562 l 1
 595.200195312 163.005859375 l 2
 547.981445312 19.294921875 506.041015625 -12 339.309921713 -12 c 0
 107.372070312 -12 66.0322265625 1.2783203125 60 360.498046875 c 0
 60 383.337890625 59 403.15625 59 424.799804688 c 0
 59 697.509765625 112.181640625 711.09765625 327.481230505 716 c 0
 348.212568254 716 366.137846145 717 384.514764974 717 c 0
 537.663085938 717 573 680.932617188 573 520.26953125 c 0
 573 470.467773438 570.9921875 406.68359375 567.990234375 326.798828125 c 2
 567.466796875 312.887695312 l 1
 552.840820312 312.15625 l 2
EndSplineSet
Validated: 524321
EndChar

StartChar: f
Encoding: 102 102 71
Width: 465
VWidth: 1024
Flags: HW
LayerCount: 2
Fore
SplineSet
277.94140625 709.7578125 m 2
 277.94140625 695.008789062 l 1
 387.962890625 687.967773438 l 1
 401.510742188 687.100585938 l 1
 402.862304688 674.190429688 l 1
 411.862304688 588.178710938 l 1
 413.73046875 570.32421875 l 1
 394.987304688 571.393554688 l 1
 277.88671875 578.07421875 l 1
 275.94140625 -3.05078125 l 1
 275.884765625 -20.8310546875 l 1
 258.208984375 -18.90625 l 1
 157.208984375 -7.90625 l 1
 142.96484375 -6.3544921875 l 1
 142.94140625 7.974609375 l 1
 141.965820312 586.836914062 l 1
 60.1171875 590.868164062 l 1
 43 591.7109375 l 1
 45.056640625 607.970703125 l 1
 56.056640625 694.919921875 l 1
 57.8818359375 710.01953125 l 1
 73.0546875 708.9609375 l 1
 141.94140625 704.155273438 l 1
 141.94140625 746.299804688 l 1
 147.901367188 905.24609375 151.315429688 927 257.94140625 927 c 2
 279.94140625 927 l 1
 386.94140625 927 l 1
 400.734375 927 l 1
 402.766601562 913.357421875 l 1
 416.766601562 819.357421875 l 1
 419.642578125 800.044921875 l 1
 400.142578125 801.01953125 l 1
 320.590820312 804.997070312 l 2
 308.881835938 805.102539062 302.809570312 806 296.94140625 806 c 0
 280.10546875 806 281.140625 815.33203125 277.94140625 709.7578125 c 2
EndSplineSet
Validated: 524321
EndChar

StartChar: g
Encoding: 103 103 72
Width: 643
VWidth: 1024
Flags: HW
LayerCount: 2
Fore
SplineSet
440.409179688 307.291992188 m 0
 440.409179688 530.293945312 431.03515625 581 332.616882309 581 c 2
 308.050380297 581 l 2
 216.483496496 581 202.409179688 589.708007812 202.409179688 344.658203125 c 0
 202.409179688 118.633789062 206.377929688 127 286.993378573 127 c 2
 320.918548018 127 l 1
 348.994550317 127 l 2
 430.823242188 127 440.409179688 118.427734375 440.409179688 307.291992188 c 0
114.876953125 -94.365234375 m 1
 114.876953125 -94.365234375 200.098632812 -132 299.861546293 -132 c 0
 434.427734375 -132 438.409179688 -90.3818359375 438.409179688 -20 c 2
 438.409179688 -1.1171875 l 1
 407.703280712 -2.8740234375 340.819425299 -6 275.295044281 -6 c 2
 263.59670999 -6 l 2
 78.732421875 -6 72.4091796875 14.2509765625 72.4091796875 340.325195312 c 2
 72.4091796875 351.8046875 l 2
 72.4091796875 664.061523438 103.818359375 701 246.049208553 701 c 2
 318.57888116 701 l 1
 332.616882309 701 l 2
 385.180559954 701 413.381085539 701.072265625 438.409179688 687.001953125 c 1
 438.409179688 693.834960938 l 1
 450.938476562 696.619140625 l 1
 558.938476562 720.619140625 l 1
 560.653320312 721 l 1
 562.409179688 721 l 2
 590.997070312 721 579.560546875 693.408203125 579.560546875 693.408203125 c 2
 579.891601562 685.813476562 580.091796875 680.412109375 579.375 674.350585938 c 2
 569.403320312 8.4306640625 l 1
 557.401367188 -202.6015625 550.236328125 -228.381835938 407.3993982 -255.731445312 c 0
 386.174461403 -258.932617188 363.283882868 -261 339.635882884 -261 c 0
 227.133093397 -261 111.969726562 -228.412109375 71.056640625 -219.64453125 c 2
 53 -215.775390625 l 1
 59.4013671875 -198.453125 l 2
 76.853515625 -151.229492188 71.1962890625 -173.04296875 93.166015625 -104.139648438 c 2
 98.578125 -87.162109375 l 1
 114.876953125 -94.365234375 l 1
EndSplineSet
Validated: 524321
EndChar

StartChar: h
Encoding: 104 104 73
Width: 613
VWidth: 1024
Flags: HW
LayerCount: 2
Fore
SplineSet
412.515625 2.2099609375 m 1
 412.135742188 15.8076171875 l 1
 399.129882812 480.724609375 l 1
 399.129882812 497.9609375 l 2
 399.129882812 573.8046875 397.353515625 568 310.976096377 568 c 0
 206.797851562 568 203.129882812 564.344726562 203.129882812 487.59765625 c 2
 203.129882812 22.2080078125 l 1
 203.129882812 8.3623046875 l 1
 188.549804688 7.0634765625 l 1
 87.5498046875 -1.9365234375 l 1
 70 -3.5009765625 l 1
 70.130859375 14.1181640625 l 1
 77.130859375 928.118164062 l 1
 77.271484375 947.127929688 l 1
 95.9775390625 943.744140625 l 1
 189.977539062 926.744140625 l 1
 203.129882812 924.366210938 l 1
 203.129882812 911 l 1
 203.129882812 686.227539062 l 1
 238.780834972 701.383789062 291.653660445 705 365.575762315 705 c 0
 509.921875 705 540.129882812 681.590820312 540.129882812 486.11328125 c 2
 543.129882812 9.095703125 l 1
 543.234375 -8.353515625 l 1
 525.840820312 -6.9482421875 l 1
 426.840820312 1.0517578125 l 1
 412.515625 2.2099609375 l 1
EndSplineSet
Validated: 524321
EndChar

StartChar: i
Encoding: 105 105 74
Width: 293
VWidth: 1024
Flags: HW
LayerCount: 2
Fore
SplineSet
71.9140625 4.9658203125 m 1
 72 19.4150390625 l 1
 76 689.090820312 l 1
 76.08984375 704.853515625 l 1
 91.8515625 704.999023438 l 1
 199.8515625 705.999023438 l 1
 215.977539062 706.1484375 l 1
 216 690.022460938 l 1
 217 13.0224609375 l 1
 217.024414062 -4.0234375 l 1
 200.010742188 -2.9697265625 l 1
 87.0107421875 4.0302734375 l 1
 71.9140625 4.9658203125 l 1
65 766.96875 m 5
 65 782 l 5
 65 901 l 5
 65 917 l 5
 81 917 l 5
 201 917 l 5
 216.0234375 917 l 5
 216.96875 902.005859375 l 5
 224.96875 775.005859375 l 5
 226.109375 756.899414062 l 5
 208.001953125 758.03125 l 5
 80.001953125 766.03125 l 5
 65 766.96875 l 5
EndSplineSet
Validated: 524289
EndChar

StartChar: j
Encoding: 106 106 75
Width: 341
VWidth: 1024
Flags: HW
LayerCount: 2
Fore
SplineSet
36 -37.6669921875 m 1
 56.48046875 -43.6396484375 l 1
 99.4384765625 -56.169921875 l 1
 141.845703125 -40.8486328125 134 -53.4169921875 134 -18 c 2
 134 15.81640625 l 1
 118.00390625 681.3671875 l 1
 117.62890625 697 l 1
 134 697 l 1
 257 697 l 1
 273.37109375 697 l 1
 272.99609375 681.3671875 l 1
 257 15.81640625 l 1
 257 -56 l 2
 257 -145.4765625 235.090820312 -145.932617188 136.633789062 -182.975585938 c 2
 132.528320312 -184.520507812 l 1
 128.208007812 -183.754882812 l 1
 49.2080078125 -169.754882812 l 1
 36 -167.4140625 l 1
 36 -154 l 1
 36 -59 l 1
 36 -37.6669921875 l 1
113 765 m 5
 113 781 l 5
 113 900 l 5
 113 916 l 5
 129 916 l 5
 248 916 l 5
 264 916 l 5
 264 900 l 5
 264 781 l 5
 264 765 l 5
 248 765 l 5
 129 765 l 5
 113 765 l 5
EndSplineSet
Validated: 524321
EndChar

StartChar: k
Encoding: 107 107 76
Width: 614
VWidth: 1024
Flags: HW
LayerCount: 2
Fore
SplineSet
63 -0.6142578125 m 1
 63.41796875 13.474609375 l 1
 90.41796875 891.474609375 l 1
 90.830078125 905.3671875 l 1
 104.64453125 906.90234375 l 1
 212.64453125 918.90234375 l 1
 233.456610579 920.932617188 l 1
 232.852378887 902.555664062 l 1
 217.938736907 449.633789062 l 1
 434.526367188 700.486328125 l 1
 442.549804688 711.383789062 l 1
 454.627929688 705.280273438 l 1
 547.627929688 660.356445312 l 1
 565.489257812 651.728515625 l 1
 552.751953125 636.974609375 l 1
 366.476712677 431.224609375 l 1
 567.951171875 29.89453125 l 1
 576.081054688 12.9736328125 l 1
 557.134765625 8.439453125 l 1
 440.134765625 -19.560546875 l 1
 426.143554688 -22.9091796875 l 1
 421.230290211 -9.3505859375 l 1
 276.079253003 335.758789062 l 1
 211.248046875 267.12890625 l 1
 203.404296875 -4.4619140625 l 1
 202.879882812 -22.6318359375 l 1
 184.922851562 -19.8056640625 l 1
 76.9228515625 -2.8056640625 l 1
 63 -0.6142578125 l 1
EndSplineSet
Validated: 524289
EndChar

StartChar: l
Encoding: 108 108 77
Width: 291
VWidth: 1024
Flags: HW
LayerCount: 2
Fore
SplineSet
223 915 m 1
 223 899 l 1
 223 885.877929688 l 1
 208.998046875 3.7548828125 l 1
 208.756835938 -12 l 1
 193 -12 l 1
 83 -12 l 1
 67 -12 l 1
 67 4 l 1
 67 9.12109375 l 1
 81.001953125 902.2421875 l 1
 81.25390625 918.8828125 l 1
 97.87109375 917.9765625 l 1
 152.436523438 915 l 1
 207 915 l 1
 223 915 l 1
EndSplineSet
Validated: 524289
EndChar

StartChar: m
Encoding: 109 109 78
Width: 910
VWidth: 1024
Flags: HW
LayerCount: 2
Fore
SplineSet
696.221679688 8.1044921875 m 1
 696.337890625 21.373046875 l 1
 700.336914062 481.036132812 l 2
 700.336914062 574.93359375 698.654296875 568 625.0070711 568 c 0
 533.764142225 568 530.567673811 564.708007812 530.567673811 487.592773438 c 2
 530.567673811 480.880859375 l 1
 524.127575973 7.8076171875 l 1
 523.907491263 -9.2744140625 l 1
 505.627884024 -7.9521484375 l 1
 395.090862197 0.0478515625 l 1
 379.250003155 1.1943359375 l 1
 379.250003155 16 l 1
 379.250003155 481.041015625 l 2
 379.250003155 574.979492188 377.444260506 568 303.054580342 568 c 0
 214.497070312 568 211.336914062 564.8515625 211.336914062 487.596679688 c 2
 211.336914062 21.259765625 l 1
 211.336914062 8.314453125 l 1
 197.81640625 6.193359375 l 1
 95.81640625 -9.806640625 l 1
 77.642578125 -12.6572265625 l 1
 77.3388671875 5.736328125 l 1
 65.3388671875 700.736328125 l 1
 65 721.28125 l 1
 85.001953125 716.57421875 l 1
 118.55078125 708.680664062 l 1
 198.094726562 694.760742188 l 1
 211.336914062 692.443359375 l 1
 211.336914062 690.020507812 l 1
 237.415887475 705.678710938 271.491288792 714 329.883954572 714 c 0
 402.977230989 714 465.276924391 704.243164062 498.567356907 666.830078125 c 1
 530.030038304 697.651367188 574.734483115 698 655.055970238 698 c 0
 794.739257812 698 832.336914062 682.405273438 832.336914062 485.96875 c 1
 842.333984375 6.318359375 l 1
 842.708007812 -12.4541015625 l 1
 824.11328125 -9.8447265625 l 1
 710.11328125 6.1552734375 l 1
 696.221679688 8.1044921875 l 1
EndSplineSet
Validated: 524321
EndChar

StartChar: n
Encoding: 110 110 79
Width: 635
VWidth: 1024
Flags: HW
LayerCount: 2
Fore
SplineSet
422.82421875 3.818359375 m 1
 423.026367188 17.47265625 l 1
 430.024414062 491.272460938 l 1
 430.024414062 505.383789062 l 2
 430.024414062 587.634765625 424.506835938 585 301.309932874 585 c 0
 246.47917603 585 220.22265625 580.541015625 210.9921875 573.305664062 c 1
 208.024414062 21.1787109375 l 1
 207.953125 7.833984375 l 1
 193.97265625 6.119140625 l 1
 87.97265625 -6.880859375 l 1
 70 -9.0849609375 l 1
 70.0244140625 9.021484375 l 1
 71.0244140625 712.021484375 l 1
 71.05078125 731.405273438 l 1
 90.078125 727.706054688 l 1
 198.078125 706.706054688 l 1
 211.024414062 704.188476562 l 1
 211.024414062 699.642578125 l 1
 248.706716084 711.096679688 300.663379935 714 371.383057279 714 c 0
 527.978515625 714 560.008789062 692.296875 561.024414062 495.936523438 c 2
 564.024414062 5.09375 l 1
 564.129882812 -13.0341796875 l 1
 546.129882812 -10.8876953125 l 1
 437.129882812 2.1123046875 l 1
 422.82421875 3.818359375 l 1
EndSplineSet
Validated: 524321
EndChar

StartChar: o
Encoding: 111 111 80
Width: 659
VWidth: 1024
Flags: HW
LayerCount: 2
Fore
SplineSet
327.083945435 -15 m 0
 68.1220703125 -15 61 48.0185546875 61 348 c 0
 61 695.500976562 102.166015625 711 327.083945435 711 c 0
 584.91796875 711 592 647.948242188 592 348 c 0
 592 0.580078125 551.883789062 -15 327.083945435 -15 c 0
199 348.030273438 m 0
 199 119.513671875 196.869140625 103 327.083945435 103 c 0
 443.2578125 103 454 87.859375 454 348.030273438 c 0
 454 577.567382812 456.041015625 594 327.083945435 594 c 0
 209.612304688 594 199 610.02734375 199 348.030273438 c 0
EndSplineSet
Validated: 524321
EndChar

StartChar: p
Encoding: 112 112 81
Width: 686
VWidth: 1024
Flags: HW
LayerCount: 2
Fore
SplineSet
69 -200.29296875 m 1
 69.048828125 -184.948242188 l 1
 72.048828125 717.051757812 l 1
 72.1162109375 737.875 l 1
 92.2197265625 732.447265625 l 1
 192.219726562 705.447265625 l 1
 204.048828125 702.252929688 l 1
 204.048828125 690 l 1
 204.048828125 679.625976562 l 1
 244.836814501 704.265625 300.521166054 706.403320312 378.410188528 710.961914062 c 0
 394.467206246 711.95703125 410.965190122 713 425.762304531 713 c 0
 573.079101562 713 599.192382812 633.379882812 615.022460938 361.377929688 c 0
 618.029296875 311.448242188 620.048828125 268.100585938 620.048828125 230.220703125 c 0
 620.048828125 29.7841796875 563.395507812 -15 379.685840629 -15 c 0
 305.710392811 -15 249.61882251 -15.5361328125 210.358398438 5.328125 c 1
 212.048828125 -189.861328125 l 1
 212.194335938 -206.743164062 l 1
 195.329101562 -205.983398438 l 1
 84.3291015625 -200.983398438 l 1
 69 -200.29296875 l 1
212.048828125 348.03125 m 0
 212.048828125 95.857421875 222.891601562 111 332.45746513 111 c 0
 456.204718254 111 478.048828125 122.151367188 478.048828125 238.416015625 c 0
 478.048828125 259.5546875 477.0703125 284.467773438 475.078125 312.456054688 c 0
 460.042923694 555.014648438 440.88789373 586 357.799520276 586 c 0
 353.425855929 586 344.903509969 585.16015625 336.576898988 585.061523438 c 0
 222.741210938 578.1953125 212.048828125 590.716796875 212.048828125 348.03125 c 0
EndSplineSet
Validated: 524321
EndChar

StartChar: q
Encoding: 113 113 82
Width: 689
VWidth: 1024
Flags: HW
LayerCount: 2
Fore
SplineSet
301.493998153 120 m 0
 458.87417673 120 475 137.423828125 475 333.349609375 c 0
 475 557.801757812 459.556766866 586 368.06278855 586 c 0
 362.256849463 586 352.682654158 585.146484375 343.476093606 585.063476562 c 0
 240.755805272 578.827148438 206 563.87890625 206 435.345703125 c 0
 206 410.403320312 206.975585938 381.98046875 209.948242188 349.524414062 c 0
 229.553032844 134.38671875 249.725869078 120 301.493998153 120 c 0
299.198522622 -15 m 0
 123.45703125 -15 75.017578125 58.0390625 61.021484375 347.20703125 c 0
 59.0185546875 380.778320312 58 411.874023438 58 439.946289062 c 0
 58 652.440429688 117.645507812 700.022460938 298.040697318 710.96875 c 0
 317.704673253 711.9765625 336.158144513 713 353.142197599 713 c 0
 403.969943877 713 444.726963765 706.665039062 475 687.478515625 c 1
 475 694.8046875 l 1
 488.655273438 696.827148438 l 1
 596.655273438 712.827148438 l 1
 615 715.544921875 l 1
 615 697 l 1
 615 -161 l 1
 615 -173.161132812 l 1
 603.282226562 -176.416015625 l 1
 495.282226562 -206.416015625 l 1
 475 -212.049804688 l 1
 475 -191 l 1
 475 19.955078125 l 1
 434.594591305 -8.5947265625 376.898351837 -15 299.198522622 -15 c 0
EndSplineSet
Validated: 524289
EndChar

StartChar: r
Encoding: 114 114 83
Width: 482
VWidth: 1024
Flags: HW
LayerCount: 2
Fore
SplineSet
426.052734375 704.125 m 1
 426.052734375 690 l 1
 426.052734375 592 l 1
 426.052734375 574.479492188 l 1
 408.604492188 576.065429688 l 2
 397.784179688 577.048828125 385.295898438 578 372.052734375 578 c 0
 298.03125 578 214.213867188 554.198242188 208.059570312 511.86328125 c 1
 212.051757812 14.12109375 l 1
 212.166992188 -0.998046875 l 1
 197.078125 -1.966796875 l 1
 88.078125 -8.966796875 l 1
 71.0986328125 -10.0576171875 l 1
 71.052734375 6.9560546875 l 1
 69.052734375 708.956054688 l 1
 69 728.27734375 l 1
 87.9921875 724.727539062 l 1
 194.9921875 704.727539062 l 1
 208.052734375 702.286132812 l 1
 208.052734375 689 l 1
 208.052734375 684.828125 l 1
 253.055664062 700.220703125 327.625 708 378.052734375 708 c 0
 391.870117188 708 403.543945312 706.938476562 412.037109375 705.875976562 c 2
 426.052734375 704.125 l 1
EndSplineSet
Validated: 524289
EndChar

StartChar: s
Encoding: 115 115 84
Width: 632
VWidth: 1024
Flags: HW
LayerCount: 2
Fore
SplineSet
58.8134765625 145.921875 m 1
 58.8134765625 146.79296875 l 2
 56.6298828125 161.815429688 55.833984375 174.881835938 53.9228515625 191.130859375 c 2
 52 207.473632812 l 1
 68.390625 208.936523438 l 1
 180.390625 218.936523438 l 1
 196.420898438 220.368164062 l 1
 197.7578125 204.329101562 l 2
 206.712474944 97.8154296875 195.31640625 105 302.617511384 105 c 0
 407.189165975 105 426.813476562 119.463867188 426.813476562 191.399414062 c 2
 426.813476562 212.287109375 l 2
 426.813476562 266.607421875 432.334960938 270.026367188 317.703333928 290.454101562 c 0
 120.04296875 324.159179688 88.8134765625 357.0625 88.8134765625 501.869140625 c 0
 88.8134765625 668.294921875 126.557617188 706 325.063960101 706 c 2
 354.598761045 706 l 2
 481.799804688 706 537.58984375 698.463867188 551.706054688 576.844726562 c 2
 551.813476562 575.92578125 l 1
 551.813476562 575 l 2
 551.813476562 543.055664062 555.809570312 528.3125 555.815429688 526.096679688 c 2
 555.853515625 513.719726562 l 1
 542.750976562 511.272460938 l 1
 451.750976562 494.272460938 l 1
 432.813476562 490.734375 l 1
 432.813476562 510 l 1
 432.813476562 519 l 2
 432.813476562 587.451171875 422.89453125 583 340.422056592 583 c 2
 322.701176026 583 l 2
 225.704736395 583 214.013108553 583.203125 214.013108553 506.166992188 c 0
 214.013108553 436.217773438 243.537526168 427.172851562 366.646883164 406.262695312 c 0
 549.120117188 373.619140625 568.813476562 341.798828125 568.813476562 233.932617188 c 2
 568.813476562 195.041992188 l 2
 568.813476562 27.9619140625 528.100585938 -7 321.519783988 -7 c 2
 277.808278591 -7 l 2
 125.63671875 -7 77.9892578125 4.228515625 58.9580078125 144.854492188 c 2
 58.8134765625 145.921875 l 1
EndSplineSet
Validated: 524321
EndChar

StartChar: t
Encoding: 116 116 85
Width: 451
VWidth: 1024
Flags: HW
LayerCount: 2
Fore
SplineSet
390 697 m 1
 390 681 l 1
 390 595.080078125 l 1
 390 579.283203125 l 1
 373.462890625 579.814453125 l 1
 271 583.102539062 l 1
 271 158.798828125 l 2
 270.799804688 158.798828125 272.396484375 119.216796875 272.8828125 111.720703125 c 1
 276.697265625 112.024414062 277.364257812 111.997070312 278.283203125 112.024414062 c 2
 371.474609375 120.54296875 l 1
 388.830078125 122.12890625 l 1
 388.999023438 105.485351562 l 1
 389.999023438 7.1552734375 l 1
 390.15625 -9 l 1
 374 -9 l 1
 229 -9 l 1
 195 -9 l 2
 176.20703125 -9 159.836914062 -9.9765625 147.350585938 2.2431640625 c 0
 125.26953125 22.8798828125 138.0546875 56.814453125 133.034179688 129.93359375 c 2
 133 130.432617188 l 1
 133 130.932617188 l 1
 133 586.974609375 l 1
 61.4482421875 589.331054688 l 1
 46 589.83984375 l 1
 46 604.6015625 l 1
 46 681 l 1
 46 697 l 1
 62 697 l 1
 133 697 l 1
 133 862 l 1
 133 876.69921875 l 1
 147.646484375 877.942382812 l 1
 253.646484375 886.942382812 l 1
 271 888.416015625 l 1
 271 871 l 1
 271 697 l 1
 374 697 l 1
 390 697 l 1
EndSplineSet
Validated: 524321
EndChar

StartChar: u
Encoding: 117 117 86
Width: 623
VWidth: 1024
Flags: HW
LayerCount: 2
Fore
SplineSet
300.541374474 122 m 0
 404.658203125 122 409 125.80078125 409 220.4609375 c 2
 409 677.735351562 l 1
 409 690.8046875 l 1
 422.655273438 692.827148438 l 1
 530.655273438 708.827148438 l 1
 548.973632812 711.541015625 l 1
 549 693.022460938 l 1
 550 11 l 1
 550 1 l 1
 550 -11.8212890625 l 1
 537.487304688 -14.615234375 l 1
 434.487304688 -37.615234375 l 1
 417.551757812 -41.3974609375 l 1
 415.153320312 -24.2109375 l 1
 411.323242188 3.23828125 l 1
 387.415463655 -12.5927734375 356.333061229 -15 295.643758766 -15 c 0
 89.3017578125 -15 67 6.3212890625 67 204.004882812 c 2
 68 685.032226562 l 1
 68.037109375 703.5390625 l 1
 86.3447265625 700.827148438 l 1
 194.344726562 684.827148438 l 1
 207.971679688 682.80859375 l 1
 208 669.776367188 l 1
 209 209.049804688 l 1
 209 163.625 l 2
 209 118.028320312 201.155273438 122 300.541374474 122 c 0
EndSplineSet
Validated: 524321
EndChar

StartChar: v
Encoding: 118 118 87
Width: 630
VWidth: 1024
Flags: HW
LayerCount: 2
Fore
SplineSet
43 700.366210938 m 1
 67.4853515625 696.8359375 l 1
 178.485351562 680.8359375 l 1
 188.875976562 679.338867188 l 1
 191.638671875 669.209960938 l 1
 337.653118586 202.7109375 l 1
 459.607421875 676.579101562 l 1
 462.220703125 687.963867188 l 1
 473.860351562 688.943359375 l 1
 568.860351562 696.943359375 l 1
 590.635742188 698.77734375 l 1
 585.806640625 678.390625 l 1
 421.856536624 -5.53515625 l 1
 418.021268276 -20.2001953125 l 1
 400.886569976 -17.7939453125 l 1
 272.746669481 0.2060546875 l 1
 261.18111452 1.8310546875 l 1
 257.948982141 11.5869140625 l 1
 49.8232421875 677.642578125 l 1
 43 700.366210938 l 1
EndSplineSet
Validated: 524289
EndChar

StartChar: w
Encoding: 119 119 88
Width: 870
VWidth: 1024
Flags: HW
LayerCount: 2
Fore
SplineSet
212.807834523 0.33984375 m 2
 199.374023438 13.587890625 l 1
 46 689.154296875 l 1
 179.171875 710.250976562 l 1
 277.131078161 200.170898438 l 1
 368.031692308 696.525390625 l 1
 486.309934543 700.462890625 l 1
 610.917097812 191.303710938 l 1
 707.467773438 723.921875 l 1
 826.078125 692.565429688 l 1
 670.295898438 0.6982421875 l 1
 658.106445312 0.0244140625 l 1
 658.106445312 0.0244140625 528.917141426 -19.6611328125 523.040652874 13.138671875 c 2
 433.030248402 436.0234375 l 1
 349.891602842 -13.5068359375 l 1
 333.859088962 -11.9091796875 l 2
 333.025440237 -11.826171875 217.408651539 -0.560546875 212.807834523 0.33984375 c 2
EndSplineSet
Validated: 524321
EndChar

StartChar: x
Encoding: 120 120 89
Width: 678
VWidth: 1024
Flags: HW
LayerCount: 2
Fore
SplineSet
518.538085938 726.977539062 m 1
 531.381835938 721.866210938 l 1
 629.381835938 682.866210938 l 1
 647.134765625 676.122070312 l 1
 637.061523438 660.623046875 l 1
 449.011419392 378.654296875 l 1
 635.768554688 32.154296875 l 1
 644.071289062 16.34765625 l 1
 626.479492188 10.8056640625 l 1
 526.479492188 -22.1943359375 l 1
 513.041992188 -26.62890625 l 1
 506.998046875 -13.8330078125 l 1
 361.079715835 264.80078125 l 1
 317.445801691 193.939453125 205.076696105 11.4130859375 200.989371634 4.6650390625 c 2
 195.553710938 -5.6015625 l 1
 184.01171875 -3.810546875 l 1
 68.01171875 14.189453125 l 1
 44 17.7490234375 l 1
 56.9111328125 37.416015625 l 1
 277.532218263 360.365234375 l 1
 87.4384765625 676.361328125 l 1
 74.4365234375 699 l 1
 101.465820312 699 l 1
 231.030275316 699 l 1
 242.271239239 699 l 1
 247.17800051 689.984375 l 1
 361.428086026 480.094726562 l 1
 511.616210938 715.012695312 l 1
 518.538085938 726.977539062 l 1
EndSplineSet
Validated: 524289
EndChar

StartChar: y
Encoding: 121 121 90
Width: 632
VWidth: 1024
Flags: HW
LayerCount: 2
Fore
SplineSet
44 685.8203125 m 1
 60.119140625 689.581054688 l 1
 180.119140625 717.581054688 l 1
 196.407226562 721.381835938 l 1
 199.680495551 704.94140625 l 1
 303.197935019 225.560546875 l 1
 427.867565724 708.491210938 l 1
 432.007361386 724.530273438 l 1
 448.6640625 720.514648438 l 1
 575.6640625 688.514648438 l 1
 591.583007812 684.50390625 l 1
 587.1640625 669.221679688 l 1
 306.677077017 -240.306640625 l 1
 302.244158568 -254.044921875 l 1
 285.982608286 -251.80078125 l 1
 161.23828125 -233.80078125 l 1
 142.3515625 -230.791992188 l 1
 148.646484375 -212.734375 l 1
 236.090855223 15.4775390625 l 1
 48.3056640625 670.387695312 l 1
 44 685.8203125 l 1
EndSplineSet
Validated: 524289
EndChar

StartChar: z
Encoding: 122 122 91
Width: 577
VWidth: 1024
Flags: HW
LayerCount: 2
Fore
SplineSet
83 697 m 1
 99 697 l 1
 487 697 l 1
 503 697 l 1
 503 681 l 1
 503 614.213867188 l 1
 503 610.42578125 l 1
 501.143554688 607.077148438 l 1
 198.04296875 118.001953125 l 1
 502.466796875 126.666015625 l 1
 519 127.19140625 l 1
 519 111.409179688 l 1
 519 16 l 1
 519 0 l 1
 503 0 l 1
 70 0 l 1
 54 0 l 1
 54 16 l 1
 54 82.7861328125 l 1
 54 86.1591796875 l 1
 55.4892578125 89.2177734375 l 1
 315.322213897 577.901367188 l 1
 99.654296875 570.338867188 l 1
 83 569.688476562 l 1
 83 585.590820312 l 1
 83 681 l 1
 83 697 l 1
EndSplineSet
Validated: 524289
EndChar

StartChar: braceleft
Encoding: 123 123 92
Width: 402
VWidth: 1024
Flags: HW
LayerCount: 2
Fore
SplineSet
341.206054688 1035 m 1
 339.958007812 1018.30664062 l 1
 331.958007812 911.302734375 l 1
 330.952148438 897.849609375 l 1
 317.120117188 896.905273438 l 1
 262.611328125 893.184570312 l 2
 253.157226562 888.850585938 248 879.020507812 248 839.474609375 c 0
 248 809.282226562 251 767.99609375 251 711.069335938 c 0
 251 578.684570312 253.241210938 569.698242188 254.619140625 563.66796875 c 2
 255.390625 560.291015625 l 1
 254.619140625 556.915039062 l 2
 251.419921875 542.909179688 261.034179688 487.025390625 228.553710938 453.8125 c 1
 258.125 436.025390625 259 410.149414062 259 374.493164062 c 2
 259 343.307617188 l 1
 257.005859375 79.443359375 l 1
 261.684570312 29.0166015625 255.646484375 13.576171875 277.728515625 11.6435546875 c 2
 340.25390625 10.677734375 l 1
 359.166015625 10.3857421875 l 1
 355.734375 -7.7080078125 l 1
 336.734375 -107.90234375 l 1
 334.103515625 -122.1640625 l 1
 319.65234375 -120.943359375 l 1
 248.76953125 -114.953125 l 2
 199.505859375 -111.616210938 126 -79.171875 126 43.1494140625 c 2
 122 316.944335938 l 2
 122 378.918945312 109.858398438 419 72 419 c 2
 62 419 l 1
 46 419 l 1
 46 435 l 1
 46 487 l 1
 46 503 l 1
 62 503 l 1
 72 503 l 2
 108.358398438 503 120 539.39453125 120 552.510742188 c 2
 120 575.810546875 l 2
 120 619.267578125 118.994140625 709.401367188 114.029296875 788.44140625 c 2
 114 788.9140625 l 1
 114 789.38671875 l 2
 114 842.420898438 112 882.946289062 112 915.590820312 c 0
 112 1008.8515625 137.622070312 1035 250 1035 c 2
 324 1035 l 1
 341.206054688 1035 l 1
EndSplineSet
Validated: 524289
EndChar

StartChar: bar
Encoding: 124 124 93
Width: 263
VWidth: 1024
Flags: HW
LayerCount: 2
Fore
SplineSet
80.2275390625 977 m 1
 190.227539062 991 l 1
 208.321289062 993.302734375 l 1
 208.247070312 990.869140625 l 1
 203.247070312 -234 l 1
 203.200195312 -230.459960938 l 1
 192.114257812 -234 l 1
 73.1142578125 -272 l 1
 52 -278.7421875 l 1
 52.248046875 -271.641601562 l 1
 66.248046875 977 l 1
 66.404296875 975.241210938 l 1
 80.2275390625 977 l 1
EndSplineSet
Validated: 524289
EndChar

StartChar: braceright
Encoding: 125 125 94
Width: 452
VWidth: 1024
Flags: HW
LayerCount: 2
Fore
SplineSet
48 1009 m 1
 65.291015625 1009 l 1
 154.291015625 1009 l 2
 294.74609375 1009 290.418945312 887.953125 292.27734375 790.84375 c 1
 313.23046875 558.829101562 l 1
 313.291015625 558.154296875 l 1
 313.291015625 557.477539062 l 2
 313.291015625 501.831054688 308.435546875 510 377.291015625 510 c 2
 389.291015625 510 l 1
 405.291015625 510 l 1
 405.291015625 494 l 1
 405.291015625 428 l 1
 405.291015625 412 l 1
 389.291015625 412 l 1
 377.291015625 412 l 2
 321.918945312 412 311.627929688 394.321289062 304.27734375 353.422851562 c 1
 301.291015625 62.8984375 l 2
 301.291015625 -69.60546875 222.91796875 -86.9404296875 156.723632812 -96.8134765625 c 2
 155.514648438 -97 l 1
 154.291015625 -97 l 1
 65.291015625 -97 l 1
 48.935546875 -97 l 1
 49.294921875 -80.6484375 l 1
 51.294921875 10.3515625 l 1
 51.6337890625 25.794921875 l 1
 67.080078125 25.9990234375 l 1
 143.080078125 26.9990234375 l 1
 145.520507812 27.0302734375 l 1
 147.858398438 26.333984375 l 2
 147.885742188 26.326171875 149.131835938 26 151.291015625 26 c 0
 162.446289062 26 182.7890625 27.46484375 183.291015625 66.9931640625 c 2
 159.357421875 342.23828125 l 2
 158.284179688 352.640625 158.291015625 363.084960938 158.291015625 370.776367188 c 0
 158.291015625 415.068359375 172.084960938 440.493164062 206.1328125 455.65234375 c 1
 167.014648438 479.63671875 166.291015625 518.999023438 166.291015625 577.841796875 c 2
 161.291015625 777.346679688 l 2
 161.291015625 850.897460938 154.056640625 889.291015625 128.0625 890.807617188 c 1
 77.1025390625 878.702148438 l 1
 58.798828125 874.354492188 l 1
 57.3388671875 892.551757812 l 1
 49.3388671875 992.3046875 l 1
 48 1009 l 1
EndSplineSet
Validated: 524321
EndChar

StartChar: asciitilde
Encoding: 126 126 95
Width: 641
VWidth: 1024
Flags: HW
LayerCount: 2
Fore
SplineSet
185 360.885742188 m 1
 171.541992188 359.588867188 l 1
 84.5419921875 351.203125 l 1
 66 348.219726562 l 1
 66 363.915039062 l 2
 66 481.469726562 89.3564453125 511 209 511 c 0
 402.235314711 511 341.011368662 444 435 444 c 0
 445.7890625 444 453 442.959960938 453 483.614257812 c 2
 453 493.092773438 l 1
 468.297851562 493.508789062 l 1
 559.297851562 495.984375 l 1
 576 496.71875 l 1
 576 482.776367188 l 2
 576 365.028320312 549.349609375 336 430 336 c 0
 236.197486733 336 305.100254275 399 212 399 c 0
 192.866210938 399 185 403.877929688 185 369.05078125 c 2
 185 360.885742188 l 1
EndSplineSet
Validated: 524321
EndChar

StartChar: exclamdown
Encoding: 161 161 96
Width: 297
VWidth: 1024
Flags: HW
LayerCount: 2
Fore
SplineSet
221.653320312 -181.645507812 m 1
 204.408203125 -179.920898438 l 1
 84.408203125 -167.920898438 l 1
 70 -166.479492188 l 1
 70 -152 l 1
 70 226 l 1
 70 226.465820312 l 1
 70.02734375 226.931640625 l 1
 90.02734375 569.931640625 l 1
 90.8642578125 584.2890625 l 1
 105.229492188 584.981445312 l 1
 188.229492188 588.981445312 l 1
 203.7890625 589.731445312 l 1
 204.955078125 574.198242188 l 1
 229.955078125 241.198242188 l 1
 230.01171875 240.44140625 l 1
 229.997070312 239.68359375 l 1
 221.997070312 -164.31640625 l 1
 221.653320312 -181.645507812 l 1
70.453125 613.453125 m 1
 71.0087890625 630.520507812 l 1
 75.0087890625 753.520507812 l 1
 75.51171875 769 l 1
 91 769 l 1
 210 769 l 1
 226 769 l 1
 226 753 l 1
 226 634 l 1
 226 618.51171875 l 1
 210.520507812 618.008789062 l 1
 87.5205078125 614.008789062 l 1
 70.453125 613.453125 l 1
EndSplineSet
Validated: 524289
EndChar

StartChar: cent
Encoding: 162 162 97
Width: 663
VWidth: 1024
Flags: HW
LayerCount: 2
Fore
SplineSet
687 319 m 1049
480 507 m 0
 481 505 598 515 598 515 c 1
 595 569 l 1
 560 698 557 722 398 727 c 1
 398 787 l 1
 265 793 l 1
 263 732 l 1
 82 728 63 676 63 348 c 0
 63 20 97 -27 279 -31 c 1
 279 -90 l 1
 416 -95 l 1
 402 -29 l 1
 551 -13 576 19 607 130 c 0
 611.337890625 143.440429688 l 1
 483.450195312 195.139648438 l 1
 479 163 l 0
 474.947265625 99.791015625 460.799804688 103.772460938 398.085482408 99.130859375 c 1
 398.085482408 604.959960938 l 1
 474.103515625 603.366210938 472.934570312 571.206054688 480.134765625 506.609375 c 1024
173 349 m 4
 173 133.504882812 223.53154165 105.759765625 278.702992704 99.365234375 c 1
 262.507440454 606.618164062 l 1
 211.690429688 600.002929688 173 571.137695312 173 349 c 4
EndSplineSet
Validated: 524331
EndChar

StartChar: sterling
Encoding: 163 163 98
Width: 682
VWidth: 1024
Flags: HW
LayerCount: 2
Fore
SplineSet
78.6201171875 532.515625 m 1
 78.6201171875 532.515625 101.631835938 532.532226562 134.86328125 533.033203125 c 1
 103.026367188 593.384765625 74.5478515625 643.392578125 73.6240234375 740.405273438 c 2
 73.615234375 741.333007812 l 1
 73.7197265625 742.254882812 l 2
 103.842773438 1007.82519531 226.707653358 960.569335938 354.668594395 968.954101562 c 2
 355.355932628 969 l 1
 356.045480951 969 l 2
 358.589295439 969 365.812977154 970.6484375 375.610309583 969.948242188 c 0
 522.053710938 959.098632812 635.623046875 890.755859375 635.623046875 865 c 2
 635.623046875 859.259765625 l 1
 631.97265625 854.827148438 l 2
 629.291015625 851.5703125 625.59375 847.483398438 551.80078125 786.654296875 c 2
 542.6328125 779.096679688 l 1
 532.748046875 785.6875 l 2
 504.291992188 804.657226562 475.2301515 836 360.571746869 836 c 2
 346.074656396 836 l 2
 251.394367373 834.102539062 217.994370458 837.052734375 217.994370458 738.6640625 c 2
 217.994370458 728.063476562 l 2
 217.994370458 635.537109375 256.488626621 617.793945312 304.706177173 535.145507812 c 1
 365.808556973 538 530.056640625 536.290039062 530.797851562 536.282226562 c 2
 543.334960938 536.150390625 l 1
 546.200195312 524.38671875 l 1
 569.200195312 429.942382812 l 1
 573.8125 411 l 1
 553.623046875 411 l 1
 353.160207438 411 l 1
 355.138238686 397.388671875 356.347158343 383.802734375 356.04327086 368.348632812 c 0
 353.002185947 213.891601562 329.643736491 166.822265625 301.838584386 110.724609375 c 1
 583.3984375 114.25 l 1
 596.388671875 114.424804688 l 1
 599.234375 102.211914062 l 1
 621.234375 7.7919921875 l 1
 625.61328125 -11 l 1
 605.623046875 -11 l 1
 102.623046875 -11 l 1
 78.8837890625 -11 l 1
 87.79296875 10.2001953125 l 1
 87.79296875 10.2001953125 97.7646484375 33.9072265625 107.508789062 56.443359375 c 1
 106.508789062 56.443359375 107.147460938 56.443359375 106.147460938 56.443359375 c 2
 114.731445312 77.4951171875 l 2
 159.595703125 187.524414062 159.608398438 144.86328125 186.724609375 376.118164062 c 0
 188.1484375 388.264648438 186.94921875 400.006835938 184.810546875 411 c 1
 69.623046875 411 l 1
 52 411 l 1
 53.697265625 428.051757812 l 1
 62.697265625 518.459960938 l 1
 64.0966796875 532.512695312 l 1
 78.6201171875 532.515625 l 1
EndSplineSet
Validated: 524321
EndChar

StartChar: currency
Encoding: 164 164 99
Width: 848
VWidth: 1024
Flags: HW
LayerCount: 2
Fore
SplineSet
51 364.676757812 m 1
 52.107421875 376.685546875 l 1
 57.107421875 430.921875 l 1
 58.29296875 443.783203125 l 1
 71.568359375 444.973632812 l 1
 111.043945312 448.513671875 l 1
 111.043945312 463.44140625 l 1
 111.043945312 477 l 1
 77.0439453125 477 l 1
 58.5537109375 477 l 1
 61.2099609375 494.680664062 l 1
 70.2099609375 554.587890625 l 1
 72.107421875 567.217773438 l 1
 85.2998046875 567.810546875 l 1
 113.590820312 569.08203125 l 1
 126.27734375 852.208984375 250.803396065 931.078125 481.112351118 935 c 1
 503.759194471 935 l 2
 734.09765625 935 777.537109375 868.84765625 792.125976562 842.331054688 c 1
 843.994140625 837.616210938 l 1
 790.875976562 812.532226562 l 2
 760.955078125 798.403320312 721.05078125 744.682617188 721.05078125 744.682617188 c 1
 707.775390625 726.1484375 l 1
 694.859375 744.935546875 l 2
 673.117515019 774.958007812 650.189402869 816 503.759194471 816 c 0
 490.765412563 816 477.743399214 816.006835938 464.156757055 815.073242188 c 0
 347.295322985 809.858398438 267.428577713 759.74609375 256.076401791 567.466796875 c 1
 535.941991071 566.567382812 l 1
 557.465850456 566.499023438 l 1
 552.560899066 547.791992188 l 1
 540.783160318 502.875976562 l 1
 537.874276334 491.782226562 l 1
 525.132486173 491.096679688 l 1
 272.067944441 477.490234375 l 1
 269.806292371 470.24609375 268.204419523 465.649414062 268.204419523 463.354492188 c 0
 268.204419523 461.3203125 269.905625218 455.9375 271.943516981 449.62109375 c 1
 526.720766105 443.279296875 l 1
 538.782910476 442.979492188 l 1
 542.528281587 432.741210938 l 1
 559.659537947 385.912109375 l 1
 566.578332095 367.001953125 l 1
 544.325683301 365.8984375 l 1
 252.692811363 351.4375 l 1
 260.105132917 228.09375 332.453950135 126 485.557234588 126 c 0
 656.705637588 126 637.737246376 153.356445312 649.418789103 165.629882812 c 2
 657.397830686 174.012695312 l 1
 668.55552335 169.866210938 l 1
 762.958007812 132.866210938 l 1
 802.014648438 117.328125 l 1
 767.047851562 104.612304688 l 1
 753.799804688 76.2548828125 714.802734375 -15 481.274420499 -15 c 0
 189.953125 -15 149.021484375 124.282226562 110.82421875 344.346679688 c 1
 62.74609375 360.684570312 l 1
 51 364.676757812 l 1
EndSplineSet
Validated: 524289
EndChar

StartChar: yen
Encoding: 165 165 100
Width: 763
VWidth: 1024
Flags: HW
LayerCount: 2
Fore
SplineSet
576.96484375 953.86328125 m 1
 589.875976562 950.4765625 l 1
 711.875976562 919.20703125 l 1
 731.040039062 914.295898438 l 1
 722.091796875 897.022460938 l 1
 469.962846976 427.986328125 l 2
 464.309025555 418.005859375 470.348310533 389.509765625 470.519153106 377.874023438 c 1
 594.328125 381.297851562 l 1
 610.81640625 381.7890625 l 1
 610.81640625 365.669921875 l 1
 610.81640625 281.634765625 l 1
 610.81640625 266 l 1
 594.81640625 266 l 1
 470.755129411 266 l 1
 470.755129411 255.974609375 l 1
 589.435546875 258.440429688 l 1
 604.037109375 258.768554688 l 1
 605.7109375 245.064453125 l 1
 614.7109375 171.396484375 l 1
 616.802734375 154.2734375 l 1
 598.555664062 154.5546875 l 1
 598.555664062 154.5546875 541.271469445 155.366210938 470.858702721 155.482421875 c 1
 471.848521882 10.138671875 l 1
 471.958501789 -6.1181640625 l 1
 453.180767415 -4.9638671875 l 1
 323.067063335 3.0361328125 l 1
 306.745190956 4.0400390625 l 1
 306.746258723 18.1396484375 l 2
 306.746258723 18.1533203125 306.755868617 80.57421875 307.651724363 157.634765625 c 1
 233.649128061 157.774414062 183.65625 158.546875 182.55078125 158.564453125 c 2
 166.81640625 158.810546875 l 1
 166.81640625 173.640625 l 1
 166.81640625 235.841796875 l 1
 166.81640625 250.58203125 l 1
 182.453125 250.916992188 l 1
 307.839651194 253.409179688 l 1
 307.839651194 266 l 1
 182.81640625 266 l 1
 165.927734375 266 l 1
 166.83984375 282.474609375 l 1
 170.83984375 354.767578125 l 1
 171.6328125 369.102539062 l 1
 186.3203125 369.547851562 l 1
 308.933043665 372.985351562 l 1
 308.933043665 430.348632812 l 1
 57.53515625 898.84375 l 1
 48 917.283203125 l 1
 68.7548828125 921.235351562 l 1
 186.754882812 943.704101562 l 1
 198.9921875 946.08984375 l 1
 204.491639572 934.807617188 l 1
 386.508385288 580.71484375 l 1
 570.802676063 941.768554688 l 1
 576.96484375 953.86328125 l 1
EndSplineSet
Validated: 524321
EndChar

StartChar: brokenbar
Encoding: 166 166 101
Width: 258
VWidth: 1024
Flags: HW
LayerCount: 2
Fore
SplineSet
96.76171875 473.928710938 m 1
 170.76171875 480.928710938 l 1
 188.400390625 482.59765625 l 1
 188.268554688 464.880859375 l 1
 184.268554688 -73 l 1
 184.16015625 -71.7314453125 l 1
 169.663085938 -73 l 1
 89.6630859375 -80 l 1
 71.9404296875 -81.55078125 l 1
 72.271484375 -79.4052734375 l 1
 82.271484375 458.296875 l 1
 82.537109375 472.583007812 l 1
 96.76171875 473.928710938 l 1
87.9013671875 1042 m 1
 165.901367188 1034 l 1
 180.157226562 1032.53808594 l 1
 180.268554688 1034 l 1
 184.268554688 518.124023438 l 1
 184.380859375 503.6484375 l 1
 169.98828125 502.092773438 l 1
 95.98828125 494.092773438 l 1
 78.5341796875 492.206054688 l 1
 78.2705078125 509.759765625 l 1
 70.2705078125 1041.51855469 l 1
 70 1043.8359375 l 1
 87.9013671875 1042 l 1
EndSplineSet
Validated: 524289
EndChar

StartChar: section
Encoding: 167 167 102
Width: 722
VWidth: 1024
Flags: HW
LayerCount: 2
Fore
SplineSet
304.399351347 422.48046875 m 2
 317.937386516 403.178710938 341.099570551 390.834960938 367.457747993 390.034179688 c 1
 417.572152141 404.310546875 431.706422018 429.958007812 431.706422018 454 c 0
 431.706422018 487.978515625 400.878676295 519.2890625 369.748429138 520 c 2
 365.489296636 520 l 2
 305.490986955 520 290.293577982 488.532226562 290.293577982 460 c 0
 290.293577982 443.983398438 298.034765028 428.596679688 300.05582533 426.7265625 c 2
 302.623799455 425.009765625 l 1
 304.399351347 422.48046875 l 2
96.3896484375 188.991210938 m 1
 113.28125 183.412109375 l 2
 261.450723911 136.173828125 289.449642823 131.368164062 426.112337538 128.530273438 c 0
 513.37890625 130.341796875 512 134.40625 512 252.2734375 c 0
 512 293.983398438 509.88671875 318.32421875 501.87689041 332.490234375 c 1
 467.290893181 296.885742188 417.46803027 274 361 274 c 0
 264.532731269 274 189.520507812 339.697265625 178.154296875 421.522460938 c 1
 67.958984375 458.732421875 60 519.592773438 60 680.254882812 c 0
 60 896.985351562 103.502929688 941 332.941896024 941 c 2
 368.856269113 941 l 2
 419.70719849 941 494.25516951 936.594726562 625.73828125 896.282226562 c 2
 643.530273438 890.765625 l 1
 635.392578125 874.009765625 l 1
 584.392578125 769.009765625 l 1
 578.283203125 756.431640625 l 1
 565 760.80078125 l 2
 485.078196674 786.276367188 468.701470518 799 332.941896024 799 c 0
 214.959760847 799 204 788.341796875 204 639.73046875 c 0
 204 598.629882812 207.280273438 580.109375 219.94884246 567.627929688 c 1
 256.048442876 604.73828125 305.486602877 626 361 626 c 0
 452.495723433 626 525.791992188 566.810546875 542.043945312 489.278320312 c 1
 652.15625 459.162109375 662 411.631835938 662 270.110351562 c 0
 662 51.244140625 639.287109375 6.0029296875 385.757988699 0.998046875 c 1
 148.5703125 3.8779296875 78.13671875 55.072265625 73.3603515625 58.63671875 c 2
 66.1494140625 64.017578125 l 1
 68.40234375 73.326171875 l 1
 92.40234375 172.512695312 l 1
 96.3896484375 188.991210938 l 1
EndSplineSet
Validated: 524321
EndChar

StartChar: dieresis
Encoding: 168 168 103
Width: 488
VWidth: 1024
Flags: HW
LayerCount: 2
Fore
SplineSet
81 1077.65136719 m 1
 98.56640625 1075.92285156 l 1
 220.56640625 1063.92285156 l 1
 234.364257812 1062.56640625 l 1
 234.984375 1048.71582031 l 1
 239 959.024414062 l 1
 239 1048 l 1
 239 1064 l 1
 255 1064 l 1
 391 1064 l 1
 407 1064 l 1
 407 1051.36816406 l 1
 407 944 l 1
 407 896 l 1
 391 896 l 1
 255 896 l 1
 239 896 l 1
 239 930 l 1
 225 898 l 1
 97 898 l 1
 81 898 l 1
 81 914 l 1
 81 1060 l 1
 81 1077.65136719 l 1
EndSplineSet
Validated: 524289
EndChar

StartChar: copyright
Encoding: 169 169 104
Width: 932
VWidth: 1024
Flags: HW
LayerCount: 2
Fore
SplineSet
535.616649327 282.96484375 m 1
 554.431931794 279.739257812 l 1
 641.926069148 264.739257812 l 1
 657.055819462 262.145507812 l 1
 655.876282454 247.772460938 l 2
 645.777278319 124.737304688 609.760761817 98 463.86599665 98 c 0
 306.122719718 98 272.872696817 113.232421875 272.872696817 368 c 0
 272.872696817 590.1953125 297.524186689 630 424.386934673 630 c 0
 437.242012471 630 449.587555289 629 463.982699958 629 c 0
 622.876338071 626.959960938 654.859296482 600.361328125 654.859296482 488 c 0
 654.859296482 469.420898438 653.792294807 448.546875 653.792294807 426 c 2
 653.792294807 407.756835938 l 1
 634.493527206 410.13671875 l 1
 553.401399903 420.13671875 l 1
 538.556113903 421.967773438 l 1
 538.556113903 436 l 1
 538.556113903 472 l 2
 538.556113903 533.828125 543.018973448 534.059570312 463.757629292 535 c 2
 448.927973199 535 l 2
 402.295623626 535 394.510887772 542.374023438 394.510887772 368 c 0
 394.510887772 178.32421875 400.228307881 195 463.86599665 195 c 0
 528.018430368 195 529.275074919 195 534.326660974 265.079101562 c 2
 535.616649327 282.96484375 l 1
448.927973199 664 m 0
 280.71161635 664 152 530.012695312 152 366.154296875 c 0
 152 204.372070312 293.530224364 74 462.798994975 74 c 0
 630.503732857 74 767 205.76171875 767 368.051757812 c 0
 767 529.587890625 617.163085938 664 448.927973199 664 c 0
57 368 m 0
 57 585.412109375 234.012579172 762 466 762 c 0
 697.987420828 762 875 585.412109375 875 368 c 0
 875 150.587890625 697.987420828 -26 466 -26 c 0
 234.012579172 -26 57 150.587890625 57 368 c 0
EndSplineSet
Validated: 524321
EndChar

StartChar: ordfeminine
Encoding: 170 170 105
Width: 666
VWidth: 1024
Flags: HW
LayerCount: 2
Fore
SplineSet
469.989257812 174.849609375 m 1
 469.098632812 293.9453125 l 1
 439.363565466 297.071289062 366.224981118 303.697265625 308.737811163 307.178710938 c 0
 290.290164944 308.100585938 275.220448412 309 262.412890232 309 c 0
 205.974609375 309 198.16796875 300.704101562 190.001953125 172.151367188 c 0
 189.875 163.06640625 189 158.373046875 189 153.053710938 c 0
 189 106.864257812 200.215820312 102 238.029204431 102 c 0
 261.851602821 102 289.097287458 104.666015625 325.019681717 108.372070312 c 0
 411.710805718 117.612304688 461.231445312 137.170898438 469.989257812 174.849609375 c 1
68.7216796875 533.689453125 m 1
 71.25 547.818359375 l 2
 88.8564453125 646.208007812 119.810546875 707 274.024169184 707 c 0
 292.32213876 707 311.03625476 705.9765625 330.937578676 704.967773438 c 0
 539.75390625 692.345703125 572.607421875 682.622070312 589.94921875 471.721679688 c 0
 599.008789062 364.771484375 601 240.043945312 601 145.077148438 c 0
 601 54.8935546875 598.99609375 -9.3720703125 598.993164062 -9.4755859375 c 2
 598.471679688 -27.0244140625 l 1
 581.045898438 -24.8798828125 l 2
 516.645507812 -16.9541015625 510.016601562 -19.072265625 495.501953125 -12.62109375 c 2
 495.169921875 -12.4736328125 l 1
 494.844726562 -12.310546875 l 2
 481.057617188 -5.4169921875 480.828125 9.09375 480.28125 16.53125 c 1
 437.667230182 -11.8818359375 370.576942897 -10.9560546875 259.979510873 -21.88671875 c 0
 240.12467743 -24.0244140625 220.564661616 -24 206 -24 c 0
 111.765625 -24 62 20.51171875 62 162.154296875 c 0
 62 392.422851562 102.296875 419.333984375 252.585257938 423.333007812 c 2
 253.160152316 423.346679688 l 1
 253.735046694 423.331054688 l 2
 373.080624921 420.120117188 440.008762509 417.309570312 466.75 415.875 c 1
 457.190429688 554.732421875 475.46875 576.46484375 329.50431143 578.15234375 c 2
 328.788811721 578.16015625 l 1
 328.076713754 578.212890625 l 2
 302.772289818 580.094726562 284.732852625 581 269.379657603 581 c 0
 216.398661726 581 209.944335938 573.877929688 194.4921875 514.001953125 c 2
 190.360351562 497.991210938 l 1
 174.494140625 502.647460938 l 1
 82.494140625 529.647460938 l 1
 68.7216796875 533.689453125 l 1
EndSplineSet
Validated: 524325
EndChar

StartChar: guillemotleft
Encoding: 171 171 106
Width: 603
VWidth: 1024
Flags: HW
LayerCount: 2
Fore
SplineSet
239.6375341 648 m 1
 338.940373459 630 l 1
 363.31041562 625.583007812 l 1
 351.907039865 615.3671875 l 1
 187.69140625 348.557617188 l 1
 363.305742105 103.33984375 l 1
 375.486089671 93.2265625 l 1
 352.825385494 87 l 1
 265.486743649 63 l 1
 251.188125566 59.0703125 l 1
 243.246655791 63 l 1
 60.8212890625 339.55859375 l 1
 56 347.322265625 l 1
 60.2373046875 355.418945312 l 1
 218.619570324 648 l 1
 225.383314406 650.583984375 l 1
 239.6375341 648 l 1
454.043945312 656 m 1
 540.043945312 630 l 1
 559.31640625 624.172851562 l 1
 549.287109375 614.059570312 l 1
 389.194676528 347.901367188 l 1
 531.372070312 106.641601562 l 1
 541.057617188 96.8271484375 l 1
 522.119140625 91 l 1
 444.119140625 67 l 1
 431.330078125 63.0654296875 l 1
 425.1953125 67 l 1
 255.658342332 340.663085938 l 1
 251.18462043 347.909179688 l 1
 255.569545554 355.192382812 l 1
 435.12109375 656 l 1
 441.16796875 659.892578125 l 1
 454.043945312 656 l 1
EndSplineSet
Validated: 524289
EndChar

StartChar: logicalnot
Encoding: 172 172 107
Width: 640
VWidth: 1024
Flags: HW
LayerCount: 2
Fore
SplineSet
564.291015625 125.331054688 m 1
 547.333984375 127.084960938 l 1
 431.333984375 139.084960938 l 1
 416.151478023 140.569335938 l 1
 416.151478023 153.24609375 l 1
 416.151478023 260.05859375 l 1
 82.3251953125 237.625976562 l 1
 63 236.193359375 l 1
 65.0712890625 253.1328125 l 1
 78.0712890625 359.424804688 l 1
 79.587890625 371.819335938 l 1
 93.7783203125 371.999023438 l 1
 442.603515625 375.99609375 l 1
 558.428710938 379.990234375 l 1
 575.642578125 380.583984375 l 1
 574.967773438 365.411132812 l 1
 570.967773438 275.483398438 l 1
 564.967773438 142.364257812 l 1
 564.291015625 125.331054688 l 1
EndSplineSet
Validated: 524289
EndChar

StartChar: registered
Encoding: 174 174 109
Width: 932
VWidth: 1024
Flags: HW
LayerCount: 2
Fore
SplineSet
57 366 m 0
 57 583.412109375 234.012579172 760 466 760 c 0
 697.987420828 760 875 583.412109375 875 366 c 0
 875 148.587890625 697.987420828 -28 466 -28 c 0
 234.012579172 -28 57 148.587890625 57 366 c 0
406.247906198 533.002929688 m 1
 406.247906198 385 l 1
 473.469011725 385 l 2
 541.395547071 385 535.355108878 376.15625 535.355108878 463 c 0
 535.355108878 549.981445312 538.749924754 537 501.211055276 537 c 0
 459.431270938 537 433.576278201 534.7890625 406.247906198 533.002929688 c 1
652.294949683 176.43359375 m 1
 652.99725352 175.372070312 l 1
 678.51776624 151.455078125 l 1
 639.527399367 150.012695312 l 1
 558.435272063 147.012695312 l 1
 547.362003703 146.602539062 l 1
 542.45525479 155.915039062 l 1
 461.792428942 309 l 1
 406.247906198 309 l 1
 406.247906198 162 l 1
 406.247906198 145.000976562 l 1
 388.143263518 146.029296875 l 1
 352.674835767 148.043945312 l 1
 317.208492004 151.065429688 l 1
 301.681742044 152.388671875 l 1
 301.681742044 167 l 1
 301.681742044 169 l 1
 301.681742044 589 l 1
 301.681742044 591 l 1
 301.681742044 607 l 1
 318.753768844 607 l 1
 336.89279732 607 l 1
 353.964824121 607 l 1
 389.175879397 607 l 1
 471.335008375 607 l 2
 618.817772129 607 639.921273032 590.108398438 639.921273032 463 c 0
 639.921273032 368.702148438 634.369529941 323.94140625 562.075998482 312.755859375 c 1
 652.294949683 176.43359375 l 1
451.061976549 662 m 0
 282.8456197 662 154 528.012695312 154 364.154296875 c 0
 154 202.372070312 295.664227714 72 464.932998325 72 c 0
 632.637736207 72 769 203.76171875 769 366.051757812 c 0
 769 527.587890625 619.297089288 662 451.061976549 662 c 0
EndSplineSet
Validated: 524325
EndChar

StartChar: macron
Encoding: 175 175 110
Width: 655
VWidth: 1024
Flags: HW
LayerCount: 2
Fore
SplineSet
80 1126 m 1
 97.9931640625 1126 l 1
 559.993164062 1126 l 1
 575.993164062 1126 l 1
 575.993164062 1110 l 1
 575.993164062 1014 l 1
 575.993164062 996.973632812 l 1
 558.999023438 998.03125 l 1
 108.999023438 1018.83007812 l 1
 95.6630859375 1019.49316406 l 1
 94.1025390625 1030.109375 l 1
 82.1025390625 1111.70507812 l 1
 80 1126 l 1
EndSplineSet
Validated: 524289
EndChar

StartChar: degree
Encoding: 176 176 111
Width: 410
VWidth: 1024
Flags: HW
LayerCount: 2
Fore
SplineSet
63 747.516601562 m 1
 63 748 l 1
 63 760.705078125 l 2
 63 817.807617188 92.09765625 905 204 905 c 0
 340.21875 905 337.387695312 808.90234375 342.899414062 749.686523438 c 0
 344.177734375 740.737304688 344 735.452148438 344 728.942382812 c 0
 344 666.474609375 312.6484375 591 204 591 c 0
 66.2353515625 591 66.8125 695.620117188 63.03515625 747.034179688 c 2
 63 747.516601562 l 1
149.912109375 742.610351562 m 2
 158.092773438 679.96875 152.142578125 680 200 680 c 0
 248.62890625 680 251.052734375 683.359375 253 741.434570312 c 2
 253 746.096679688 l 2
 253 795.399414062 228.098632812 813 213 813 c 0
 209.8515625 813 209.059570312 812.85546875 209.059570312 812.85546875 c 1
 208.250976562 812.638671875 l 1
 207.418945312 812.4921875 l 2
 178.412109375 807.376953125 149 797.162109375 149 755.76953125 c 0
 149 750.921875 149.067382812 746.838867188 149.782226562 743.380859375 c 2
 149.861328125 742.997070312 l 1
 149.912109375 742.610351562 l 2
EndSplineSet
Validated: 524321
EndChar

StartChar: plusminus
Encoding: 177 177 112
Width: 742
VWidth: 1024
Flags: HW
LayerCount: 2
Fore
SplineSet
202 25.3486328125 m 1
 202 41 l 1
 202 92 l 1
 202 106.650390625 l 1
 217.62109108 107.938476562 l 1
 519.36818609 131.938476562 l 1
 538 133.473632812 l 1
 538 116 l 1
 538 35 l 1
 538 18.6435546875 l 1
 520.537135408 19.00390625 l 1
 218.790040398 25.00390625 l 1
 202 25.3486328125 l 1
317.918892579 125.666992188 m 1
 312.720914057 350.556640625 l 1
 68.421875 359.010742188 l 1
 53 359.567382812 l 1
 53 375 l 1
 53 433 l 1
 53 448.490234375 l 1
 68.482421875 448.991210938 l 1
 309.71024663 456.477539062 l 1
 303.498239784 678.596679688 l 1
 303.039976984 695 l 1
 321.242652085 695 l 1
 416.647983595 695 l 1
 434.778073335 695 l 1
 434.393479259 678.661132812 l 1
 429.237751917 459.266601562 l 1
 669.741210938 462.998046875 l 1
 686 463.260742188 l 1
 686 447 l 1
 686 355 l 1
 686 338.477539062 l 1
 669.486328125 339.0078125 l 1
 426.249835126 346.48828125 l 1
 421.081107421 125.662109375 l 1
 420.714930526 110 l 1
 403.335611757 110 l 1
 335.664388243 110 l 1
 318.28073602 110 l 1
 317.918892579 125.666992188 l 1
EndSplineSet
Validated: 524293
EndChar

StartChar: Superscripttwo
Encoding: 178 178 113
Width: 366
VWidth: 1024
Flags: HW
LayerCount: 2
Fore
SplineSet
62 508 m 1
 62 524 l 1
 62 547.28125 l 2
 62 632.389648438 75.0283203125 630.181640625 136.103515625 666.639648438 c 0
 209.57421875 710.798828125 213 717.248046875 213 747.856445312 c 0
 213 802.400390625 213.645507812 798 181 798 c 0
 143.296875 798 148 801.798828125 148 769 c 0
 148 759.310546875 156.928710938 724 129 724 c 2
 122.373046875 724 l 1
 117.821289062 728.551757812 l 1
 72.5869140625 748.341796875 l 1
 63 752.536132812 l 1
 63 763 l 1
 63 769 l 2
 63 847.358398438 89.8193359375 867 180 867 c 0
 273.34375 867 297 842.420898438 297 747.498046875 c 0
 295.915039062 695.698242188 280.916015625 674.541992188 218.97265625 636.315429688 c 0
 158.74609375 598.572265625 155.171875 605.543945312 152.671875 576.634765625 c 1
 270.239257812 575.024414062 l 1
 280.752929688 574.879882812 l 1
 284.780273438 565.961914062 l 1
 301.780273438 528.317382812 l 1
 310.955078125 508 l 1
 287 508 l 1
 136 508 l 1
 78 508 l 1
 62 508 l 1
EndSplineSet
Validated: 524321
EndChar

StartChar: Superscriptthree
Encoding: 179 179 114
Width: 384
VWidth: 1024
Flags: HW
LayerCount: 2
Fore
SplineSet
60.79296875 648.995117188 m 1
 79.15234375 647.975585938 l 1
 133.15234375 644.975585938 l 1
 146.9765625 644.20703125 l 1
 148.202148438 630.416992188 l 2
 151.727539062 590.7578125 148.80859375 593 192.264648438 593 c 0
 234.822265625 593 233.264648438 590.584960938 233.264648438 633.163085938 c 0
 233.264648438 669.202148438 230.334960938 670.754882812 213.495117188 673.360351562 c 0
 206.157226562 674.495117188 195.413085938 675 181.264648438 675 c 2
 154.264648438 675 l 1
 138.264648438 675 l 1
 138.264648438 691 l 1
 138.264648438 711.530273438 l 1
 137.29296875 728.060546875 l 1
 136.295898438 745 l 1
 153.264648438 745 l 1
 172.264648438 745 l 1
 184.264648438 745 l 2
 223.353515625 745 221.840820312 743.239257812 227.358398438 781.310546875 c 0
 228.36328125 789.469726562 229.264648438 795.075195312 229.264648438 799.388671875 c 0
 229.264648438 812.4296875 232.374023438 814 183.264648438 814 c 0
 141.928710938 814 149.1328125 815.267578125 147.159179688 798.166015625 c 2
 145.461914062 783.453125 l 1
 130.661132812 784.01171875 l 1
 77.6611328125 786.01171875 l 1
 60 786.677734375 l 1
 62.4150390625 804.186523438 l 2
 71.4765625 869.880859375 98.7041015625 885 185.264648438 885 c 0
 268.872070312 885 312.264648438 874.333984375 312.264648438 816.030273438 c 0
 312.264648438 805.0390625 310.025390625 793.240234375 308.107421875 781.779296875 c 0
 303.788085938 751.133789062 298.819335938 730.134765625 279.795898438 715.577148438 c 1
 315.296875 700.30859375 321.264648438 672.446289062 321.264648438 630.271484375 c 0
 321.264648438 541.154296875 294.7890625 519 192.264648438 519 c 0
 96.16015625 519 69.78515625 541.094726562 62.3203125 630.670898438 c 2
 60.79296875 648.995117188 l 1
EndSplineSet
Validated: 524321
EndChar

StartChar: acute
Encoding: 180 180 115
Width: 308
VWidth: 1024
Flags: HW
LayerCount: 2
Fore
SplineSet
116.697265625 929.954101562 m 1
 134.553710938 921.443359375 l 1
 241.553710938 876.991210938 l 1
 255.90625 871.028320312 l 1
 249.15625 858.481445312 l 1
 166.15625 704.20703125 l 1
 159.54296875 690.103515625 l 1
 145.267578125 696.336914062 l 1
 74.267578125 723.310546875 l 1
 62 727.970703125 l 1
 65.1064453125 739.299804688 l 1
 112.106445312 910.712890625 l 1
 116.697265625 929.954101562 l 1
EndSplineSet
Validated: 524289
EndChar

StartChar: mu
Encoding: 181 181 116
Width: 621
VWidth: 1024
Flags: HW
LayerCount: 2
Fore
SplineSet
300.441605403 120 m 0
 382.814123005 120 411.221679688 128.469726562 411.221679688 220.373046875 c 2
 411.221679688 677.732421875 l 1
 411.221679688 690.8046875 l 1
 424.876953125 692.827148438 l 1
 532.876953125 708.827148438 l 1
 551.221679688 711.544921875 l 1
 551.221679688 693 l 1
 551.221679688 1 l 1
 551.221679688 -11.7939453125 l 1
 538.741210938 -14.6083984375 l 1
 436.741210938 -37.6083984375 l 1
 417.221679688 -42.009765625 l 1
 417.221679688 -22 l 1
 417.221679688 4.2041015625 l 1
 393.64974588 -11.2060546875 359.012378116 -15 297.990334482 -15 c 0
 251.362326051 -15 221.463867188 -8.96875 204.221679688 -0.716796875 c 1
 204.221679688 -136 l 1
 204.221679688 -143.6640625 l 1
 198.249023438 -148.467773438 l 1
 106.249023438 -222.467773438 l 1
 80.6123046875 -243.087890625 l 1
 80.22265625 -210.189453125 l 1
 69.22265625 684.810546875 l 1
 69 703.552734375 l 1
 87.544921875 700.830078125 l 1
 196.544921875 684.830078125 l 1
 210.221679688 682.823242188 l 1
 210.221679688 669.743164062 l 1
 210.221679688 208.943359375 l 2
 210.221679688 116.666992188 222.439453125 120 300.441605403 120 c 0
EndSplineSet
Validated: 524321
EndChar

StartChar: paragraph
Encoding: 182 182 117
Width: 721
VWidth: 1024
Flags: HW
LayerCount: 2
Fore
SplineSet
327.247373738 316.260742188 m 2
 175.032226562 349.887695312 110.419921875 408.385742188 78.26171875 480.946289062 c 0
 62.3125 517.961914062 54 559.4765625 54 603.012695312 c 0
 54 750.435546875 141.634765625 926 289.172024716 926 c 2
 440.560290754 927 l 1
 458.32936673 927 l 1
 631.80859375 928.999023438 l 1
 643.78515625 929.142578125 l 1
 647.296875 917.69140625 l 1
 670.296875 842.69140625 l 1
 677.212890625 820.137695312 l 1
 653.701171875 822.052734375 l 1
 653.701171875 822.052734375 642.424804688 823 629 823 c 0
 626.639648438 823 623.028320312 822.984375 621.149414062 822.958984375 c 0
 623.203125 616.583984375 626.998046875 -6.251953125 627 -6.51953125 c 2
 627.098632812 -22.7392578125 l 1
 610.28125 -21.9833984375 l 1
 521.085316569 -17.9833984375 l 1
 504.036961098 -17.2958984375 l 1
 504.075008184 -1.9638671875 l 1
 506.255649711 863.762695312 l 1
 494.933924134 862.436523438 484.537286263 861.26171875 477.488791915 860.533203125 c 1
 485.150387869 0.1279296875 l 1
 485.299315032 -16.5009765625 l 1
 466.796473837 -15.9921875 l 1
 357.707870368 -12.9921875 l 1
 339.975754419 -12.5048828125 l 1
 340.448625338 2.900390625 l 1
 350.008227328 314.8046875 l 1
 330.459634812 315.833984375 l 1
 328.831219554 315.919921875 l 1
 327.247373738 316.260742188 l 2
EndSplineSet
Validated: 524289
EndChar

StartChar: periodcentered
Encoding: 183 183 118
Width: 288
VWidth: 1024
Flags: HW
LayerCount: 2
Fore
SplineSet
69 290.298828125 m 1
 70.2724609375 302.694335938 l 1
 79.2724609375 390.392578125 l 1
 80.3828125 401.21484375 l 1
 94.3505859375 401.9765625 l 1
 204.350585938 407.9765625 l 1
 221.7578125 408.92578125 l 1
 221.213867188 395.334960938 l 1
 217.213867188 295.5 l 1
 216.690429688 278.740234375 l 1
 199.973632812 280.048828125 l 1
 84.9736328125 289.048828125 l 1
 69 290.298828125 l 1
EndSplineSet
Validated: 524289
EndChar

StartChar: cedilla
Encoding: 184 184 119
Width: 642
VWidth: 1024
Flags: HW
LayerCount: 2
Fore
SplineSet
294.65625 0 m 2
 314.65625 0 l 1
 334.65625 0 l 1
 356.040039062 0 l 1
 350.006835938 -13.81640625 l 1
 341.62890625 -33 l 1
 423.015625 -33 442.65625 -43.3466796875 442.65625 -128.866210938 c 0
 442.65625 -210.193359375 426.4453125 -248 331.65625 -248 c 0
 267.727539062 -248 245.0390625 -235.248046875 226.508789062 -186.80078125 c 2
 221 -172.399414062 l 1
 237.534179688 -168.48046875 l 1
 282.534179688 -157.813476562 l 1
 296.823242188 -154.426757812 l 1
 301.744140625 -166.822265625 l 2
 303.415039062 -171.028320312 305.482421875 -175.256835938 305.912109375 -176.041015625 c 0
 310.607421875 -174.780273438 318.5078125 -172.444335938 328.65625 -172.444335938 c 0
 357.59375 -172.444335938 353.65625 -177.357421875 353.65625 -146.666992188 c 0
 353.65625 -114.037109375 357.608398438 -120 331.65625 -120 c 0
 322.90625 -120 317.501953125 -120.547851562 315.625976562 -120.955078125 c 0
 315.26171875 -121.8125 315.135742188 -122.159179688 314.8359375 -123.059570312 c 2
 314.4765625 -124.138671875 l 1
 313.967773438 -125.155273438 l 1
 312.967773438 -127.155273438 l 1
 305.403320312 -142.283203125 l 1
 290.71875 -133.891601562 l 1
 255.71875 -114.610351562 l 1
 244.676757812 -109.04296875 l 1
 248.33203125 -98.2958984375 l 1
 248.33203125 -98.2958984375 266.111328125 0 294.65625 0 c 2
EndSplineSet
Validated: 524289
EndChar

StartChar: Superscriptone
Encoding: 185 185 120
Width: 281
VWidth: 1024
Flags: HW
LayerCount: 2
Fore
SplineSet
212.15625 519.387695312 m 1
 194.625 521.073242188 l 1
 142.625 526.073242188 l 1
 128.15625 527.46484375 l 1
 128.15625 540.650390625 l 1
 128.15625 542.463867188 l 1
 128.15625 761.193359375 l 1
 73.923828125 755.7265625 l 1
 55 753.819335938 l 1
 56.1875 771.057617188 l 1
 58.1875 800.084960938 l 1
 58.8369140625 809.510742188 l 1
 68.599609375 812.790039062 l 1
 149.599609375 840.00390625 l 1
 152.477539062 841.0703125 l 1
 155.546875 840.995117188 l 1
 196.546875 839.995117188 l 1
 212.15625 839.614257812 l 1
 212.15625 825.493164062 l 1
 212.15625 538.80859375 l 1
 212.15625 537.904296875 l 1
 212.15625 537 l 1
 212.15625 519.387695312 l 1
EndSplineSet
Validated: 524289
EndChar

StartChar: ordmasculine
Encoding: 186 186 121
Width: 420
VWidth: 1024
Flags: HW
LayerCount: 2
Fore
SplineSet
72 748.244140625 m 1
 72 748.724609375 l 1
 72 761.372070312 l 2
 72 818.026367188 99.9892578125 905 212 905 c 0
 348.215820312 905 345.3984375 809.235351562 350.885742188 750.547851562 c 0
 352.283203125 739.728515625 351 735.112304688 351 729.754882812 c 0
 351 683.776367188 334.3671875 630.471679688 281.401367188 606 c 1
 338 606 l 1
 354 606 l 1
 354 590 l 1
 354 555 l 1
 354 539.77734375 l 1
 338.795898438 539.01953125 l 1
 77.7958984375 526.01953125 l 1
 61 525.18359375 l 1
 61 542 l 1
 61 590 l 1
 61 606 l 1
 77 606 l 1
 139.55859375 606 l 1
 74.615234375 635.90234375 74.9677734375 708.032226562 72.03515625 747.763671875 c 2
 72 748.244140625 l 1
157.912109375 734.142578125 m 2
 166.053710938 664.30078125 160.971679688 664 209 664 c 0
 257.447265625 664 259.043945312 667.46875 261 732.825195312 c 2
 261 738.048828125 l 2
 261 793.282226562 236.098632812 813 221 813 c 0
 217.8515625 813 217.059570312 812.838867188 217.059570312 812.838867188 c 1
 216.250976562 812.594726562 l 1
 215.418945312 812.430664062 l 2
 186.412109375 806.701171875 157 795.256835938 157 748.884765625 c 0
 157 743.453125 157.067382812 738.87890625 157.782226562 735.005859375 c 2
 157.861328125 734.576171875 l 1
 157.912109375 734.142578125 l 2
EndSplineSet
Validated: 524289
EndChar

StartChar: guillemotright
Encoding: 187 187 122
Width: 611
VWidth: 1024
Flags: HW
LayerCount: 2
Fore
SplineSet
287.973203608 630 m 1
 408.805345073 614 l 1
 418.040039062 612.740234375 l 1
 421.7578125 614 l 1
 566.7578125 339.31640625 l 1
 570.720703125 331.608398438 l 1
 566.4296875 324.079101562 l 1
 415.228254553 67 l 1
 410.828700383 68.3134765625 l 1
 402.078180334 67 l 1
 295.461584924 51 l 1
 259.368581884 45.5830078125 l 1
 274.998972732 64.64453125 l 1
 433.68359375 347.66796875 l 1
 268.203553012 615.287109375 l 1
 250.994042667 634.896484375 l 1
 287.973203608 630 l 1
86.0703125 630 m 1
 204.0703125 626 l 1
 214.634960884 625.66015625 l 1
 219.44520181 626 l 1
 365.15454887 354.473632812 l 1
 368.505984167 348.080078125 l 1
 365.223960716 341.66015625 l 1
 219.514613656 63 l 1
 214.390862559 62.6298828125 l 1
 202.986328125 63 l 1
 84.986328125 67 l 1
 57.6787109375 67.92578125 l 1
 71.84765625 83.5947265625 l 1
 239.270381883 344.130859375 l 1
 71.732421875 613.791992188 l 1
 57 630.985351562 l 1
 86.0703125 630 l 1
EndSplineSet
Validated: 524289
EndChar

StartChar: onequarter
Encoding: 188 188 123
Width: 801
VWidth: 1024
Flags: HW
LayerCount: 2
Fore
SplineSet
194.880859375 10.1787109375 m 1
 198.533203125 22.8427734375 l 1
 482.347712454 931.299804688 l 1
 487.592906411 948.438476562 l 1
 505.729902383 941.870117188 l 1
 585.79703301 913.8125 l 1
 600.4609375 908.58203125 l 1
 596.135324224 895.00390625 l 1
 290.125331828 -10.5703125 l 1
 284.327448453 -28.3046875 l 1
 265.918392186 -20.51171875 l 1
 207.20703125 4.642578125 l 1
 194.880859375 10.1787109375 l 1
191.944335938 454 m 1
 191.944335938 458.48046875 l 1
 176.311523438 460.083984375 l 1
 161.944335938 461.556640625 l 1
 161.944335938 476 l 1
 161.944335938 478 l 1
 161.944335938 782.098632812 l 1
 99.7333984375 775.100585938 l 1
 81 772.993164062 l 1
 81.9658203125 791.819335938 l 1
 83.9658203125 830.819335938 l 1
 84.4814453125 840.881835938 l 1
 93.779296875 844.764648438 l 1
 184.779296875 882.764648438 l 1
 187.905273438 884.0703125 l 1
 191.291992188 883.99609375 l 1
 237.494517969 882.99609375 l 1
 254.662165252 882.65625 l 1
 254.662165252 867 l 1
 254.662165252 472 l 1
 254.662165252 470 l 1
 254.662165252 454 l 1
 237.113205115 454 l 1
 207.944335938 454 l 1
 191.944335938 454 l 1
622.069335938 454.208007812 m 1
 636.361328125 452.9375 l 1
 681.361328125 448.9375 l 1
 695.944335938 447.640625 l 1
 695.944335938 433 l 1
 695.944335938 431.888671875 l 1
 708.955078125 425.3828125 l 1
 695.944335938 412.373046875 l 1
 695.944335938 208.438476562 l 1
 736.515625 206.990234375 l 1
 751.944335938 206.438476562 l 1
 751.944335938 191 l 1
 751.944335938 144 l 1
 751.944335938 127.711914062 l 1
 735.659179688 128.002929688 l 1
 695.944335938 128.711914062 l 1
 695.944335938 43 l 1
 695.944335938 29.5625 l 1
 682.708984375 27.240234375 l 1
 625.708984375 17.240234375 l 1
 607.110351562 13.9775390625 l 1
 606.9453125 32.859375 l 1
 606.081054688 131.405273438 l 1
 496.830103202 134 l 1
 447.700726763 134 l 1
 430.151766626 134 l 1
 430.151766626 150 l 1
 430.151766626 191 l 1
 430.151766626 196.1484375 l 1
 433.444338858 200.330078125 l 1
 618.932617188 438.524414062 l 2
 619.12890625 439.504882812 619.05859375 439.157226562 619.254882812 440.137695312 c 2
 622.069335938 454.208007812 l 1
605.944335938 287.202148438 m 1
 547.146262346 212.095703125 l 1
 605.944335938 210.482421875 l 1
 605.944335938 287.202148438 l 1
EndSplineSet
Validated: 524289
EndChar

StartChar: onehalf
Encoding: 189 189 124
Width: 793
VWidth: 1024
Flags: HW
LayerCount: 2
Fore
SplineSet
239.32018109 455 m 1
 237.563056683 439.064453125 l 2
 237.002521234 438.20703125 222.98275319 431 221.89359133 431 c 2
 172.36328125 431 l 1
 172.36328125 435.96484375 l 1
 139.36328125 439.71484375 l 1
 139.36328125 782.1015625 l 1
 49 771.948242188 l 1
 54.1318359375 842.084960938 l 1
 167.39453125 888.0625 l 1
 239.32018109 886.68359375 l 1
 239.32018109 455 l 1
154.299804688 2.1787109375 m 1
 157.952148438 14.8427734375 l 1
 439.278173154 923.299804688 l 1
 444.511255528 940.521484375 l 1
 462.574962431 933.841796875 l 1
 540.994616352 905.784179688 l 1
 555.703619635 900.521484375 l 1
 551.188490636 887.017578125 l 1
 248.401493552 -18.5556640625 l 1
 242.657866556 -36.3125 l 1
 224.358032765 -28.51171875 l 1
 166.625976562 -3.357421875 l 1
 154.299804688 2.1787109375 l 1
515.967293534 277 m 0
 514.878131674 277 501.383799137 281.875976562 499.704320058 282.732421875 c 2
 440.42158038 306.319335938 l 1
 437.375330803 307.53125 l 1
 435.027889177 309.686523438 l 2
 427.545219562 316.556640625 428.834344733 325.098632812 428.834344733 327 c 0
 428.834344733 419.844726562 461.994217924 441 585.673652575 441 c 0
 704.01171875 441 731.36328125 411.819335938 731.36328125 289.87109375 c 0
 730.282226562 222.811523438 711.569335938 197.887695312 632.888671875 148.459960938 c 0
 551.585226352 99.4609375 546.362780324 108.055664062 542.957022243 66.7080078125 c 1
 701.64453125 63.9970703125 l 1
 711.712890625 63.8212890625 l 1
 715.908203125 54.666015625 l 1
 737.908203125 6.666015625 l 1
 748.297851562 -16 l 1
 723.36328125 -16 l 1
 524.680588414 -16 l 1
 444.082610773 -16 l 1
 426.656021013 -16 l 1
 426.656021013 0 l 1
 426.656021013 25 l 2
 426.656021013 143.995117188 440.247144301 135.794921875 528.513927616 186.567382812 c 0
 627.756835938 245.11328125 633.36328125 254.44921875 633.36328125 295 c 0
 633.36328125 368.354492188 632.194335938 366 587.851976295 366 c 0
 532.374921319 366 536.661368874 367.618164062 536.661368874 327 c 0
 536.661368874 313.952148438 546.964797524 277 515.967293534 277 c 0
EndSplineSet
Validated: 524321
EndChar

StartChar: threequarters
Encoding: 190 190 125
Width: 795
VWidth: 1024
Flags: HW
LayerCount: 2
Fore
SplineSet
52.521484375 634.658203125 m 1
 70.59375 633.989257812 l 1
 124.59375 631.989257812 l 1
 138.985351562 631.456054688 l 1
 139.96484375 617.088867188 l 2
 142.576171875 578.778320312 139.393554688 581 183.001953125 581 c 0
 227.473079411 581 224.513931603 576.924804688 224.513931603 628 c 0
 224.513931603 670.002929688 221.528172754 671.170898438 204.247070312 674.102539062 c 0
 196.9921875 675.4296875 186.232421875 676 172.001953125 676 c 2
 145.001953125 676 l 1
 129.001953125 676 l 1
 129.001953125 692 l 1
 129.001953125 712.530273438 l 1
 128.029296875 729.060546875 l 1
 127.032226562 746 l 1
 144.001953125 746 l 1
 163.001953125 746 l 1
 175.001953125 746 l 2
 214.869025746 746 212.170666145 743.87109375 219.20023885 789.015625 c 0
 220.257229416 797.74609375 221.243966832 804.732421875 221.243966832 810 c 0
 221.243966832 827.356445312 224.369167538 829 174.001953125 829 c 0
 132.665039062 829 139.869140625 830.267578125 137.896484375 813.166015625 c 2
 136.197265625 798.442382812 l 1
 121.38671875 799.01171875 l 1
 69.38671875 801.01171875 l 1
 52 801.680664062 l 1
 54.12109375 818.950195312 l 2
 62.103515625 883.948242188 89.564453125 899 176.001953125 899 c 0
 263.045655159 899 309.533015661 888.482421875 309.533015661 826 c 0
 309.533015661 815.0546875 308.316358847 802.0234375 306.088482458 788.735351562 c 0
 301.362361499 755.909179688 295.66653419 733.142578125 275.680577632 717.85546875 c 1
 313.875937623 701.66015625 321.52288649 671.625 321.52288649 626 c 0
 321.52288649 530.756835938 291.33106332 507 183.001953125 507 c 0
 86.9248046875 507 61.5302734375 529.127929688 54.0595703125 616.638671875 c 2
 52.521484375 634.658203125 l 1
182.9375 34.1787109375 m 1
 186.58984375 46.8427734375 l 1
 470.402083339 955.299804688 l 1
 475.614654135 972.438476562 l 1
 493.63884472 965.870117188 l 1
 573.207987492 937.8125 l 1
 588.042046429 932.58203125 l 1
 583.48304281 919.00390625 l 1
 279.376319066 13.4296875 l 1
 273.614496375 -4.3046875 l 1
 255.318873168 3.48828125 l 1
 195.263671875 28.642578125 l 1
 182.9375 34.1787109375 l 1
604.001953125 454.303710938 m 1
 621.252929688 452.951171875 l 1
 672.252929688 448.951171875 l 1
 687.001953125 447.793945312 l 1
 687.001953125 433 l 1
 687.001953125 431.888671875 l 1
 696.368164062 427.205078125 l 1
 687.001953125 413.155273438 l 1
 687.001953125 202.740234375 l 1
 732.263671875 201.998046875 l 1
 748.001953125 201.740234375 l 1
 748.001953125 186 l 1
 748.001953125 138 l 1
 748.001953125 121.735351562 l 1
 731.739257812 122.001953125 l 1
 687.001953125 122.735351562 l 1
 687.001953125 35 l 1
 687.001953125 21.3056640625 l 1
 673.471679688 19.19140625 l 1
 609.471679688 9.19140625 l 1
 590.749986005 6.3056640625 l 1
 590.749986005 25 l 1
 590.749986005 125.48828125 l 1
 467.488706523 128.995117188 l 1
 414.527411861 128.002929688 l 1
 396.732076233 127.669921875 l 1
 396.732076233 144 l 1
 396.732076233 186 l 1
 396.732076233 191.482421875 l 1
 400.395884417 195.8125 l 1
 604.001953125 437.482421875 l 1
 604.001953125 454.303710938 l 1
589.659997748 288.345703125 m 1
 520.948159881 207.858398438 l 1
 589.659997748 205.586914062 l 1
 589.659997748 288.345703125 l 1
EndSplineSet
Validated: 524321
EndChar

StartChar: questiondown
Encoding: 191 191 126
Width: 674
VWidth: 1024
Flags: HW
LayerCount: 2
Fore
SplineSet
425.45740608 695.701171875 m 1
 424.130818152 679.829101562 l 1
 415.021506919 570.829101562 l 1
 413.889514873 557.283203125 l 1
 398.486416825 556.064453125 l 1
 272.094723457 546.064453125 l 1
 253.435758307 544.587890625 l 1
 252.27596685 561.009765625 l 1
 243.166655616 690.009765625 l 1
 241.868979077 708.396484375 l 1
 262.780808552 706.950195312 l 1
 407.391124389 696.950195312 l 1
 425.45740608 695.701171875 l 1
626.173828125 34.15234375 m 1
 624.942382812 19.646484375 l 2
 606.592773438 -196.477539062 561.817382812 -245 338.7799523 -245 c 2
 329.608370384 -245 l 2
 163.849609375 -243.971679688 55 -204.1015625 55 17 c 2
 55 26 l 1
 55 65 l 2
 55 160.672851562 73.08984375 171.015625 184.700195312 251.01953125 c 0
 236.216802685 285.466796875 260.338908227 306.814453125 261.350806813 360.133789062 c 2
 261.350806813 381 l 2
 261.350806813 411.66796875 260.212142909 451.80859375 260.212142909 505 c 2
 260.212142909 521 l 1
 278.430765377 521 l 1
 397.99047532 521 l 1
 416.209097788 521 l 1
 416.209097788 505 l 1
 416.209097788 483 l 2
 416.209097788 415.146484375 417.347761692 367.283203125 417.347761692 331 c 0
 417.347761692 205.306640625 393.102226762 217.45703125 290.022008089 153.895507812 c 0
 196.178710938 95.1953125 201 106.454101562 201 41 c 2
 201 26 l 2
 201 -111.444335938 263.336796787 -116.5859375 332.836438074 -127.243164062 c 0
 351.484283458 -130.133789062 370.175495925 -132 383.187844565 -132 c 0
 457.242141469 -132 475.887695312 -94.54296875 488.063476562 41.4267578125 c 2
 489.625 58.861328125 l 1
 506.848632812 55.744140625 l 1
 611.848632812 36.744140625 l 1
 626.173828125 34.15234375 l 1
EndSplineSet
Validated: 524321
EndChar

StartChar: Agrave
Encoding: 192 192 127
Width: 850
VWidth: 1024
Flags: HW
LayerCount: 2
Fore
SplineSet
365.165163604 975 m 1
 360.059940363 982.125 l 1
 252.559455102 1132.125 l 1
 229.43110363 1164.39648438 l 1
 270.291786123 1156.6796875 l 1
 413.26743152 1129.6796875 l 1
 421.11895622 1128.19726562 l 1
 424.950760626 1121.65332031 l 1
 496.976085751 998.653320312 l 1
 510.826221513 975 l 1
 481.871427725 975 l 1
 374.370942464 975 l 1
 365.165163604 975 l 1
46 10.712890625 m 1
 50.927734375 26.1640625 l 1
 345.032968234 916.709960938 l 1
 348.800734265 928.090820312 l 1
 361.602110411 928 l 1
 502.427746102 927 l 1
 515.07794969 926.91015625 l 1
 518.754382301 915.649414062 l 1
 808.528320312 25.1416015625 l 1
 813.0390625 10.794921875 l 1
 798.327148438 5.837890625 l 1
 706.327148438 -25.162109375 l 1
 691.052734375 -30.3095703125 l 1
 686.018554688 -14.9970703125 l 1
 614.648174544 192.709960938 l 1
 249.768011838 184.294921875 l 1
 189.580078125 -10.474609375 l 1
 185.237304688 -25.3857421875 l 1
 170.203125 -21.48828125 l 1
 62.203125 6.51171875 l 1
 46 10.712890625 l 1
433.504607833 724.6875 m 1
 300.49480332 295.069335938 l 1
 584.98895863 295.928710938 l 1
 433.504607833 724.6875 l 1
EndSplineSet
Validated: 524289
EndChar

StartChar: Aacute
Encoding: 193 193 128
Width: 850
VWidth: 1024
Flags: HW
LayerCount: 2
Fore
SplineSet
330.518303105 954.724609375 m 1
 346.259145644 982.467773438 l 1
 427.959514442 1126.46777344 l 1
 431.955089119 1133.51074219 l 1
 440.405005192 1134.79199219 l 1
 585.530660294 1156.79199219 l 1
 624.277026603 1162.66503906 l 1
 602.652002229 1132.18652344 l 1
 496.226521821 982.186523438 l 1
 491.96429555 976.178710938 l 1
 484.303836165 975.161132812 l 1
 363.903292673 959.161132812 l 1
 330.518303105 954.724609375 l 1
46 10.712890625 m 1
 50.927734375 26.1640625 l 1
 345.032968234 916.709960938 l 1
 348.800734265 928.090820312 l 1
 361.602110411 928 l 1
 502.427746102 927 l 1
 515.07794969 926.91015625 l 1
 518.754382301 915.649414062 l 1
 808.528320312 25.1416015625 l 1
 813.0390625 10.794921875 l 1
 798.327148438 5.837890625 l 1
 706.327148438 -25.162109375 l 1
 691.052734375 -30.3095703125 l 1
 686.018554688 -14.9970703125 l 1
 614.648174544 192.709960938 l 1
 249.768011838 184.294921875 l 1
 189.580078125 -10.474609375 l 1
 185.237304688 -25.3857421875 l 1
 170.203125 -21.48828125 l 1
 62.203125 6.51171875 l 1
 46 10.712890625 l 1
433.504607833 724.6875 m 1
 300.49480332 295.069335938 l 1
 584.98895863 295.928710938 l 1
 433.504607833 724.6875 l 1
EndSplineSet
Validated: 524289
EndChar

StartChar: Acircumflex
Encoding: 194 194 129
Width: 850
VWidth: 1024
Flags: HW
LayerCount: 2
Fore
SplineSet
494.094358876 979.041015625 m 1
 429.902711691 1032.11914062 l 1
 367.106261233 962.698242188 l 1
 360.746515728 955.666992188 l 1
 351.012682727 957.234375 l 1
 239.212178055 975.234375 l 1
 206.377288627 980.520507812 l 1
 230.028445194 1002.35644531 l 1
 373.00409059 1134.35644531 l 1
 376.743511767 1137.80761719 l 1
 381.919072239 1138.72070312 l 1
 484.044533237 1156.72070312 l 1
 494.354711614 1158.53710938 l 1
 500.808939967 1150.84082031 l 1
 626.584507722 1000.84082031 l 1
 648.251524473 975 l 1
 613.022019743 975 l 1
 505.521534482 975 l 1
 498.982271565 975 l 1
 494.094358876 979.041015625 l 1
46 10.712890625 m 1
 50.927734375 26.1640625 l 1
 345.032968234 916.709960938 l 1
 348.800734265 928.090820312 l 1
 361.602110411 928 l 1
 502.427746102 927 l 1
 515.07794969 926.91015625 l 1
 518.754382301 915.649414062 l 1
 808.528320312 25.1416015625 l 1
 813.0390625 10.794921875 l 1
 798.327148438 5.837890625 l 1
 706.327148438 -25.162109375 l 1
 691.052734375 -30.3095703125 l 1
 686.018554688 -14.9970703125 l 1
 614.648174544 192.709960938 l 1
 249.768011838 184.294921875 l 1
 189.580078125 -10.474609375 l 1
 185.237304688 -25.3857421875 l 1
 170.203125 -21.48828125 l 1
 62.203125 6.51171875 l 1
 46 10.712890625 l 1
433.504607833 724.6875 m 1
 300.49480332 295.069335938 l 1
 584.98895863 295.928710938 l 1
 433.504607833 724.6875 l 1
EndSplineSet
Validated: 524289
EndChar

StartChar: Atilde
Encoding: 195 195 130
Width: 850
VWidth: 1024
Flags: HW
LayerCount: 2
Fore
SplineSet
356.095859969 975 m 1
 338.895782328 975 l 1
 251.820389266 975 l 1
 234.620311624 975 l 1
 234.620311624 991 l 2
 234.620311624 1130.15234375 256.503589117 1157 353.945850264 1157 c 0
 487.263248938 1157 437.633508306 1078 493.696481103 1078 c 0
 506.268998793 1078 519.496597566 1070.36425781 519.496597566 1128 c 2
 519.496597566 1145.21386719 l 1
 537.951197472 1143.95703125 l 1
 626.101595386 1137.95703125 l 1
 642.047150763 1136.87207031 l 1
 642.047150763 1122 l 2
 642.047150763 982.7734375 620.847299207 958 522.721612124 958 c 0
 389.757999226 958 418.981544228 1049 361.470884232 1049 c 0
 360.921833902 1049 360.088285218 1048.96386719 360.073587886 1048.96386719 c 0
 357.970819605 1043.88769531 356.095859969 1025.57617188 356.095859969 991 c 2
 356.095859969 975 l 1
46 10.712890625 m 1
 50.927734375 26.1640625 l 1
 345.032968234 916.709960938 l 1
 348.800734265 928.090820312 l 1
 361.602110411 928 l 1
 502.427746102 927 l 1
 515.07794969 926.91015625 l 1
 518.754382301 915.649414062 l 1
 808.528320312 25.1416015625 l 1
 813.0390625 10.794921875 l 1
 798.327148438 5.837890625 l 1
 706.327148438 -25.162109375 l 1
 691.052734375 -30.3095703125 l 1
 686.018554688 -14.9970703125 l 1
 614.648174544 192.709960938 l 1
 249.768011838 184.294921875 l 1
 189.580078125 -10.474609375 l 1
 185.237304688 -25.3857421875 l 1
 170.203125 -21.48828125 l 1
 62.203125 6.51171875 l 1
 46 10.712890625 l 1
433.504607833 724.6875 m 1
 300.49480332 295.069335938 l 1
 584.98895863 295.928710938 l 1
 433.504607833 724.6875 l 1
EndSplineSet
Validated: 524321
EndChar

StartChar: Adieresis
Encoding: 196 196 131
Width: 850
VWidth: 1024
Flags: HW
LayerCount: 2
Fore
SplineSet
445.321262736 984.151367188 m 1
 445.321262736 999 l 1
 445.321262736 1118 l 1
 445.321262736 1135.24121094 l 1
 463.803157687 1133.95507812 l 1
 578.828676916 1125.95507812 l 1
 594.746937248 1124.84863281 l 1
 594.746937248 1110 l 1
 594.746937248 991 l 1
 594.746937248 973.758789062 l 1
 576.263992488 975.044921875 l 1
 461.238473259 983.044921875 l 1
 445.321262736 984.151367188 l 1
256.884669939 975 m 1
 260.716474345 993.95703125 l 1
 284.366581103 1110.95703125 l 1
 286.948062482 1123.72851562 l 1
 300.9157769 1123.99707031 l 1
 405.191247603 1125.99707031 l 1
 422.746160831 1126.33300781 l 1
 422.746160831 1110 l 1
 422.746160831 991 l 1
 422.746160831 975 l 1
 405.546083189 975 l 1
 277.620505729 975 l 1
 256.884669939 975 l 1
46 10.712890625 m 1
 50.927734375 26.1640625 l 1
 345.032968234 916.709960938 l 1
 348.800734265 928.090820312 l 1
 361.602110411 928 l 1
 502.427746102 927 l 1
 515.07794969 926.91015625 l 1
 518.754382301 915.649414062 l 1
 808.528320312 25.1416015625 l 1
 813.0390625 10.794921875 l 1
 798.327148438 5.837890625 l 1
 706.327148438 -25.162109375 l 1
 691.052734375 -30.3095703125 l 1
 686.018554688 -14.9970703125 l 1
 614.648174544 192.709960938 l 1
 249.768011838 184.294921875 l 1
 189.580078125 -10.474609375 l 1
 185.237304688 -25.3857421875 l 1
 170.203125 -21.48828125 l 1
 62.203125 6.51171875 l 1
 46 10.712890625 l 1
433.504607833 724.6875 m 1
 300.49480332 295.069335938 l 1
 584.98895863 295.928710938 l 1
 433.504607833 724.6875 l 1
EndSplineSet
Validated: 524289
EndChar

StartChar: Aring
Encoding: 197 197 132
Width: 850
VWidth: 1024
Flags: HW
LayerCount: 2
Fore
SplineSet
433.504607833 724.6875 m 1
 300.49480332 295.069335938 l 1
 584.98895863 295.928710938 l 1
 433.504607833 724.6875 l 1
46 10.712890625 m 1
 50.927734375 26.1640625 l 1
 345.032968234 916.709960938 l 1
 348.800734265 928.090820312 l 1
 361.602110411 928 l 1
 502.427746102 927 l 1
 515.07794969 926.91015625 l 1
 518.754382301 915.649414062 l 1
 808.528320312 25.1416015625 l 1
 813.0390625 10.794921875 l 1
 798.327148438 5.837890625 l 1
 706.327148438 -25.162109375 l 1
 691.052734375 -30.3095703125 l 1
 686.018554688 -14.9970703125 l 1
 614.648174544 192.709960938 l 1
 249.768011838 184.294921875 l 1
 189.580078125 -10.474609375 l 1
 185.237304688 -25.3857421875 l 1
 170.203125 -21.48828125 l 1
 62.203125 6.51171875 l 1
 46 10.712890625 l 1
386.195995842 982 m 2
 331.041108199 982 322.770709538 1007.81933594 322.770709538 1070 c 0
 322.770709538 1153.62304688 343.239893734 1174 434.57121421 1174 c 0
 520.783663923 1174 534.546665502 1153.49511719 534.546665502 1081 c 2
 534.546665502 1043 l 2
 534.546665502 1022.56445312 536.413226662 1005.63378906 522.837091161 992.7265625 c 0
 511.142214151 981.608398438 495.872736044 982 480.796422872 982 c 2
 386.195995842 982 l 2
409.405182641 1057.5703125 m 0
 413.337768752 1057.10058594 418.166892113 1057 425.971175389 1057 c 0
 436.009453124 1057 442.803819731 1057.51367188 444.945430961 1057.97070312 c 0
 445.834619545 1061.09082031 446.396267588 1067.41015625 446.396267588 1078 c 0
 446.396267588 1086.828125 447.053448289 1093.8828125 447.319050074 1097.95898438 c 1
 444.982174291 1097.99902344 442.186531789 1098 438.87123362 1098 c 0
 406.736567079 1098 408.771097747 1101.8671875 408.771097747 1078 c 0
 408.771097747 1067.98925781 408.963212872 1060.83300781 409.405182641 1057.5703125 c 0
EndSplineSet
Validated: 524321
EndChar

StartChar: AE
Encoding: 198 198 133
Width: 1212
VWidth: 1024
Flags: HW
LayerCount: 2
Fore
SplineSet
606.880106486 754.594726562 m 1
 369.944041135 309.5703125 l 1
 599.860381149 296.927734375 l 1
 606.880106486 754.594726562 l 1
1136.69726562 118.997070312 m 1
 1146.39648438 119.75 l 2
 1162.45703125 119.75 1162.77148438 103 1162.77148438 103 c 1
 1162.77148438 -26 l 1
 1146.77148438 -26 l 2
 985.469430013 -26 927.822070886 -25.06640625 769.31191434 -25.0029296875 c 1
 769.31191434 -26 l 1
 614.17842463 -26 l 1
 614.17842463 192.357421875 l 1
 526.97074182 188.92578125 345.62207564 180.431640625 303.364427216 178.4453125 c 1
 181.375 -24.7802734375 l 1
 45 13.81640625 l 1
 514.180891732 917.901367188 l 1
 629.713532309 919 l 1
 1147.77148438 919 l 1
 1147.77148438 788.595703125 l 1
 1131.77148438 788.595703125 l 2
 974.25861142 788.595703125 909.244811091 793.978515625 771.39424306 795.228515625 c 1
 771.39424306 457.37890625 l 1
 1106.58496094 465 l 1
 1127.77148438 465 l 1
 1127.77148438 334 l 1
 1106.60742188 334 l 1
 771.39424306 340.668945312 l 1
 771.39424306 111.026367188 l 1
 925.444881165 111.53515625 984.129337603 118.8359375 1136.69726562 118.997070312 c 1
EndSplineSet
Validated: 524289
EndChar

StartChar: Ccedilla
Encoding: 199 199 134
Width: 752
VWidth: 1024
Flags: HW
LayerCount: 2
Fore
SplineSet
218.514400536 416.349609375 m 2
 218.514400536 185.266601562 284.037265703 172.241210938 461.44128001 125 c 1
 583.84375 125 631.891601562 125.600585938 648.716796875 126.747070312 c 1
 664.723632812 174.768554688 l 1
 676.676757812 116.19921875 l 1
 696.676757812 18.19921875 l 1
 697.231445312 15.482421875 l 1
 696.838867188 12.7373046875 l 2
 692.85546875 -15.1455078125 651.198242187 -10.8583984375 523.582096659 -9.3662109375 c 1
 510.902658369 -24.0703125 469.906132263 -15 448.629933178 -15 c 1
 447.953090987 -16.9990234375 l 1
 541.351907208 -17.150390625 562 -43.6083984375 562 -134 c 0
 562 -224.259765625 537.474661048 -248 436.626255861 -248 c 0
 365.845429714 -248 340.726583431 -233.654296875 320.209399071 -179.150390625 c 2
 316.149427144 -168.364257812 l 1
 326.105278409 -161.370117188 l 1
 375.927783432 -126.370117188 l 1
 389.396510539 -116.909179688 l 1
 352.549697416 -97.8916015625 l 1
 340.164350301 -91.5 l 1
 344.437322086 -79.20703125 l 1
 367.399139343 -13.1494140625 l 1
 345.080646533 -12.3134765625 300.282559496 -21.005859375 296.300435234 2.4677734375 c 1
 102.923828125 36.5107421875 59 153.33984375 59 413.002929688 c 2
 59 465.348632812 l 1
 65.0244140625 822.678710938 118.78515625 941 441.054922974 941 c 2
 458.912312144 941 l 2
 636.52734375 938.267578125 698 950.956054688 698 921 c 2
 698 919.208007812 l 1
 697.603515625 917.4609375 l 1
 675.348632812 819.337890625 l 2
 666.83984375 796.158203125 645.779296875 806 626 806 c 0
 598.6953125 806 550.68359375 807.002929688 458.663632106 808 c 2
 447.697923644 808 l 2
 254.279996102 808 224.058884168 741.424804688 218.514400536 464.934570312 c 1
 218.514400536 416.349609375 l 2
407.559884278 -126.283203125 m 1
 399.033402624 -121.8828125 l 1
 403.560460535 -133.810546875 l 2
 416.33504597 -167.461914062 414.62672223 -163 433.304755526 -163 c 0
 465.342312955 -163 460.983924983 -168.526367188 460.983924983 -134 c 0
 460.983924983 -97.2919921875 465.359612436 -104 436.626255861 -104 c 0
 427.202363634 -104 420.969144419 -104.517578125 418.668313458 -104.935546875 c 0
 418.548298309 -105.30078125 418.48558769 -105.5078125 418.382872023 -105.880859375 c 2
 417.911461168 -107.584960938 l 1
 417.041081034 -109.155273438 l 1
 415.933914256 -111.155273438 l 1
 407.559884278 -126.283203125 l 1
EndSplineSet
Validated: 524321
EndChar

StartChar: Egrave
Encoding: 200 200 135
Width: 696
VWidth: 1024
Flags: HW
LayerCount: 2
Fore
SplineSet
621 4 m 1
 205 4 l 1
 203 4 l 1
 88 4 l 1
 72 4 l 1
 72 19.466796875 l 1
 72 933 l 1
 72 949 l 1
 88 949 l 1
 606 949 l 1
 622 949 l 1
 622 933 l 1
 622 833.4296875 l 1
 622 817.962890625 l 1
 606 817.962890625 l 2
 445.148291407 817.962890625 373.807166734 823.349609375 223 824.600585938 c 1
 223 487.538085938 l 1
 584.850585938 510.51171875 l 1
 602 511.706054688 l 1
 602 495.083984375 l 2
 602 465.168945312 599 427.469726562 599 399.380859375 c 2
 599 384.659179688 l 1
 583.790039062 383.932617188 l 1
 223 368.225585938 l 1
 223 136.463867188 l 1
 393.489208245 136.954101562 463.223726729 144.171875 621 144.171875 c 2
 637 144.171875 l 1
 637 128.704101562 l 1
 637 19.466796875 l 1
 637 4 l 1
 621 4 l 1
304.105003513 975 m 1
 298.686054722 982.186523438 l 1
 190.646484375 1132.18652344 l 1
 174.26953125 1157 l 1
 204 1157 l 1
 364.211041852 1157 l 1
 376.898767949 1157 l 1
 381.335901846 1146.59570312 l 1
 445.31453052 996.595703125 l 1
 454.525739335 975 l 1
 428.189670525 975 l 1
 313.942119323 975 l 1
 304.105003513 975 l 1
EndSplineSet
Validated: 524289
EndChar

StartChar: Eacute
Encoding: 201 201 136
Width: 697
VWidth: 1024
Flags: HW
LayerCount: 2
Fore
SplineSet
304.466489906 974.122070312 m 1
 309.836347952 994.58203125 l 1
 348.680515361 1142.58203125 l 1
 351.899306232 1154.84667969 l 1
 366.273968827 1154.99902344 l 1
 545.805664062 1156.99902344 l 1
 577.490234375 1157.3828125 l 1
 558.989257812 1131.65820312 l 1
 449.884432568 985.658203125 l 1
 444.697549115 979.344726562 l 1
 435.822165621 979.014648438 l 1
 328.429467491 975.014648438 l 1
 304.466489906 974.122070312 l 1
610.955078125 136.796875 m 1
 620.625 137.516601562 l 2
 636.685546875 137.516601562 637 121.493164062 637 121.493164062 c 1
 637 0 l 1
 72 0 l 1
 72 927 l 1
 622 927 l 1
 622 798.616210938 l 1
 606 798.616210938 l 2
 445.148291407 798.616210938 373.807166734 803.995117188 223 805.244140625 c 1
 223 474.377929688 l 1
 581.813476562 482 l 1
 602 482 l 1
 602 353 l 1
 581.836914062 353 l 1
 223 359.669921875 l 1
 223 129.172851562 l 1
 388.057986768 129.657226562 457.222383195 136.642578125 610.955078125 136.796875 c 1
EndSplineSet
Validated: 524289
EndChar

StartChar: Ecircumflex
Encoding: 202 202 137
Width: 697
VWidth: 1024
Flags: HW
LayerCount: 2
Fore
SplineSet
454.889457125 979.041015625 m 1
 384.532378743 1033.78125 l 1
 302.961412302 972.831054688 l 1
 295.475073742 967.237304688 l 1
 286.019526902 969.62890625 l 1
 188.559570312 995.62890625 l 1
 161.905273438 1003.32910156 l 1
 181.919921875 1022.54199219 l 1
 318.420534074 1142.54199219 l 1
 323.519277326 1146.82714844 l 1
 330.584997461 1146.99414062 l 1
 415.12818535 1148.99414062 l 1
 422.875597416 1149.17773438 l 1
 428.412810274 1144.43164062 l 1
 580.1953125 1002.43164062 l 1
 608.206054688 975 l 1
 569 975 l 1
 467.033837934 975 l 1
 460.084150469 975 l 1
 454.889457125 979.041015625 l 1
610.92578125 136.796875 m 1
 620.625 137.516601562 l 2
 636.685546875 137.516601562 637 121.493164062 637 121.493164062 c 1
 637 0 l 1
 72 0 l 1
 72 927 l 1
 622 927 l 1
 622 798.616210938 l 1
 606 798.616210938 l 2
 445.148291407 798.616210938 373.807166734 803.995117188 223 805.244140625 c 1
 223 474.377929688 l 1
 581.813476562 482 l 1
 602 482 l 1
 602 353 l 1
 581.836914062 353 l 1
 223 359.669921875 l 1
 223 129.171875 l 1
 391.584710492 129.658203125 455.979494796 136.642578125 610.92578125 136.796875 c 1
EndSplineSet
Validated: 524289
EndChar

StartChar: Edieresis
Encoding: 203 203 138
Width: 697
VWidth: 1024
Flags: HW
LayerCount: 2
Fore
SplineSet
400.813770488 990.760742188 m 1
 399.680220566 1003.78417969 l 1
 390.54041647 1108.78417969 l 1
 389.042033059 1126 l 1
 408.767586821 1126 l 1
 537 1126 l 1
 553 1126 l 1
 553 1110 l 1
 553 991 l 1
 553 972.85546875 l 1
 534.998046875 975.125976562 l 1
 415.620208496 989.125976562 l 1
 400.813770488 990.760742188 l 1
206.986328125 975 m 1
 209.111328125 992.887695312 l 1
 221.111328125 1093.88769531 l 1
 222.528320312 1105.80859375 l 1
 235.533043118 1107.78222656 l 1
 358.920398417 1125.78222656 l 1
 380.20569902 1128.88769531 l 1
 380.20569902 1110 l 1
 380.20569902 991 l 1
 380.20569902 975 l 1
 361.926090828 975 l 1
 225 975 l 1
 206.986328125 975 l 1
610.92578125 136.796875 m 1
 620.625 137.516601562 l 2
 636.685546875 137.516601562 637 121.493164062 637 121.493164062 c 1
 637 0 l 1
 72 0 l 1
 72 927 l 1
 622 927 l 1
 622 798.616210938 l 1
 606 798.616210938 l 2
 445.148291407 798.616210938 373.807166734 803.995117188 223 805.244140625 c 1
 223 474.377929688 l 1
 581.813476562 482 l 1
 602 482 l 1
 602 353 l 1
 581.836914062 353 l 1
 223 359.669921875 l 1
 223 129.171875 l 1
 391.584710492 129.658203125 455.979494796 136.642578125 610.92578125 136.796875 c 1
EndSplineSet
Validated: 524289
EndChar

StartChar: Igrave
Encoding: 204 204 139
Width: 321
VWidth: 1024
Flags: HW
LayerCount: 2
Fore
SplineSet
125.895507812 975 m 1
 121.29296875 983.084960938 l 1
 47.29296875 1113.08496094 l 1
 36 1132.92480469 l 1
 58.5029296875 1136.77148438 l 1
 175.502929688 1156.77148438 l 1
 188.478515625 1158.98925781 l 1
 193.155273438 1146.68359375 l 1
 250.155273438 996.68359375 l 1
 258.39453125 975 l 1
 235.198242188 975 l 1
 135.198242188 975 l 1
 125.895507812 975 l 1
169.198242188 1 m 1
 169.198242188 3.2685546875 l 1
 125.927734375 4.001953125 l 1
 110.403320312 4.265625 l 1
 110.200195312 19.2626953125 l 1
 98.1982421875 903.272460938 l 1
 98.1982421875 908.204101562 l 1
 98.1982421875 914 l 1
 98.1982421875 930.833984375 l 1
 115.010742188 929.979492188 l 1
 233.010742188 923.979492188 l 1
 248.000976562 923.216796875 l 1
 248.197265625 908.712890625 l 1
 260.198242188 21.396484375 l 1
 260.198242188 16.4638671875 l 1
 260.198242188 1 l 1
 244.198242188 1 l 1
 185.198242188 1 l 1
 169.198242188 1 l 1
EndSplineSet
Validated: 524289
EndChar

StartChar: Iacute
Encoding: 205 205 140
Width: 316
VWidth: 1024
Flags: HW
LayerCount: 2
Fore
SplineSet
63 975 m 1
 71.0625 996.595703125 l 1
 127.0625 1146.59570312 l 1
 132.297851562 1160.61914062 l 1
 146.638671875 1156.328125 l 1
 273.638671875 1118.328125 l 1
 295.482421875 1111.79296875 l 1
 281.907226562 1093.47363281 l 1
 198.907226562 981.473632812 l 1
 194.109375 975 l 1
 186.051757812 975 l 1
 86.0517578125 975 l 1
 63 975 l 1
144.051757812 1 m 1
 144.051757812 3.2685546875 l 1
 100.78125 4.001953125 l 1
 85.2568359375 4.265625 l 1
 85.0537109375 19.2626953125 l 1
 73.0517578125 903.272460938 l 1
 73.0517578125 908.204101562 l 1
 73.0517578125 914 l 1
 73.0517578125 930.833984375 l 1
 89.8642578125 929.979492188 l 1
 207.864257812 923.979492188 l 1
 222.854492188 923.216796875 l 1
 223.05078125 908.712890625 l 1
 235.051757812 21.396484375 l 1
 235.051757812 16.4638671875 l 1
 235.051757812 1 l 1
 219.051757812 1 l 1
 160.051757812 1 l 1
 144.051757812 1 l 1
EndSplineSet
Validated: 524289
EndChar

StartChar: Icircumflex
Encoding: 206 206 141
Width: 476
VWidth: 1024
Flags: HW
LayerCount: 2
Fore
SplineSet
329.932617188 981.176757812 m 1
 258.425098695 1033.53808594 l 1
 180.241731963 978.96875 l 1
 175.797557658 975.8671875 l 1
 170.0703125 975.174804688 l 1
 76.0703125 961.174804688 l 1
 36 955.20703125 l 1
 61.1787109375 986.944335938 l 1
 182.65088414 1136.94433594 l 1
 187.24593712 1141.55566406 l 1
 194.500380078 1142.69628906 l 1
 296.244126571 1158.69628906 l 1
 307.338002479 1160.44140625 l 1
 314.970255453 1153.79785156 l 1
 456.520507812 1001.79785156 l 1
 481.678710938 974.286132812 l 1
 444.405273438 975.002929688 l 1
 340.405273438 977.002929688 l 1
 334.383789062 977.119140625 l 1
 329.932617188 981.176757812 l 1
238.590072885 1 m 1
 238.590072885 3.2685546875 l 1
 184.236950211 4.001953125 l 1
 165.91796875 4.265625 l 1
 165.713867188 19.2626953125 l 1
 153.712890625 903.272460938 l 1
 153.712890625 908.204101562 l 1
 153.712890625 914 l 1
 153.712890625 930.833984375 l 1
 170.525390625 929.979492188 l 1
 318.744675639 923.979492188 l 1
 335.515625 923.216796875 l 1
 335.711914062 908.712890625 l 1
 347.712890625 21.396484375 l 1
 347.712890625 16.4638671875 l 1
 347.712890625 1 l 1
 331.712890625 1 l 1
 258.687603057 1 l 1
 238.590072885 1 l 1
EndSplineSet
Validated: 524289
EndChar

StartChar: Idieresis
Encoding: 207 207 142
Width: 386
VWidth: 1024
Flags: HW
LayerCount: 2
Fore
SplineSet
199.762695312 975 m 1
 199.474609375 990.706054688 l 1
 197.474609375 1099.70605469 l 1
 197.19921875 1114.70996094 l 1
 212.154296875 1115.9453125 l 1
 333.154296875 1125.9453125 l 1
 350.471679688 1127.37695312 l 1
 350.471679688 1110 l 1
 350.471679688 991 l 1
 350.471679688 975 l 1
 334.471679688 975 l 1
 215.471679688 975 l 1
 199.762695312 975 l 1
37 975 m 1
 39.6357421875 993.282226562 l 1
 55.6357421875 1104.28222656 l 1
 57.462890625 1116.95996094 l 1
 70.232421875 1117.95214844 l 1
 173.232421875 1125.95214844 l 1
 190.471679688 1127.29101562 l 1
 190.471679688 1110 l 1
 190.471679688 991 l 1
 190.471679688 975 l 1
 174.471679688 975 l 1
 55.4716796875 975 l 1
 37 975 l 1
179.471679688 1 m 1
 179.471679688 3.2685546875 l 1
 136.200195312 4.001953125 l 1
 120.676757812 4.265625 l 1
 120.47265625 19.2626953125 l 1
 108.471679688 903.272460938 l 1
 108.471679688 908.204101562 l 1
 108.471679688 914 l 1
 108.471679688 930.833984375 l 1
 125.284179688 929.979492188 l 1
 243.284179688 923.979492188 l 1
 258.274414062 923.216796875 l 1
 258.470703125 908.712890625 l 1
 270.471679688 21.396484375 l 1
 270.471679688 16.4638671875 l 1
 270.471679688 1 l 1
 254.471679688 1 l 1
 195.471679688 1 l 1
 179.471679688 1 l 1
EndSplineSet
Validated: 524289
EndChar

StartChar: Eth
Encoding: 208 208 143
Width: 899
VWidth: 1024
Flags: HW
LayerCount: 2
Fore
SplineSet
274.757342973 0 m 1
 214.708540443 0 l 1
 155 0 l 1
 139 0 l 1
 139 16 l 1
 139 20.8232421875 l 1
 140.915039062 368 l 1
 66 368 l 1
 50 368 l 1
 50 383.5546875 l 1
 50 484.661132812 l 1
 50 501.083984375 l 1
 66.8681640625 500.192382812 l 1
 142.076171875 496.21875 l 1
 144 911.515625 l 1
 144.072265625 927 l 1
 160 927 l 1
 209.347040217 927 l 1
 261.889742431 927 l 1
 403.433348396 927 l 2
 767.456054688 927 833 899.934570312 833 584.8125 c 0
 833 547.822265625 831.995117188 508.061523438 830.997070312 462.708984375 c 0
 821.965820312 23.310546875 803.9765625 0 435.602349751 0 c 2
 279.046543154 0 l 1
 274.757342973 0 l 1
289.015582637 368 m 1
 290.930852932 277.03515625 292.737217754 193.044921875 293.816847976 128.913085938 c 1
 345.683079654 128.75390625 368.707162753 128 425.951649345 128 c 0
 667.911337568 128 664.009589553 120.857421875 671.512548365 463.334960938 c 0
 672.587989914 502.584960938 673.652959783 536.7734375 673.652959783 567.985351562 c 0
 673.652959783 794.2890625 647.274797539 798 408.794848622 798 c 2
 281.497963472 798 l 1
 282.363971419 753.967773438 284.85623129 625.971679688 287.362104344 487.743164062 c 1
 415.051677499 481.74609375 l 1
 431.313149571 480.982421875 l 1
 431.313149571 466.340820312 l 1
 431.313149571 383.42578125 l 1
 431.313149571 368 l 1
 414.156348848 368 l 1
 289.015582637 368 l 1
EndSplineSet
Validated: 524321
EndChar

StartChar: Ntilde
Encoding: 209 209 144
Width: 803
VWidth: 1024
Flags: HW
LayerCount: 2
Fore
SplineSet
270.00917566 989.841796875 m 1
 253.347688961 989.0234375 l 1
 176.86328125 985.0234375 l 1
 160 984.111328125 l 1
 160 1001 l 2
 160 1146.28125 218.274414062 1167 314.038497931 1167 c 0
 451.664527938 1167 415.348936541 1064 472.544058108 1064 c 0
 473.07185101 1064 491.256520074 1068.7421875 491.256520074 1134 c 2
 491.256520074 1155.109375 l 1
 513.628059505 1149.40429688 l 1
 576.32421875 1133.40429688 l 1
 588 1130.12695312 l 1
 588 1118 l 2
 588 977.578125 562.54510952 960 464.838926711 960 c 0
 327.692317548 960 376.918948735 1049 321.743629329 1049 c 2
 314.038497931 1049 l 2
 292.402213784 1049 270.00917566 1050.5859375 270.00917566 1005 c 2
 270.00917566 989.841796875 l 1
584.870117188 935.38671875 m 1
 602.31640625 933.9453125 l 1
 711.31640625 924.9453125 l 1
 725.936523438 923.73828125 l 1
 726 909.568359375 l 1
 730 15.0693359375 l 1
 730.071289062 -1.4404296875 l 1
 713.567382812 -0.994140625 l 1
 677.21484375 -0.01171875 l 1
 545.038724205 -6.9765625 l 1
 533.108024793 -7.560546875 l 1
 528.100979307 2.294921875 l 1
 214.69921875 621.469726562 l 1
 228.181319502 21.1767578125 l 1
 228.181319502 16 l 1
 228.181319502 0 l 1
 212 0 l 1
 150 0 l 1
 88 0 l 1
 72 0 l 1
 72 16 l 1
 72 20.845703125 l 1
 73 919.017578125 l 1
 73.0224609375 939.686523438 l 1
 93.0263671875 934.485351562 l 1
 141.81640625 921.799804688 l 1
 221.572265625 913.922851562 l 1
 231.224459428 913.014648438 l 1
 235.418854337 904.599609375 l 1
 590.4375 189.3671875 l 1
 585 917.880859375 l 1
 584.870117188 935.38671875 l 1
EndSplineSet
Validated: 524321
EndChar

StartChar: Ograve
Encoding: 210 210 145
Width: 841
VWidth: 1024
Flags: HW
LayerCount: 2
Fore
SplineSet
382.661206457 975 m 1
 377.515011991 982.186523438 l 1
 270.102903653 1132.18652344 l 1
 248.670492358 1162.11523438 l 1
 287.151990569 1156.82519531 l 1
 483.531703793 1129.82519531 l 1
 496.175215954 1128.08691406 l 1
 498.126891928 1116.44238281 l 1
 518.741336962 993.442382812 l 1
 521.832020359 975 l 1
 501.585236325 975 l 1
 392.003186405 975 l 1
 382.661206457 975 l 1
218.407859798 463.022460938 m 0
 218.407859798 154.502929688 242.813345352 121.67578125 414.941206581 119 c 2
 431.062134891 119 l 2
 580.530635435 119 616.592140202 145.262695312 616.592140202 339.748046875 c 0
 616.592140202 375.485351562 614.435972662 415.58984375 612.269209705 462.340820312 c 0
 595.919420369 759.95703125 561.430275616 808 414.787573022 808 c 0
 252.551593928 808 218.407859798 760.1015625 218.407859798 463.022460938 c 0
414.601093667 -15 m 1
 109.723632812 -9.005859375 59 67.6845703125 59 463 c 0
 59 844.921875 123.1953125 941 414.787573022 941 c 0
 689.123046875 941 752.927734375 845.084960938 771.985351562 463.666015625 c 0
 773.991210938 412.233398438 776 366.783203125 776 325.599609375 c 0
 776 48.8515625 704.595703125 -15 447.33669676 -15 c 2
 414.601093667 -15 l 1
EndSplineSet
Validated: 524289
EndChar

StartChar: Oacute
Encoding: 211 211 146
Width: 841
VWidth: 1024
Flags: HW
LayerCount: 2
Fore
SplineSet
302.979425804 975 m 1
 311.727002809 996.595703125 l 1
 372.485367121 1146.59570312 l 1
 377.571167705 1159.15332031 l 1
 391.877100932 1156.73828125 l 1
 534.008274591 1132.73828125 l 1
 560.423710917 1128.27734375 l 1
 545.164190081 1107.90917969 l 1
 450.771731238 981.909179688 l 1
 445.595869602 975 l 1
 436.486988848 975 l 1
 327.989909719 975 l 1
 302.979425804 975 l 1
218.407859798 463.022460938 m 0
 218.407859798 154.502929688 242.813345352 121.67578125 414.941206581 119 c 2
 431.062134891 119 l 2
 580.530635435 119 616.592140202 145.262695312 616.592140202 339.748046875 c 0
 616.592140202 375.485351562 614.435972662 415.58984375 612.269209705 462.340820312 c 0
 595.919420369 759.95703125 561.430275616 808 414.787573022 808 c 0
 252.551593928 808 218.407859798 760.1015625 218.407859798 463.022460938 c 0
414.601093667 -15 m 1
 109.723632812 -9.005859375 59 67.6845703125 59 463 c 0
 59 844.921875 123.1953125 941 414.787573022 941 c 0
 689.123046875 941 752.927734375 845.084960938 771.985351562 463.666015625 c 0
 773.991210938 412.233398438 776 366.783203125 776 325.599609375 c 0
 776 48.8515625 704.595703125 -15 447.33669676 -15 c 2
 414.601093667 -15 l 1
EndSplineSet
Validated: 524289
EndChar

StartChar: Ocircumflex
Encoding: 212 212 147
Width: 841
VWidth: 1024
Flags: HW
LayerCount: 2
Fore
SplineSet
478.505237549 977.9609375 m 1
 393.763085315 1033.50292969 l 1
 344.410688355 980.571289062 l 1
 339.215754966 975 l 1
 331.244822092 975 l 1
 222.747742963 975 l 1
 189.228515625 975 l 1
 209.383789062 1000.84082031 l 1
 336.00110518 1150.84082031 l 1
 341.214050779 1157 l 1
 349.689325544 1157 l 1
 470.121083378 1157 l 1
 478.596358143 1157 l 1
 483.809303742 1150.84082031 l 1
 610.750886323 1000.84082031 l 1
 631.771484375 975 l 1
 597.062665959 975 l 1
 488.56558683 975 l 1
 483.023123735 975 l 1
 478.505237549 977.9609375 l 1
218.407859798 463.022460938 m 0
 218.407859798 154.502929688 242.813345352 121.67578125 414.941206581 119 c 2
 431.062134891 119 l 2
 580.530635435 119 616.592140202 145.262695312 616.592140202 339.748046875 c 0
 616.592140202 375.485351562 614.435972662 415.58984375 612.269209705 462.340820312 c 0
 595.919420369 759.95703125 561.430275616 808 414.787573022 808 c 0
 252.551593928 808 218.407859798 760.1015625 218.407859798 463.022460938 c 0
414.601093667 -15 m 1
 109.723632812 -9.005859375 59 67.6845703125 59 463 c 0
 59 844.921875 123.1953125 941 414.787573022 941 c 0
 689.123046875 941 752.927734375 845.084960938 771.985351562 463.666015625 c 0
 773.991210938 412.233398438 776 366.783203125 776 325.599609375 c 0
 776 48.8515625 704.595703125 -15 447.33669676 -15 c 2
 414.601093667 -15 l 1
EndSplineSet
Validated: 524289
EndChar

StartChar: Otilde
Encoding: 213 213 148
Width: 841
VWidth: 1024
Flags: HW
LayerCount: 2
Fore
SplineSet
313.885289432 975 m 1
 296.525756771 975 l 1
 209 975 l 1
 193 975 l 1
 193 991 l 1
 193 1054 l 2
 193 1136.32617188 207.665039062 1161 287.845990441 1161 c 0
 420.763388708 1161 395.101286594 1078 452.761550717 1078 c 0
 453.77659175 1078 455.013077017 1078.08691406 455.096780819 1078.09472656 c 0
 457.423534586 1083.45800781 459.271375465 1101.359375 459.271375465 1136 c 2
 459.271375465 1152 l 1
 476.630908125 1152 l 1
 564.51354222 1152 l 1
 581.873074881 1152 l 1
 581.873074881 1136 l 2
 581.873074881 997.765625 561.698339688 960 460.356346256 960 c 0
 325.033788129 960 374.864038436 1049 319.310143388 1049 c 0
 318.756003033 1049 317.915786395 1048.96386719 317.90095281 1048.96386719 c 0
 315.777631066 1043.88769531 313.885289432 1025.57617188 313.885289432 991 c 2
 313.885289432 975 l 1
218.407859798 463.022460938 m 0
 218.407859798 154.502929688 242.813345352 121.67578125 414.941206581 119 c 2
 431.062134891 119 l 2
 580.530635435 119 616.592140202 145.262695312 616.592140202 339.748046875 c 0
 616.592140202 375.485351562 614.435972662 415.58984375 612.269209705 462.340820312 c 0
 595.919420369 759.95703125 561.430275616 808 414.787573022 808 c 0
 252.551593928 808 218.407859798 760.1015625 218.407859798 463.022460938 c 0
414.601093667 -15 m 1
 109.723632812 -9.005859375 59 67.6845703125 59 463 c 0
 59 844.921875 123.1953125 941 414.787573022 941 c 0
 689.123046875 941 752.927734375 845.084960938 771.985351562 463.666015625 c 0
 773.991210938 412.233398438 776 366.783203125 776 325.599609375 c 0
 776 48.8515625 704.595703125 -15 447.33669676 -15 c 2
 414.601093667 -15 l 1
EndSplineSet
Validated: 524289
EndChar

StartChar: Odieresis
Encoding: 214 214 149
Width: 841
VWidth: 1024
Flags: HW
LayerCount: 2
Fore
SplineSet
435.711404258 979.529296875 m 1
 434.382738856 993.614257812 l 1
 423.533030943 1108.61425781 l 1
 421.891800713 1126 l 1
 440.826872013 1126 l 1
 569.938396176 1126 l 1
 587.297928837 1126 l 1
 587.297928837 1110 l 1
 587.297928837 991 l 1
 587.297928837 974.40234375 l 1
 569.301611562 975.010742188 l 1
 451.039795311 979.010742188 l 1
 435.711404258 979.529296875 l 1
248.403487827 975 m 1
 249.929228002 992.296875 l 1
 260.778935915 1115.296875 l 1
 262.124553986 1130.55078125 l 1
 278.718037934 1129.98925781 l 1
 396.979854185 1125.98925781 l 1
 413.70260223 1125.42382812 l 1
 413.70260223 1110 l 1
 413.70260223 991 l 1
 413.70260223 975 l 1
 396.34306957 975 l 1
 267.231545406 975 l 1
 248.403487827 975 l 1
218.407859798 463.022460938 m 0
 218.407859798 154.502929688 242.813345352 121.67578125 414.941206581 119 c 2
 431.062134891 119 l 2
 580.530635435 119 616.592140202 145.262695312 616.592140202 339.748046875 c 0
 616.592140202 375.485351562 614.435972662 415.58984375 612.269209705 462.340820312 c 0
 595.919420369 759.95703125 561.430275616 808 414.787573022 808 c 0
 252.551593928 808 218.407859798 760.1015625 218.407859798 463.022460938 c 0
414.601093667 -15 m 1
 109.723632812 -9.005859375 59 67.6845703125 59 463 c 0
 59 844.921875 123.1953125 941 414.787573022 941 c 0
 689.123046875 941 752.927734375 845.084960938 771.985351562 463.666015625 c 0
 773.991210938 412.233398438 776 366.783203125 776 325.599609375 c 0
 776 48.8515625 704.595703125 -15 447.33669676 -15 c 2
 414.601093667 -15 l 1
EndSplineSet
Validated: 524289
EndChar

StartChar: multiply
Encoding: 215 215 150
Width: 679
VWidth: 1024
Flags: HW
LayerCount: 2
Fore
SplineSet
488.623843139 704.42578125 m 1
 501.362304688 699.946289062 l 1
 590.362304688 667.65234375 l 1
 608.731445312 660.986328125 l 1
 598.125976562 645.258789062 l 1
 442.988197569 423.892578125 l 1
 640.836914062 158.65234375 l 1
 652.349609375 142.747070312 l 1
 633.370117188 135.849609375 l 1
 518.370117188 94.056640625 l 1
 506.16796875 89.3876953125 l 1
 499.153320312 100.41015625 l 1
 349.865779003 299.498046875 l 1
 309.499399344 245.874023438 218.23138647 122.5234375 211.484715435 116.802734375 c 2
 205.050572408 111.346679688 l 1
 196.182617188 112.538085938 l 1
 68.1826171875 131.515625 l 1
 43 135.249023438 l 1
 57.4892578125 155.145507812 l 1
 256.669053079 419.979492188 l 1
 87.2998046875 654.329101562 l 1
 70.91796875 677.875 l 1
 100.65234375 677.875 l 1
 227.918661935 677.875 l 1
 237.32182103 677.875 l 1
 242.658837767 671.310546875 l 1
 352.151823027 536.641601562 l 1
 480.631431097 694.103515625 l 1
 488.623843139 704.42578125 l 1
EndSplineSet
Validated: 524289
EndChar

StartChar: Oslash
Encoding: 216 216 151
Width: 897
VWidth: 1024
Flags: HW
LayerCount: 2
Fore
SplineSet
287.593984335 160.818359375 m 1
 318.179251207 128.959960938 369.299564044 119 460.02840342 119 c 0
 657.635387243 119 684.685316532 154.286132812 684.685316532 479 c 0
 684.685316532 571.57421875 680.213908477 643.47265625 670.368452984 694.26953125 c 1
 287.593984335 160.818359375 l 1
129.85546875 86.5576171875 m 1
 83.6650390625 160.709960938 73.990234375 275.9375 73.990234375 463.4140625 c 0
 73.990234375 845.860351562 144.116210938 941 460.02840342 941 c 0
 575.828469547 941 661.030732145 929.056640625 721.780273438 892.40625 c 1
 749.71484375 933.930664062 l 1
 754.470703125 941 l 1
 762.990234375 941 l 1
 828.990234375 941 l 1
 858.88671875 941 l 1
 842.303710938 916.125 l 1
 784.1640625 831.8125 l 1
 832.170898438 756.823242188 844.990234375 642.166992188 844.990234375 462.586914062 c 0
 844.990234375 61.150390625 789.243164062 -15 460.02840342 -15 c 0
 339.602310454 -15 253.391891601 -6.669921875 192.594726562 27.0615234375 c 1
 169.303710938 -7.875 l 1
 164.553710938 -15 l 1
 155.990234375 -15 l 1
 89.990234375 -15 l 1
 60 -15 l 1
 76.701171875 9.91015625 l 1
 129.85546875 86.5576171875 l 1
234.301695483 447 m 0
 234.301695483 351.466796875 237.332432578 278.8671875 246.599112355 227.923828125 c 1
 628.291249522 760.322265625 l 1
 596.262177525 795.268554688 546.346428587 808 460.02840342 808 c 0
 271.780034866 808 234.301695483 756.513671875 234.301695483 447 c 0
EndSplineSet
Validated: 524289
EndChar

StartChar: Ugrave
Encoding: 217 217 152
Width: 770
VWidth: 1024
Flags: HW
LayerCount: 2
Fore
SplineSet
293.517618822 960 m 1
 288.255827435 967.186523438 l 1
 182.646484375 1117.18652344 l 1
 166.26953125 1142 l 1
 196 1142 l 1
 351.880494549 1142 l 1
 364.200258118 1142 l 1
 368.508708673 1131.59570312 l 1
 430.631863976 981.595703125 l 1
 439.575934327 960 l 1
 414.003649852 960 l 1
 303.069443953 960 l 1
 293.517618822 960 l 1
202.5859375 913.635742188 m 2
 202.424804688 912.686523438 216.0078125 889.826171875 216.0078125 889.826171875 c 1
 217 385.907226562 l 2
 217 130.793945312 217.776367188 133 382.9420722 133 c 0
 526.632202411 133 528.206298125 130.947265625 541.572569926 386.91796875 c 1
 532.454081537 920.059570312 l 1
 700.059570312 929.987304688 l 1
 697.999023438 361.8515625 l 1
 681.91796875 15.77734375 658.85546875 -15 382.9420722 -15 c 0
 90.4228515625 -15 67 16.1416015625 67 362.31640625 c 2
 68.033203125 934.828125 l 1
 202.5859375 913.635742188 l 2
EndSplineSet
Validated: 524321
EndChar

StartChar: Uacute
Encoding: 218 218 153
Width: 771
VWidth: 1024
Flags: HW
LayerCount: 2
Fore
SplineSet
301.931588381 960 m 1
 310.878862043 981.595703125 l 1
 373.024266707 1131.59570312 l 1
 377.334260331 1142 l 1
 389.658436214 1142 l 1
 548 1142 l 1
 577.73046875 1142 l 1
 561.353515625 1117.18652344 l 1
 453.305890454 967.186523438 l 1
 448.04221456 960 l 1
 438.48696845 960 l 1
 327.51303155 960 l 1
 301.931588381 960 l 1
67 362.186523438 m 2
 67 906.689453125 l 1
 67 911.525390625 l 1
 67 927 l 1
 83 927 l 1
 142 927 l 1
 202 927 l 1
 218 927 l 1
 218 911.620117188 l 1
 218 908.736328125 l 1
 218 906.78515625 l 1
 217 385.811523438 l 2
 217 130.793945312 217.776367188 133 383 133 c 0
 541.557263535 133 542.802469136 130.498046875 542.802469136 386.772460938 c 2
 542.802469136 906.813476562 l 1
 542.802469136 911.620117188 l 1
 542.802469136 927 l 1
 559 927 l 1
 621 927 l 1
 683 927 l 1
 699 927 l 1
 699 911.525390625 l 1
 699 906.689453125 l 1
 699 362.186523438 l 2
 699 16.15625 675.583007812 -15 383 -15 c 0
 90.4228515625 -15 67 16.1552734375 67 362.186523438 c 2
EndSplineSet
Validated: 524321
EndChar

StartChar: Ucircumflex
Encoding: 219 219 154
Width: 770
VWidth: 1024
Flags: HW
LayerCount: 2
Fore
SplineSet
426.515164929 964.124023438 m 1
 358.536546902 1019.44433594 l 1
 290.557928876 964.124023438 l 1
 285.491139022 960 l 1
 278.663918655 960 l 1
 173 960 l 1
 140.228515625 960 l 1
 160.383789062 985.840820312 l 1
 283.52704024 1135.84082031 l 1
 288.857082164 1142 l 1
 297.522733658 1142 l 1
 419.550360147 1142 l 1
 428.170511283 1142 l 1
 433.500553207 1135.89257812 l 1
 562.575195312 985.892578125 l 1
 582.944335938 960 l 1
 550 960 l 1
 438.40917515 960 l 1
 431.581954783 960 l 1
 426.515164929 964.124023438 l 1
202.5859375 913.635742188 m 2
 202.424804688 912.686523438 216.0078125 889.826171875 216.0078125 889.826171875 c 1
 217 385.907226562 l 2
 217 130.793945312 217.776367188 133 382.9420722 133 c 0
 526.632202411 133 528.206298125 130.947265625 541.572569926 386.91796875 c 1
 532.454081537 920.059570312 l 1
 700.059570312 929.987304688 l 1
 697.999023438 361.8515625 l 1
 681.91796875 15.77734375 658.85546875 -15 382.9420722 -15 c 0
 90.4228515625 -15 67 16.1416015625 67 362.31640625 c 2
 68.033203125 934.828125 l 1
 202.5859375 913.635742188 l 2
EndSplineSet
Validated: 524321
EndChar

StartChar: Udieresis
Encoding: 220 220 155
Width: 770
VWidth: 1024
Flags: HW
LayerCount: 2
Fore
SplineSet
364.083257197 960 m 1
 364.083257197 976 l 1
 364.083257197 1096 l 1
 364.083257197 1112 l 1
 381.832730141 1112 l 1
 513.844435161 1112 l 1
 531.593908104 1112 l 1
 531.593908104 1096 l 1
 531.593908104 976 l 1
 531.593908104 960 l 1
 513.844435161 960 l 1
 381.832730141 960 l 1
 364.083257197 960 l 1
190 960 m 1
 190 976 l 1
 190 1096 l 1
 190 1112 l 1
 206 1112 l 1
 336.349705723 1112 l 1
 354.099178667 1112 l 1
 354.099178667 1096 l 1
 354.099178667 976 l 1
 354.099178667 960 l 1
 336.349705723 960 l 1
 206 960 l 1
 190 960 l 1
202.5859375 913.635742188 m 2
 202.424804688 912.686523438 216.0078125 889.826171875 216.0078125 889.826171875 c 1
 217 385.907226562 l 2
 217 130.793945312 217.776367188 133 382.9420722 133 c 0
 526.632202411 133 528.206298125 130.947265625 541.572569926 386.91796875 c 1
 532.454081537 920.059570312 l 1
 700.059570312 929.987304688 l 1
 697.999023438 361.8515625 l 1
 681.91796875 15.77734375 658.85546875 -15 382.9420722 -15 c 0
 90.4228515625 -15 67 16.1416015625 67 362.31640625 c 2
 68.033203125 934.828125 l 1
 202.5859375 913.635742188 l 2
EndSplineSet
Validated: 524321
EndChar

StartChar: Yacute
Encoding: 221 221 156
Width: 751
VWidth: 1024
Flags: HW
LayerCount: 2
Fore
SplineSet
312.527418762 1007 m 1
 383.597929394 1137 l 1
 387.671457009 1135.77929688 l 1
 396.681267236 1137 l 1
 544.289250856 1157 l 1
 582.118164062 1162.28125 l 1
 561.4087445 1139.25 l 1
 452.069497375 989.25 l 1
 446.875883136 975 l 1
 402.525151021 975 l 1
 363.163022055 975 l 1
 299.867984056 975 l 1
 312.527418762 1007 l 1
582.875976562 951 m 1
 704.875976562 919 l 1
 724.040039062 913.973632812 l 1
 715.091796875 904.546875 l 1
 462.962846976 431.7734375 l 2
 412.774637673 341.12109375 464.333858629 101.447265625 464.848521882 -2.85546875 c 2
 464.931807637 -3.8515625 l 1
 446.473335322 -3 l 1
 316.359631242 3 l 1
 299.67044733 3.76953125 l 1
 299.746258723 3.1455078125 l 1
 301.889265256 434.307617188 l 1
 50.53515625 906.5703125 l 1
 41 916.954101562 l 1
 61.7548828125 921 l 1
 179.754882812 944 l 1
 191.9921875 946.384765625 l 1
 197.491639572 944 l 1
 379.508385288 596.71484375 l 1
 563.802676063 951 l 1
 569.96484375 954.38671875 l 1
 582.875976562 951 l 1
EndSplineSet
Validated: 524325
EndChar

StartChar: Thorn
Encoding: 222 222 157
Width: 698
VWidth: 1024
Flags: HW
LayerCount: 2
Fore
SplineSet
196 0 m 1
 136.484375 0 l 1
 103.967773438 -1.970703125 l 1
 87 -2.9990234375 l 1
 87 14 l 1
 87 18.6123046875 l 1
 61 906.4921875 l 1
 61 911.541992188 l 1
 61 927 l 1
 77 927 l 1
 136 927 l 1
 196 927 l 1
 212 927 l 1
 212 911.54296875 l 1
 212 908.64453125 l 1
 212 906.712890625 l 1
 212 748.278320312 l 1
 347.069384215 748.278320312 l 1
 409.701647875 748.278320312 l 2
 612.138671875 748.278320312 632 725.208007812 632 488.40625 c 0
 632 232.127929688 621.299804688 183.12890625 358.708398268 183.12890625 c 1
 212 179.685546875 l 1
 212 20.830078125 l 1
 212 18.8984375 l 1
 212 16 l 1
 212 0 l 1
 196 0 l 1
212 629.477539062 m 1
 212 298 l 1
 351.624457936 298 l 2
 477.891601562 298 488 343.577148438 488 517 c 0
 488 638.397460938 483.831054688 637 450.697311362 637 c 0
 427.955305114 637 393.306273885 633 343.928874404 633 c 2
 212 629.477539062 l 1
EndSplineSet
Validated: 524321
EndChar

StartChar: germandbls
Encoding: 223 223 158
Width: 802
VWidth: 1024
Flags: HW
LayerCount: 2
Fore
SplineSet
288.109926911 106.357421875 m 1
 303.006102613 114 l 1
 303.006102613 131 l 1
 588.2578125 131 601.103515625 314.712890625 602.806640625 336.763671875 c 1
 570.451727084 446.650390625 495.027569558 459.612304688 335.969465835 461.26953125 c 0
 321.319138064 461.422851562 306.02593303 461.462890625 290.083432658 461.462890625 c 2
 277.199145421 461.462890625 l 1
 273.355787675 472.125 l 2
 261.595733388 504.75 246.269368296 569.567382812 246.269368296 583.012695312 c 2
 246.269368296 598.206054688 l 1
 262.928553803 598.206054688 l 2
 287.926959178 600.68359375 525.584028605 634.370117188 525.584028605 734 c 2
 525.584028605 738.545898438 l 2
 522.270162116 786.131835938 448.03334862 864 379.902264601 864 c 0
 375.576481488 864 365.923695434 862.962890625 361.556194828 862.3203125 c 0
 348.268638493 859.259765625 335.25385038 855.73046875 326.155158205 851.577148438 c 0
 285.183231758 834.313476562 272.73216464 824.388671875 250.734209718 804.444335938 c 1
 210.88671875 734.19140625 205 659.381835938 205 559.734375 c 0
 205 514.751953125 206 465.661132812 206 409.702148438 c 0
 206 288.041015625 211.981445312 151.786132812 221.959960938 16.4765625 c 2
 223.174804688 -0 l 1
 71.1142578125 0 l 1
 71 15.8857421875 l 2
 70.001953125 150.216796875 66 283.842773438 66 417.729492188 c 2
 66 532.098632812 l 2
 66 623.62890625 67.740234375 726.4453125 90.5654296875 806.21484375 c 0
 108.749023438 873.267578125 226.055638455 991 373.330154946 991 c 0
 473.479949624 991 578.926796223 935.4921875 654.358398438 781.059570312 c 0
 662.358398438 765.060546875 666 748.25390625 666 732 c 0
 666 653.70703125 578.327775812 589.711914062 511.747726786 551.072265625 c 1
 599.650390625 542.551757812 742 499.005859375 742 342.046875 c 2
 742 338.124023438 l 2
 738.825195312 80.572265625 421.321239584 0 308.487124503 0 c 0
 275.643813648 0 288.7554457 45.107421875 288.7554457 47 c 2
 288.7554457 78 l 2
 288.7554457 90.029296875 288.678368829 101.045898438 288.109926911 106.357421875 c 1
EndSplineSet
Validated: 524321
EndChar

StartChar: agrave
Encoding: 224 224 159
Width: 685
VWidth: 1024
Flags: HW
LayerCount: 2
Fore
SplineSet
461.088421211 155.331054688 m 1
 465.130015426 300.880859375 l 2
 462.842654496 300.880859375 462.522999125 300.876953125 461.041966105 300.876953125 c 0
 425.115578121 300.876953125 375.535813293 305.576171875 301.873500342 311.140625 c 0
 291.46866269 311.9921875 282.146671436 312 271.89447199 312 c 0
 214.4375 312 205.490234375 299.368164062 205.490234375 176.666992188 c 2
 205.490234375 161.8359375 l 2
 205.490234375 112.672851562 202.38671875 109 251.507316935 109 c 0
 268.898117658 109 291.947592711 109.884765625 322.035016311 112.62109375 c 0
 433.70534842 122.34375 450.556385055 118.717773438 461.088421211 155.331054688 c 1
63 499.038085938 m 1
 64.595703125 512.837890625 l 2
 81.7734375 661.375 114.140625 716 237.915880232 716 c 0
 264.994782687 716 296.075460694 713.944335938 331.384659414 710.926757812 c 0
 541.383789062 693.584960938 583.017578125 689.599609375 600.440429688 477.837890625 c 2
 600.486328125 477.279296875 l 1
 600.490234375 476.71875 l 1
 602.48046875 118.6875 l 1
 610.1484375 85.6796875 611.755859375 79.4736328125 612.376953125 74.8798828125 c 2
 636.649414062 6.119140625 l 1
 644.69140625 -17.6982421875 l 1
 619.708984375 -14.900390625 l 2
 546.970703125 -6.75390625 519.07421875 -19.5703125 497.427734375 -0.8896484375 c 0
 489.204821031 6.0771484375 486.235012474 15.384765625 484.073743975 24.1044921875 c 1
 438.308828202 -5.3828125 371.546204554 -3.74609375 261.314874654 -14.9150390625 c 0
 224.479293883 -17.9638671875 198.625976562 -20 175.490234375 -20 c 0
 72.8154296875 -20 64.490234375 30.26171875 64.490234375 138.510742188 c 2
 64.490234375 171.372070312 l 2
 64.490234375 372.887695312 84.28515625 442 202.490234375 442 c 0
 218.200112066 442 236.386179959 440.915039062 256.678212654 438.924804688 c 0
 378.073146935 429.7578125 439.188156992 425.500976562 468.29781122 421.275390625 c 1
 468.957031294 450.591796875 l 1
 455.581279012 589.245117188 449.126231437 575.510742188 327.712493898 584.28125 c 0
 310.09052372 586.03125 297.015623552 586 283.220669242 586 c 0
 224.921723463 586 215.336914062 573.784179688 203.358398438 480.952148438 c 2
 201.03125 462.91796875 l 1
 183.439453125 467.521484375 l 1
 76.439453125 495.521484375 l 1
 63 499.038085938 l 1
236.755608658 745 m 1
 231.467469101 752.72265625 l 1
 148.796875 886.72265625 l 1
 136.0859375 907.750976562 l 1
 160.458984375 910.870117188 l 1
 294.511472128 926.870117188 l 1
 308.763234979 928.481445312 l 1
 313.78923501 916.595703125 l 1
 377.215939624 766.595703125 l 1
 386.347686158 745 l 1
 360.238810558 745 l 1
 246.976838034 745 l 1
 236.755608658 745 l 1
EndSplineSet
Validated: 524321
EndChar

StartChar: aacute
Encoding: 225 225 160
Width: 666
VWidth: 1024
Flags: HW
LayerCount: 2
Fore
SplineSet
466.989257812 174.849609375 m 1
 466.098632812 293.9453125 l 1
 436.363565466 297.071289062 363.224981118 303.697265625 305.737811163 307.178710938 c 0
 287.290164944 308.100585938 272.220448412 309 259.412890232 309 c 0
 202.974609375 309 195.16796875 300.704101562 187.001953125 172.151367188 c 0
 186.875 163.06640625 186 158.373046875 186 153.053710938 c 0
 186 106.864257812 197.215820312 102 235.029204431 102 c 0
 258.851602821 102 286.097287458 104.666015625 322.019681717 108.372070312 c 0
 408.710805718 117.612304688 458.231445312 137.170898438 466.989257812 174.849609375 c 1
65.7470703125 540.831054688 m 1
 68.25 554.818359375 l 2
 85.8564453125 653.208007812 116.810546875 714 271.024169184 714 c 0
 289.32213876 714 308.03625476 712.9765625 327.937578676 711.967773438 c 0
 536.75390625 699.345703125 569.607421875 689.622070312 586.94921875 478.721679688 c 0
 596.008789062 371.771484375 598 247.043945312 598 152.077148438 c 0
 598 61.8935546875 595.99609375 -2.3720703125 595.993164062 -2.4755859375 c 2
 595.471679688 -20.0244140625 l 1
 578.045898438 -17.8798828125 l 2
 513.645507812 -9.9541015625 507.016601562 -12.072265625 492.501953125 -5.62109375 c 2
 492.169921875 -5.4736328125 l 1
 491.844726562 -5.310546875 l 2
 477.733398438 1.7451171875 477.689453125 17.646484375 477.276367188 23.6357421875 c 1
 434.400760401 -4.6083984375 367.534988081 -2.9599609375 256.979510873 -13.88671875 c 0
 237.86058759 -15.9443359375 218.427570139 -17 203 -17 c 0
 108.765625 -17 59 27.51171875 59 169.154296875 c 0
 59 399.422851562 99.296875 426.333984375 249.585257938 430.333007812 c 2
 250.160152316 430.346679688 l 1
 250.735046694 430.331054688 l 2
 370.080624921 427.120117188 437.008762509 424.309570312 463.75 422.875 c 1
 454.190429688 561.732421875 472.46875 583.46484375 326.50431143 585.15234375 c 2
 325.788811721 585.16015625 l 1
 325.076713754 585.212890625 l 2
 299.772289818 587.094726562 281.732852625 588 266.379657603 588 c 0
 213.72636286 588 206.993164062 580.067382812 191.4921875 520.001953125 c 2
 187.319335938 503.830078125 l 1
 171.341796875 508.693359375 l 1
 79.341796875 536.693359375 l 1
 65.7470703125 540.831054688 l 1
229.163467515 745 m 1
 238.52506117 766.595703125 l 1
 303.548223305 916.595703125 l 1
 308.057799125 927 l 1
 320.952668681 927 l 1
 481 927 l 1
 510.73046875 927 l 1
 494.353515625 902.186523438 l 1
 387.547435565 752.186523438 l 1
 382.04001546 745 l 1
 372.042296073 745 l 1
 255.929506546 745 l 1
 229.163467515 745 l 1
EndSplineSet
Validated: 524293
EndChar

